<?xml version="1.0" encoding="UTF-8"?>
<svg width="200px" height="200px" viewBox="0 0 200 200" version="1.1" xmlns="http://www.w3.org/2000/svg" xmlns:xlink="http://www.w3.org/1999/xlink">
    <!-- Generator: Sketch 53.2 (72643) - https://sketchapp.com -->
    <title>Emerging Tech</title>
    <desc>Created with Sketch.</desc>
    <g id="Emerging-Tech" stroke="none" stroke-width="1" fill="none" fill-rule="evenodd">
        <g transform="translate(29.000000, 29.000000)" fill-rule="nonzero">
            <path d="M71,70.3358425 L88.7494409,70.3358425" id="Path-5" stroke="#041630" stroke-width="5" stroke-linecap="round" stroke-linejoin="round"></path>
            <path d="M71,85.5 L109.01463,85.5" id="Path-5-Copy" stroke="#041630" stroke-width="5" stroke-linecap="round" stroke-linejoin="round"></path>
            <path d="M71,101.5 L99.4419291,101.642929" id="Path-5-Copy-2" stroke="#041630" stroke-width="5" stroke-linecap="round" stroke-linejoin="round"></path>
            <path d="M71.0536371,54.9547837 C92.0971681,54.9547837 102.618934,54.9547837 102.618934,54.9547837 L131.12941,83.46526" id="Path-4" stroke="#041630" stroke-width="5" stroke-linecap="round" stroke-linejoin="round"></path>
            <path d="M50.1047559,0.733480315 C38.8738255,0.734097806 29.769685,9.83873888 29.769685,21.0696693 L29.769685,21.1166299 C23.9579083,21.4136389 18.6844469,24.611503 15.7344253,29.6277104 C12.7844037,34.6439177 12.5527827,40.8068782 15.1179685,46.0303622 C6.40070027,51.4598078 1.026881,60.9352018 0.841496692,71.20337 C0.656112383,81.4715382 5.68439832,91.1347345 14.2,96.8753071 C12.5257704,102.000904 13.3336292,107.613819 16.3853976,112.059209 C19.4371659,116.5046 24.3848307,119.275531 29.769685,119.555055 L29.769685,119.602016 C29.7155464,126.903163 33.5796117,133.672986 39.8937217,137.339277 C46.2078317,141.005568 54.0027982,141.005568 60.3169082,137.339277 C66.6310183,133.672986 70.4950836,126.903163 70.4409449,119.602016 L70.4409449,21.0696693 C70.4409449,9.83830225 61.3361229,0.733480315 50.1047559,0.733480315 L50.1047559,0.733480315 Z" id="Path" stroke="#041630" stroke-width="5" stroke-linecap="round" stroke-linejoin="round"></path>
            <path d="M11.3443465,73.7024724 C10.2636948,73.7024724 9.38765354,72.8264312 9.38765354,71.7457795 C9.40120954,59.7376402 19.1323489,50.0065009 31.1404882,49.9929449 C32.2211398,49.9929449 33.0971811,50.8689861 33.0971811,51.9496378 C33.0971811,53.0302895 32.2211398,53.9063307 31.1404882,53.9063307 C21.2943771,53.9198858 13.3165981,61.8996654 13.3055118,71.7457795 C13.3055132,72.2655026 13.0987484,72.7638741 12.7308294,73.130954 C12.3629104,73.4980339 11.8640682,73.7036604 11.3443465,73.7024724 L11.3443465,73.7024724 Z" id="Path" fill="#C5001A"></path>
            <path d="M59.5047087,23.4557165 C58.424057,23.4557165 57.5480157,22.5796753 57.5480157,21.4990236 C57.5480158,18.8402024 56.1295516,16.3833503 53.8269449,15.0539396 C51.5243382,13.724529 48.6874098,13.724529 46.3848031,15.0539396 C44.0821964,16.3833503 42.6637322,18.8402024 42.6637323,21.4990236 C42.6637323,22.5796753 41.787691,23.4557165 40.7070394,23.4557165 C39.6263877,23.4557165 38.7503465,22.5796753 38.7503465,21.4990236 C38.7503464,17.4418846 40.9148042,13.6929335 44.4283897,11.6643639 C47.9419752,9.63579438 52.270891,9.63579438 55.7844764,11.6643639 C59.2980619,13.6929335 61.4625198,17.4418846 61.4625197,21.4990236 C61.4625198,22.0181646 61.2562153,22.5160267 60.8890223,22.8830099 C60.5218294,23.2499932 60.0238496,23.4560132 59.5047087,23.4557165 L59.5047087,23.4557165 Z" id="Path" fill="#C5001A"></path>
            <path d="M39.8349134,68.2393858 C38.7542617,68.2393858 37.8782205,67.3633446 37.8782205,66.2826929 C37.8782205,65.2020413 38.7542617,64.326 39.8349134,64.326 C45.1488029,64.3204535 49.4551779,60.0140785 49.4607244,54.700189 L49.4607244,48.3750394 C49.4551779,43.0611499 45.1488029,38.7547749 39.8349134,38.7492283 L38.9963307,38.7492283 C37.9156791,38.7492283 37.0396378,37.8731871 37.0396378,36.7925354 C37.0396378,35.7118838 37.9156791,34.8358425 38.9963307,34.8358425 L39.8349134,34.8358425 C47.3088294,34.8444686 53.3654841,40.9011234 53.3741102,48.3750394 L53.3741102,54.700189 C53.3654841,62.1741049 47.3088294,68.2307597 39.8349134,68.2393858 L39.8349134,68.2393858 Z" id="Path" fill="#C5001A"></path>
            <path d="M51.4330709,87.9460787 L40.2519685,87.9460787 C31.8424102,87.9362207 25.0275746,81.1213851 25.0177165,72.7118268 C25.0177165,71.6311751 25.8937578,70.7551339 26.9744094,70.7551339 C28.0550611,70.7551339 28.9311024,71.6311751 28.9311024,72.7118268 C28.9378809,78.9613586 34.0024367,84.0259143 40.2519685,84.0326929 L51.4330709,84.0326929 C52.5137225,84.0326929 53.3897638,84.9087342 53.3897638,85.9893858 C53.3897638,87.0700375 52.5137225,87.9460787 51.4330709,87.9460787 L51.4330709,87.9460787 Z" id="Path" fill="#C5001A"></path>
            <path d="M58.5610236,115.060252 C48.6853778,115.049161 40.6823512,107.046134 40.6712598,97.1704882 C40.6712598,96.0898365 41.5473011,95.2137953 42.6279528,95.2137953 C43.7086044,95.2137953 44.5846457,96.0898365 44.5846457,97.1704882 C44.5932724,104.885852 50.8456594,111.138239 58.5610236,111.146866 C59.6416753,111.146866 60.5177165,112.022907 60.5177165,113.103559 C60.5177165,114.184211 59.6416753,115.060252 58.5610236,115.060252 L58.5610236,115.060252 Z" id="Path" fill="#C5001A"></path>
            <path d="M30.5109921,110.965732 C30.4133341,110.965628 30.3158089,110.958528 30.2191654,110.944488 C24.8175087,110.12898 21.0948995,105.09548 21.8970709,99.6918268 C21.9924705,98.9931187 22.45646,98.3997958 23.1115719,98.1387931 C23.7666839,97.8777904 24.5115607,97.9894896 25.061301,98.431168 C25.6110412,98.8728463 25.8805902,99.5761681 25.7668504,100.272126 C25.282378,103.538637 27.533044,106.581037 30.7983465,107.073591 C31.8119044,107.224175 32.5376247,108.131207 32.4621784,109.153109 C32.386732,110.17501 31.5356752,110.96563 30.5109921,110.965732 L30.5109921,110.965732 Z" id="Path" fill="#C5001A"></path>
            <path d="M50.5944882,131.650772 C43.804886,131.643377 38.3026703,126.141161 38.2952756,119.351559 C38.2952756,118.270907 39.1713168,117.394866 40.2519685,117.394866 C41.3326202,117.394866 42.2086614,118.270907 42.2086614,119.351559 C42.2135915,123.98088 45.9651676,127.732456 50.5944882,127.737386 C51.6751398,127.737386 52.5511811,128.613427 52.5511811,129.694079 C52.5511811,130.77473 51.6751398,131.650772 50.5944882,131.650772 L50.5944882,131.650772 Z" id="Path" fill="#C5001A"></path>
            <g id="Group" transform="translate(84.976378, 5.590551)" fill="#C5001A">
                <circle id="Oval" cx="15.5831024" cy="96.052378" r="5.80075591"></circle>
                <circle id="Oval" cx="23.480315" cy="128.757102" r="5.7996378"></circle>
                <circle id="Oval" cx="27.882315" cy="80.3988346" r="5.7996378"></circle>
                <circle id="Oval" cx="49.2661732" cy="79.7704567" r="5.80075591"></circle>
                <circle id="Oval" cx="43.4665354" cy="51.5381732" r="5.7996378"></circle>
                <circle id="Oval" cx="43.4665354" cy="104.704315" r="5.7996378"></circle>
                <circle id="Oval" cx="49.2661732" cy="33.065874" r="5.80075591"></circle>
                <circle id="Oval" cx="31.9354646" cy="6.5096378" r="5.80075591"></circle>
                <circle id="Oval" cx="6.63151181" cy="64.559685" r="5.7996378"></circle>
            </g>
            <polyline id="Path-2" stroke="#041630" stroke-width="5" stroke-linecap="round" stroke-linejoin="round" points="71.2563307 26.1135308 103.021061 26.1135308 114.256331 14.5142552"></polyline>
            <path d="M71.2563307,38.6564252 L130.399606,38.6564252" id="Path-3" stroke="#041630" stroke-width="5" stroke-linecap="round" stroke-linejoin="round"></path>
            <polyline id="Path-6" stroke="#041630" stroke-width="5" stroke-linecap="round" stroke-linejoin="round" points="70.4415064 117.394866 93.7563307 117.394866 106.360236 131.887812"></polyline>
        </g>
    </g>
</svg>