<?xml version="1.0" encoding="UTF-8"?>
<svg width="79px" height="18px" viewBox="0 0 79 18" version="1.1" xmlns="http://www.w3.org/2000/svg" xmlns:xlink="http://www.w3.org/1999/xlink">
    <!-- Generator: Sketch 53.2 (72643) - https://sketchapp.com -->
    <title>Gucci</title>
    <desc>Created with Sketch.</desc>
    <g id="Page-1" stroke="none" stroke-width="1" fill="none" fill-rule="evenodd">
        <g id="Gucci-Copy" transform="translate(-55.000000, -51.000000)" fill="#337CC1">
            <g id="Gucci">
                <path d="M133.970719,68.2075768 L129.980629,68.2075768 C129.988711,68.1495633 130.035135,68.1317457 130.066114,68.10432 C130.466856,67.7499146 130.656155,67.3069383 130.655674,66.7662998 C130.652009,62.8665329 130.653691,58.966766 130.653691,55.0670295 C130.653691,54.4136781 130.644467,53.7601748 130.656426,53.1070667 C130.667183,52.5210937 130.471424,52.0398977 130.017196,51.6708977 C130.002954,51.6593437 129.991806,51.6438977 129.967017,51.6169889 L133.956206,51.6169889 C133.878774,51.6909957 133.814682,51.7518977 133.750982,51.8132558 C133.417635,52.1344281 133.257813,52.5297592 133.257813,52.9935937 C133.257873,57.6074619 133.258234,62.2212998 133.257302,66.835168 C133.257212,67.3315971 133.45237,67.7348639 133.810386,68.0647018 C133.854435,68.1052626 133.899747,68.1444248 133.970719,68.2075768 Z M127.366985,57.6060815 C127.320953,57.4966525 127.280539,57.4022437 127.241357,57.307318 C126.791907,56.2187133 126.247568,55.1862977 125.434063,54.3264329 C124.262694,53.0882944 122.870325,52.2361829 121.166275,52.0302471 C118.526907,51.7112944 116.154812,52.8242538 114.778128,55.3364092 C114.104975,56.564818 113.773342,57.8931389 113.688518,59.2888991 C113.593538,60.8527099 113.815678,62.3647099 114.440094,63.8046187 C115.071601,65.2607944 116.029484,66.4277234 117.43925,67.1759396 C118.257141,67.6100376 119.135578,67.824943 120.056112,67.8689396 C121.935519,67.9587876 123.557691,67.3235883 124.958382,66.0770579 C125.936216,65.2068552 126.677817,64.1529126 127.272576,62.9877167 C127.301933,62.93022 127.331259,62.8727234 127.386426,62.8173856 L127.386426,62.95722 C127.386426,63.853693 127.384323,64.7501964 127.38901,65.6466694 C127.389641,65.7629092 127.354395,65.8409599 127.271675,65.9202572 C125.67913,67.4469734 123.800234,68.3925511 121.6318,68.7190444 C119.383319,69.0575173 117.195866,68.8361964 115.14675,67.7859937 C112.734872,66.5498923 111.275257,64.5566052 110.748526,61.8780714 C110.423022,60.2228011 110.478399,58.572791 110.98566,56.9589025 C111.817463,54.312568 113.560365,52.5406626 116.126477,51.5904025 C117.529633,51.0707741 118.985371,50.9364126 120.468483,51.0382099 C121.965837,51.1409802 123.393722,51.5111356 124.745887,52.1723619 C125.693102,52.6355883 126.551708,53.2308653 127.324498,53.9532065 C127.368428,53.9942538 127.387628,54.0365781 127.387568,54.0977234 C127.386005,55.2525207 127.386366,56.407318 127.385885,57.5621153 C127.385855,57.5696862 127.379665,57.5772268 127.366985,57.6060815 Z M109.483955,57.5834994 C109.32209,57.2211278 109.167436,56.8552292 108.997187,56.4969319 C108.143208,54.6995771 106.870218,53.3026616 105.037835,52.5300298 C102.750534,51.5656008 100.554066,51.7864656 98.5573228,53.3212697 C97.4197867,54.1956379 96.7054088,55.3958305 96.278074,56.7592089 C95.4824177,59.297817 95.5743929,61.7977798 96.743569,64.2077427 C97.5066839,65.7807055 98.6764309,66.9577292 100.346288,67.5102258 C102.729681,68.2988508 104.913739,67.853442 106.859522,66.2579792 C107.941019,65.3711751 108.736555,64.2491244 109.380141,63.0103474 C109.411932,62.9491413 109.444082,62.8880873 109.503967,62.8315636 C109.503967,62.8734927 109.503937,62.9154825 109.503937,62.957442 C109.503937,63.8590535 109.502074,64.7607258 109.506491,65.6623069 C109.507002,65.7682393 109.474971,65.8402393 109.400694,65.9112967 C107.867072,67.3786616 106.066179,68.3129893 103.984612,68.6788879 C102.093126,69.011371 100.220509,68.9254454 98.4063044,68.2718508 C95.3866866,67.1840366 93.5017503,65.0552325 92.8659464,61.8595028 C92.4907741,59.97379 92.6125263,58.1064724 93.3290977,56.3127967 C94.2954836,53.8938035 96.0590281,52.3250366 98.4897161,51.5048204 C99.6358458,51.1180636 100.818723,50.9791717 102.023115,51.0112798 C104.231602,51.0701447 106.277382,51.6684623 108.129026,52.9049589 C108.589233,53.2122663 109.01843,53.5600433 109.425183,53.9365535 C109.475662,53.9832258 109.5058,54.0292596 109.50562,54.1042089 C109.503246,55.2631109 109.503937,56.4220129 109.503937,57.5809454 C109.497266,57.5817663 109.490626,57.5826481 109.483955,57.5834994 Z M91.4360191,51.6519065 C91.1075104,51.9890417 90.8962769,52.3852545 90.8402384,52.8600349 C90.8338984,52.9136396 90.8229912,52.9666667 90.8141873,53.0199673 C90.8263565,53.0647545 90.8211283,53.1105754 90.8211283,53.1559403 C90.8213686,56.561893 90.8213686,59.9678457 90.8211283,63.3738288 C90.8211283,63.4191633 90.8263565,63.4649842 90.8142173,63.5097714 C90.8037608,64.1941971 90.6486559,64.8422579 90.3216797,65.4428254 C90.1446702,65.76792 89.9218984,66.0600248 89.6649627,66.3274707 C89.234443,66.7755552 88.7463222,67.1427308 88.2015321,67.4345619 C87.2765816,67.9299876 86.2895531,68.2344369 85.2598873,68.4030349 C84.8110086,68.4765248 84.3587946,68.5111261 83.9036059,68.5363018 C83.4842036,68.5594707 83.0662437,68.5606565 82.652881,68.5202173 C80.9291794,68.3514977 79.2742263,67.9524572 77.8332411,66.9146903 C76.9444978,66.2746261 76.3145231,65.4448018 76.0681941,64.3488998 C75.9969517,64.0319842 75.964861,63.710143 75.9647708,63.3857781 C75.9637793,60.0380822 75.9609248,56.6903862 75.9669343,53.3427207 C75.9681061,52.6875754 75.7393249,52.1472714 75.2724778,51.7022883 C75.2478088,51.6787545 75.2122026,51.6638558 75.2056222,51.6241464 C75.252346,51.5968119 75.3035468,51.6097342 75.3524941,51.6097038 C76.6770755,51.6089133 78.001687,51.6084268 79.3262685,51.6117106 C79.3749153,51.6118626 79.4470892,51.5650079 79.4775874,51.6516937 C79.0889838,51.9367139 78.8388389,52.3086633 78.7630292,52.7953018 C78.7396823,52.9451396 78.7320803,53.0943998 78.7320803,53.2450281 C78.7321103,56.5882241 78.740103,59.9314504 78.7277234,63.2745856 C78.7234567,64.4262207 79.1746491,65.3395991 80.0298294,66.0665923 C80.8647577,66.7763457 81.8477598,67.166295 82.901794,67.3952781 C83.5266006,67.5310079 84.1626749,67.5958626 84.7956243,67.538518 C86.0319564,67.4265045 87.1983381,67.077116 88.2050776,66.3082849 C88.7692184,65.8774707 89.2302664,65.3544977 89.4905974,64.6722308 C89.6341341,64.2961464 89.718327,63.9075045 89.7188378,63.5075822 C89.7232848,60.0782781 89.7232247,56.6489741 89.7195589,53.2197004 C89.718958,52.659268 89.5622606,52.1483964 89.1771124,51.7261565 C89.1513618,51.6979099 89.1376902,51.6583829 89.1183997,51.624116 C89.1599253,51.5980889 89.2060181,51.6096734 89.2499775,51.6096126 C89.9333765,51.6088525 90.6168056,51.6081227 91.3001746,51.6113153 C91.3446148,51.6115281 91.4113502,51.5707241 91.4360191,51.6519065 Z M64.7104323,51.009267 C67.1872731,51.0981116 69.3464823,51.9710204 71.1640221,53.6860373 C71.4092093,53.917392 71.6436394,54.1596319 71.8684244,54.411571 C71.9188139,54.4680643 71.9424312,54.5222771 71.9422509,54.5989292 C71.9399673,55.5612906 71.9407486,56.5236825 71.9407486,57.4860744 L71.9407486,57.5388278 L71.9169209,57.545365 C71.8640675,57.4339292 71.8115445,57.3223413 71.7582704,57.2111183 C71.2866157,56.2264393 70.7844328,55.2579055 70.0466479,54.445169 C68.8143121,53.0876589 67.2981782,52.2620609 65.4794966,52.046365 C64.0888108,51.8814156 62.7690669,52.1132264 61.559417,52.8543886 C60.5701349,53.4605204 59.8482752,54.3202332 59.3132504,55.3465677 C58.6812325,56.5591048 58.3665456,57.8606994 58.2684707,59.221615 C58.1644765,60.6648075 58.3003511,62.0803616 58.7583342,63.4557197 C59.0988619,64.4784663 59.601195,65.4078075 60.3499172,66.1893785 C61.2156141,67.0930575 62.2689873,67.6320542 63.4941118,67.8152467 C64.9252114,68.0292704 66.2822741,67.7972163 67.5413521,67.0576656 C68.1000843,66.7294697 68.5852604,66.3108481 68.9979921,65.8068481 C69.0418013,65.753365 69.0630148,65.7005204 69.0628946,65.6295237 C69.0608213,64.5658514 69.0683632,63.5020879 69.058748,62.4384764 C69.0533395,61.8398548 68.8349246,61.325365 68.3904328,60.9184798 C68.3135414,60.8480913 68.2360791,60.7783109 68.1444644,60.6951825 L72.7034128,60.6951825 C72.7020005,60.7579697 72.6495978,60.7884359 72.6164254,60.8282974 C72.1571803,61.3799123 71.9236215,62.006294 71.9366621,62.736571 C71.9535488,63.6834562 71.9390358,64.6308886 71.9432124,65.5780474 C71.9436932,65.6834021 71.9155688,65.7558278 71.8379863,65.8263075 C70.2287654,67.2884123 68.3949399,68.3064764 66.2556521,68.721419 C65.7836969,68.8129393 65.3073247,68.8711656 64.8266858,68.8899562 C64.5103463,68.9175339 64.1933759,68.8949427 63.8770965,68.9022704 C62.6403437,68.9127298 61.4698756,68.6101352 60.3414439,68.12149 C59.1901761,67.6229629 58.1800111,66.9127839 57.324981,65.9880339 C56.5091929,65.1057602 55.8878118,64.09849 55.4898635,62.9538481 C55.2749041,62.3355542 55.1159831,61.7050069 55.0390016,61.0540575 C55.0136415,60.8394866 55.029777,60.6221183 55,60.4076386 L55,59.2526893 C55.0324212,59.0183548 55.0150237,58.7808582 55.0460026,58.5462197 C55.1533622,57.7333312 55.371146,56.9522163 55.6981523,56.2018413 C56.008873,55.4888954 56.4118092,54.8343278 56.9038962,54.2348852 C57.5860933,53.4038751 58.3984259,52.7321893 59.3273727,52.2033177 C60.3906015,51.597946 61.5316231,51.226544 62.7374871,51.0535981 C63.0746494,51.0052535 63.4142757,50.9985947 63.7544729,51.00124 C64.0733063,51.0061048 64.3919895,50.991115 64.7104323,51.009267 Z"></path>
            </g>
        </g>
    </g>
</svg>