<?xml version="1.0" encoding="UTF-8"?>
<svg width="64px" height="23px" viewBox="0 0 64 23" version="1.1" xmlns="http://www.w3.org/2000/svg" xmlns:xlink="http://www.w3.org/1999/xlink">
    <!-- Generator: Sketch 53.2 (72643) - https://sketchapp.com -->
    <title>Kora</title>
    <desc>Created with Sketch.</desc>
    <defs>
        <polygon id="path-1" points="0.0292737607 0.0327918736 0.134273756 0.0327918736 0.134273756 4.93999503 0.0292737607 4.93999503"></polygon>
    </defs>
    <g id="Page-1" stroke="none" stroke-width="1" fill="none" fill-rule="evenodd">
        <g id="Kora" transform="translate(-63.000000, -49.000000)">
            <g>
                <g transform="translate(63.000000, 49.000000)">
                    <path d="M58.7892956,17.6150666 C58.5763007,18.5480463 57.9764265,19.0838476 57.0203275,19.2396038 C55.9701513,19.4109357 54.9464013,19.3735542 54.0373409,18.7536445 C53.452794,18.3554278 53.2588258,17.7640734 53.3042789,17.0823804 C53.3539601,16.3409808 53.754528,15.8638476 54.4389659,15.5902359 C55.1134148,15.3202585 55.8279785,15.2548409 56.5435993,15.208114 C56.8722881,15.1868273 57.2042537,15.2044797 57.5345809,15.2044797 L57.5345809,15.1977302 C57.9108896,15.1977302 58.2871983,15.199807 58.6629785,15.1966919 C58.7919383,15.1956535 58.8896622,15.2174594 58.8860154,15.374254 C58.8674643,16.1218837 58.9578418,16.8747054 58.7892956,17.6150666 L58.7892956,17.6150666 Z M62.9963426,11.9730576 C62.9276346,11.5566693 62.8710297,11.1382043 62.787523,10.7249312 C62.4567201,9.09208691 61.755898,7.67314786 60.3183141,6.69188375 C59.2787084,5.98215463 58.0995725,5.66025847 56.8575423,5.55797856 C55.3089156,5.43077765 53.7730792,5.51177088 52.3275146,6.13687246 C51.0876513,6.67267381 50.1304953,7.49298984 49.8049248,8.86001016 C49.6653946,9.44513431 49.7240079,10.0411614 49.7203611,10.633035 C49.7203611,10.716105 49.6801404,10.8292878 49.7895977,10.871342 C49.8942453,10.9113194 49.9523829,10.8126738 50.0131631,10.7514097 C50.3255205,10.4367822 50.6637755,10.1605745 51.0612252,9.9508228 C52.9332554,8.96540519 54.9189181,8.79770767 56.9706463,9.17515688 C57.9478862,9.3553149 58.5149919,9.98145485 58.7390859,10.9191072 C58.8178359,11.2477528 58.8262923,11.583667 58.8469047,11.9185429 C58.8622319,12.168272 58.7692117,12.2492652 58.5139349,12.2471885 C57.5224248,12.2388815 56.5292763,12.218114 55.5394047,12.3115677 C54.1826849,12.439807 52.8529198,12.6713646 51.620403,13.2824481 C50.6574332,13.7601005 49.8583057,14.4137573 49.4270305,15.4064436 C48.3837252,17.8061275 49.2098074,20.5817032 52.020971,21.8942088 C54.0568963,22.8448409 56.2206186,22.9009131 58.3770473,22.4596038 C60.3874978,22.0478883 61.8420473,20.8880237 62.5957218,18.9566467 C62.7748913,18.4976851 62.8171732,18.0075722 62.9963426,17.5522449 L62.9963426,17.0818612 C62.9440188,17.0122901 62.9619886,16.9312968 62.9619886,16.8549763 C62.9609315,15.3701005 62.9609315,13.8857438 62.9619886,12.4013871 C62.9619886,12.3245474 62.9440188,12.2440734 62.9963426,12.1745023 L62.9963426,11.9730576 Z" id="Fill-1" fill="#5448F7"></path>
                    <g id="Group-5" transform="translate(62.894295, 12.141664)">
                        <mask id="mask-2" fill="white">
                            <use xlink:href="#path-1"></use>
                        </mask>
                        <g id="Clip-4"></g>
                        <path d="M0.134273756,4.93999503 C-0.0105322774,4.86549165 0.036896281,4.75739684 0.036743532,4.6613991 C0.0339176759,3.21146456 0.0337649269,1.7614781 0.0362089106,0.311543567 C0.0363616596,0.215390068 -0.009844907,0.107399097 0.134273756,0.0327918736 L0.134273756,4.93999503 Z" id="Fill-3" fill="#817CFE" mask="url(#mask-2)"></path>
                    </g>
                    <path d="M4.23592022,12.354084 C4.67390763,11.7881698 5.11030948,11.2210095 5.55025243,10.656549 C6.53478599,9.39331422 7.58734052,8.18848804 8.68529522,7.01730519 C9.64837072,5.98998916 10.7898229,5.44551738 12.2152508,5.46753093 C13.0023808,5.47967991 13.7898279,5.46727133 14.5771694,5.46763476 C14.6651157,5.46768668 14.7776383,5.43700271 14.8215586,5.53902302 C14.8644747,5.63855124 14.7723531,5.69981535 14.7079261,5.762014 C12.4358036,7.95609977 10.4062206,10.3611833 8.37658465,12.7665783 C8.21205529,12.9615851 8.17135898,13.1136551 8.3440276,13.3226799 C9.69403515,14.9571336 10.9911904,16.6358221 12.5187818,18.1209576 C13.2856165,18.8665106 14.1066778,19.5376122 15.1627206,19.8595084 C15.3541518,19.9178131 15.3679991,20.0338515 15.3256115,20.1947995 C15.0672164,21.1753368 14.1981652,21.8381314 13.171244,21.932312 C11.591593,22.0772172 10.3961258,21.4284406 9.3824177,20.3133819 C7.60398901,18.3571359 5.9759781,16.283865 4.38802928,14.178716 C4.33602257,14.109716 4.27735646,14.0454926 4.15849153,13.9034429 C4.15849153,14.1608041 4.15843867,14.3330704 4.15849153,14.5053368 C4.15949572,16.8014948 4.16060562,19.0976528 4.1612927,21.3938108 C4.16145126,21.8557318 4.14607122,21.872865 3.68752424,21.8662713 C3.15186569,21.8585874 2.61139757,21.9160614 2.08165847,21.8228673 C0.917374077,21.6179959 0.252914346,20.9368221 0.0703623322,19.7958041 C0.0262834732,19.520479 0.0054067953,19.2444271 0.00556535235,18.9640659 C0.00910645973,12.7700569 0.0106391779,6.57599594 1.58557041e-05,0.381986907 C-0.000512667786,0.0667882619 0.0902876678,-0.0130108352 0.396725587,0.00168216704 C1.02186317,0.0315873589 1.6547172,-0.0455638826 2.271187,0.101573815 C3.5099932,0.397251016 4.15431619,1.28796885 4.15643029,2.70997111 C4.16076418,5.71175666 4.15775159,8.71354221 4.15769874,11.7153797 L4.15769874,12.3185196 C4.1838078,12.3303571 4.20986401,12.3422465 4.23592022,12.354084" id="Fill-6" fill="#5448F7"></path>
                    <path d="M31.3605015,17.6150666 L31.3605015,17.6171433 C31.2939076,17.9047731 31.0692851,18.1036219 30.9308119,18.3512743 C30.4672968,18.9400327 29.9519864,19.4805068 29.3626827,19.9514097 C29.3462985,19.9555632 29.3304428,19.9617935 29.3156441,19.9701005 C29.2881609,19.9913871 29.2606777,20.0121546 29.2331945,20.0339605 C29.0746374,20.1289718 28.9160804,20.2239831 28.7580518,20.3189944 C27.5086223,20.9466919 26.1883706,21.1943442 24.7898975,21.0515677 C24.2148639,20.9928995 23.6630854,20.8459695 23.1171206,20.6715226 C23.080124,20.6595813 23.0425988,20.64764 23.0056022,20.6351795 C22.360275,20.3163984 21.6837649,20.0526512 21.1282867,19.5801907 C21.4866257,19.594728 21.7244612,19.8818386 22.0484461,19.9737348 C22.7170284,20.3989492 23.4522045,20.6497167 24.2354763,20.7722449 C24.9389411,20.9425384 25.6492767,20.9321546 26.3622549,20.8475271 C27.6222549,20.6980011 28.7559378,20.2634413 29.7099227,19.422877 C29.9741844,19.3205971 30.0339076,19.0397167 30.2162482,18.863193 C30.5883287,18.502877 30.9725653,18.1498296 31.2214998,17.6872336 C31.2680099,17.6628318 31.3139914,17.6389492 31.3605015,17.6150666" id="Fill-8" fill="#FEFEFE"></path>
                    <path d="M17.8693939,15.3078032 C17.848253,15.2506926 17.8281691,15.1920244 17.8059711,15.1317986 C17.8450819,15.1935819 17.8989913,15.2532885 17.8693939,15.3078032 M26.016072,8.05319819 C26.5234545,7.95351422 27.0313656,7.96389797 27.5329344,8.11913499 C27.0292515,8.07292731 26.5245116,8.05890926 26.016072,8.05319819 M20.6172045,9.89942844 C20.6579008,9.67617788 20.7847465,9.56091828 20.9184629,9.45656163 C20.8687817,9.62322077 20.7799898,9.75769029 20.6172045,9.89942844 M34.3440166,14.1505345 C33.9729931,13.9428596 33.9100988,13.678074 34.1326072,13.3239883 C34.1336643,13.3219115 34.1347213,13.3193156 34.1357784,13.3172388 C34.1378924,13.3125661 34.1400065,13.3073743 34.1421206,13.3021824 C34.1442347,13.2975097 34.1458203,13.2933562 34.1479344,13.2886835 L34.1479344,13.2881643 C34.1733035,13.218074 34.173832,13.145907 34.150577,13.0716632 C34.1437062,13.0534916 34.1352498,13.0363585 34.1257364,13.0192253 C34.1193941,13.0078032 34.1125233,12.9974194 34.105124,12.9865165 L34.105124,12.9859973 C34.0919109,12.9652298 34.0776408,12.9449815 34.0638992,12.9247332 C34.0158035,12.8536045 33.9745787,12.7793607 34.0047045,12.6760424 C34.0675988,12.4579837 34.0644277,12.2570582 33.8223639,12.1246655 C33.7267012,12.0727467 33.7599982,11.9668325 33.7895955,11.8801282 C33.8820871,11.6049589 33.8059797,11.3505571 33.6923471,11.0997896 C33.5158203,10.7088415 33.1426827,10.4066745 33.149025,9.93109887 C33.1495535,9.88125688 33.0903589,9.83764515 33.0586475,9.79143747 C32.6426995,9.1782772 32.0486391,8.72035395 31.5787817,8.14197923 C31.7230686,8.24477833 31.8974814,8.41870609 32.0364831,8.24945102 C32.181827,8.07240813 31.9772884,7.93586185 31.8456861,7.81281445 C31.1221374,7.13423657 30.2458455,6.69240813 29.3547549,6.27705824 C29.1829847,6.19710339 29.0059294,6.08443973 28.8135468,6.08807404 C28.490619,6.0937851 28.232171,5.91466546 27.9372549,5.84509436 C27.1957364,5.66649391 26.4309629,5.66182122 25.6794025,5.5600605 C24.9680099,5.46349165 24.27353,5.51644876 23.5927918,5.73866095 C21.9459126,6.27653905 20.5506106,7.18407856 19.4222129,8.48048939 C18.91853,9.0593833 18.4708706,9.67410113 18.2013237,10.3978483 C18.1859965,10.4388641 18.1812398,10.4819567 18.1696122,10.5240108 C18.1368438,10.6434239 18.0147549,10.8100831 18.1495284,10.8749815 C18.332926,10.9632433 18.3170703,10.7005345 18.4275317,10.6330402 C18.4835552,10.5982546 18.4909545,10.4949363 18.5739327,10.5089544 C18.6907364,10.5292027 18.647926,10.6273291 18.6442263,10.6984578 C18.6304847,10.9777806 18.6008874,11.2565842 18.6019445,11.5353878 C18.6019445,11.682837 18.5512062,11.8925887 18.7277331,11.9554104 C18.9475988,12.0327693 18.8307951,11.7150266 18.99728,11.6807603 C19.0961139,11.862995 19.0961139,12.0696316 19.1114411,12.2934014 C19.1679931,12.2555007 19.1986475,12.2420018 19.2197884,12.2191576 C19.4967347,11.9201056 19.5654428,11.9315278 19.7218857,12.2970357 C19.8006357,12.4813472 19.86353,12.6750041 20.0368857,12.8343946 C20.1161643,12.6713698 20.2689076,12.5831079 20.3503002,12.4154104 C20.6219612,11.8557264 20.9522884,11.3380966 21.5791173,11.0852524 C21.6562817,11.0546203 21.7202331,10.9720695 21.7709713,10.9004217 C22.1012985,10.4373065 22.518832,10.0572614 22.9633203,9.70732912 C24.7391592,8.30811919 26.6666844,8.21414628 28.6941005,9.09364966 C28.9715753,9.21410113 29.2178673,9.40568126 29.4784294,9.56403341 C29.8457532,9.77534266 30.1353841,10.067126 30.4022884,10.3890221 C31.1411643,11.2794284 31.6781441,12.2513472 31.7907196,13.4221147 C31.8298304,13.8312343 31.6580602,14.2860424 32.0153421,14.642205 C32.034369,14.6608957 32.0200988,14.7076226 32.0280267,14.7403314 C32.091978,15.0077129 32.045468,15.274056 32.0148136,15.5398799 C31.9482196,16.1151395 31.7251827,16.6104442 31.2310133,16.9593381 C31.2304847,16.9598573 31.2304847,16.9603765 31.2299562,16.9603765 C31.2220284,16.9681643 31.214629,16.9769905 31.2088153,16.9858167 C31.1950737,17.0034691 31.1855602,17.022679 31.1786894,17.0439657 C31.1755183,17.0569454 31.1734042,17.0694059 31.1712901,17.0818664 C31.168119,17.1119792 31.1686475,17.1405345 31.1734042,17.1675323 C31.1956022,17.3129047 31.3150485,17.4266068 31.3589159,17.5641914 C31.359973,17.5766519 31.3605015,17.5896316 31.3605015,17.6015729 L31.3605015,17.6171485 C31.3541592,17.9167196 31.1031106,18.0968777 30.9667515,18.3331079 C30.966223,18.3346655 30.9651659,18.3357038 30.9641089,18.3372614 C30.9614663,18.3424533 30.9582951,18.3481643 30.955124,18.3533562 C30.8679176,18.508074 30.7733119,18.6586384 30.6406525,18.782205 C30.5809294,18.8382772 30.5354763,18.8990221 30.5106357,18.9670357 C30.4889663,19.0257038 30.4820955,19.0895639 30.493723,19.1606926 C30.4842096,19.2115729 30.4662398,19.2557038 30.4419277,19.2956813 C30.4419277,19.2956813 30.4419277,19.2962005 30.4413992,19.2967196 C30.3658203,19.4228822 30.234218,19.5075097 30.1385552,19.6196542 C30.1285133,19.6315955 30.1189998,19.644056 30.1094864,19.6559973 C30.0920451,19.6798799 30.0761894,19.7053201 30.0629763,19.732837 C30.0428924,19.7541237 30.0233371,19.7754104 30.0032532,19.7956587 C30.0032532,19.7956587 30.0021961,19.7961779 30.0021961,19.7966971 C29.8420535,19.9586835 29.6665837,20.0755007 29.4091928,19.9457038 C29.4081357,19.9457038 29.4076072,19.9451847 29.4065502,19.9446655 C29.3917515,19.9451847 29.3769529,19.9477806 29.3626827,19.9514149 C29.3462985,19.9555684 29.3304428,19.9617986 29.3156441,19.9701056 C29.2881609,19.9913923 29.2606777,20.0121598 29.2331945,20.0339657 C29.1475737,20.1004217 29.0640669,20.1699928 28.9964159,20.2515052 C28.9536055,20.3018664 28.9171374,20.3574194 28.8891257,20.4202411 C28.8806693,20.4399702 28.8727414,20.4602185 28.8658706,20.4815052 C28.863228,20.4887738 28.8605854,20.4960424 28.8584713,20.5038302 C28.7665082,20.6097445 28.6655602,20.6954104 28.5075317,20.6429725 C28.436181,20.619609 28.3680015,20.6097445 28.3019361,20.6092253 C28.0175904,20.6076677 27.7734126,20.7873065 27.5086223,20.8646655 C27.4816676,20.8724533 27.4615837,20.8843946 27.4467851,20.899451 C27.3860049,20.9601959 27.4171878,21.0718212 27.4705686,21.1735819 C27.2480602,21.1060876 27.0736475,21.0095187 26.87228,21.0354781 C26.8511391,21.038074 26.8305267,21.04067 26.8093857,21.0427467 C25.9463069,21.1486609 25.0800569,21.1346429 24.2249059,21.0110763 C24.1535552,21.0006926 24.0785049,20.9960199 24.0023975,20.9929047 C23.6995535,20.9794059 23.3760971,20.9845977 23.158874,20.7265616 C23.1446039,20.7094284 23.1303337,20.6912569 23.1171206,20.6715278 C23.080124,20.6595865 23.0425988,20.6476451 23.0056022,20.6351847 C22.360275,20.3164036 21.6837649,20.0526564 21.1282867,19.5801959 C20.7847465,19.3590221 20.4961727,19.0755458 20.1949143,18.8050492 C18.9951659,17.7272163 18.6299562,16.1779612 17.860426,14.8581869 C17.7785049,14.8690898 17.7610636,14.9069905 17.7626492,14.9511214 C17.7526072,14.9012795 17.7404512,14.8514375 17.7267096,14.8015955 L17.726181,14.8015955 C17.6664579,14.7517535 17.6923555,14.6157264 17.5961643,14.6266293 C17.4677331,14.6416858 17.5163572,14.7657716 17.5131861,14.8462456 C17.5094864,14.9464488 17.5126576,15.0492479 17.5311559,15.1478935 C18.0136978,17.7510989 19.3535049,19.741144 21.8259378,20.9186609 C21.83228,20.9274871 21.8407364,20.9352749 21.8439076,20.9451395 C21.8465502,20.9534465 21.8460216,20.965907 21.8412649,20.9726564 C21.7397884,21.1227016 21.4845116,20.8657038 21.4232029,21.1242591 C21.9453841,21.4404442 22.5246458,21.6283901 23.0901659,21.8480063 C23.1784294,21.8822727 23.3866676,21.8537174 23.2730351,22.0650266 C23.1773723,22.1294059 23.0764243,22.1699025 22.9553924,22.1595187 C22.854973,22.1506926 22.7571961,22.1595187 22.7112146,22.265433 C22.709629,22.2706248 22.7075149,22.2758167 22.7054008,22.2815278 C22.7048723,22.2846429 22.7048723,22.2882772 22.7048723,22.2913923 C22.7032867,22.3059296 22.7038153,22.3204668 22.7059294,22.3339657 C22.7080435,22.3490221 22.7117431,22.3640786 22.7170284,22.3780966 C22.7223136,22.3926339 22.7291844,22.4071711 22.7371122,22.4211892 C22.7904931,22.5307377 22.9178673,22.5363968 23.001374,22.6039431 C23.7804176,22.80274 24.5515334,23.0333111 25.374973,22.9865323 C25.76978,22.9642591 26.1645871,22.9741237 26.5609797,22.9299928 C27.9240418,22.7788573 29.1813992,22.3100831 30.3763908,21.6875774 C30.8901156,21.4201959 31.3626156,21.054688 31.8002331,20.6741237 C32.6966089,19.8943043 33.4291424,18.9909183 33.7552414,17.8269002 C33.8297633,17.7266971 33.8667599,17.6119567 33.8947716,17.4935819 C33.8953002,17.4920244 33.8958287,17.4904668 33.8963572,17.4889093 C33.902171,17.4722953 33.9085133,17.4562005 33.9137985,17.4395865 C34.0755267,16.9858167 34.2108287,16.52374 34.3614579,16.0689318 C34.5311139,15.5559747 34.5527834,15.0466519 34.5755099,14.5264262 C34.5834378,14.3488641 34.498874,14.2372388 34.3440166,14.1505345" id="Fill-10" fill="#5448F7"></path>
                    <path d="M42.9376711,10.2376894 C42.8897341,10.3772989 42.8395772,10.5159219 42.7411661,10.6312853 C42.4756359,11.1305878 42.4219908,11.676098 42.4205638,12.2219196 C42.4124245,15.3099422 42.4167055,18.3979648 42.4165998,21.4859874 C42.4165998,21.9197165 42.4162827,21.9171205 41.9601669,21.921949 C41.2883079,21.9291138 40.6166074,21.9396533 39.9675805,21.7255923 C39.0348951,21.3937278 38.4960126,20.5345765 38.49337,19.3454817 C38.4884547,17.163493 38.4873448,14.9815043 38.4942685,12.7995156 C38.4962768,12.162265 38.4991309,11.5224185 38.5566342,10.8885427 C38.6953716,9.36073002 39.2453003,8.00149752 40.3809388,6.91120406 C41.1851401,6.13917246 42.1791342,5.75414312 43.2736007,5.58945688 C44.1164371,5.46261941 44.9547282,5.45997156 45.7725654,5.73228533 C46.3217013,5.91514312 46.8094757,6.18974131 47.115755,6.70155621 C47.6578616,7.49830113 47.5106678,8.39945463 47.5113549,9.2755833 C47.5115134,9.49327856 47.3951326,9.5407842 47.1641678,9.45906411 C46.2631409,9.14054266 45.3366921,9.00975937 44.3811745,9.182493 C43.8125889,9.2852921 43.3975394,9.62504831 43.0162097,10.019423 C42.9581779,10.0795449 42.9560109,10.1621476 42.9376711,10.2376894" id="Fill-12" fill="#5448F7"></path>
                    <path d="M34.0873497,13.0491097 C33.9220276,12.9485431 33.8577063,12.8238862 33.9275771,12.6252451 C33.9865603,12.457288 34.0304278,12.2712113 33.7508388,12.2160217 C33.6672264,12.1995634 33.6032222,12.084823 33.6505251,11.9948479 C33.9292684,11.4652248 33.5750519,11.0778072 33.3419202,10.669726 C33.2280763,10.4704099 33.0947298,10.3141345 33.0905016,10.0449359 C33.0873833,9.84395847 32.8747583,9.61551603 32.7008212,9.45700813 C32.5486065,9.31822935 32.4445402,9.13583883 32.2997247,9.01819097 C32.0316576,8.80044379 31.8377952,8.52444379 31.5902348,8.29610519 C31.4901853,8.2038456 31.3258145,8.11838736 31.4445209,7.99248442 C31.5503841,7.8801842 31.6326224,8.04834898 31.6947768,8.13043251 C31.7751652,8.23665824 31.8752675,8.25529707 32.0138464,8.22643025 C32.0137407,8.0780465 31.9310796,7.98760406 31.8255863,7.87987269 C31.4730612,7.51981625 31.0517751,7.22652731 30.6273707,6.99138736 C30.0779706,6.68698781 29.5068481,6.40127901 28.9246266,6.14874628 C28.8944479,6.13561084 28.8466165,6.11790655 28.827114,6.13109391 C28.4678237,6.37391783 28.2826291,5.8609088 27.9619739,5.9376447 C27.9614454,5.93774853 27.9458539,5.87726321 27.9372919,5.84507359 C29.2735049,6.02569887 30.4331912,6.59971242 31.4762852,7.4104754 C32.854833,8.48202619 33.7151635,9.90444379 34.2278313,11.5290849 C34.3788833,12.0078275 34.4147172,12.5342316 34.5423028,13.0182181 C34.7385435,13.7626808 34.6544555,14.5007576 34.6150276,15.2269968 C34.5739613,15.983972 34.3200058,16.7285386 33.9528405,17.4159427 C33.9284756,17.469419 33.8984026,17.5136018 33.8269462,17.4912248 C34.1310586,16.7931255 34.3009789,16.0561391 34.4767659,15.3211774 C34.5448925,15.0361436 34.5020293,14.7448795 34.503192,14.4565747 C34.5037734,14.2983264 34.3902994,14.2510284 34.2417843,14.2099607 C33.9935368,14.1413242 33.8041669,13.6327282 33.922609,13.409893 C33.9571744,13.3448388 34.02176,13.3226695 34.0933221,13.3182564 C34.1214924,13.2920894 34.1473372,13.2941661 34.1706451,13.3241752 C34.2376618,13.5230758 34.1510897,13.7524528 34.3014018,13.9321955 C34.2973321,13.9131932 34.2786753,13.8976176 34.268369,13.8813151 C34.1492398,13.6924348 34.2677348,13.4541278 34.1347583,13.2685702 C34.1816912,13.0135973 34.0083355,12.7717079 34.0739253,12.5394754 C33.9695947,12.6926357 34.1703808,12.8714438 34.0873497,13.0491097" id="Fill-14" fill="#584DEA"></path>
                    <path d="M31.1897884,18.0683172 C31.123723,18.1596941 31.0550149,18.2489944 30.9921206,18.3419289 C30.988421,18.3466016 30.9852498,18.3512743 30.9820787,18.355947 C30.9810216,18.3580237 30.9794361,18.3595813 30.978379,18.361658 C30.8298639,18.5698521 30.6755351,18.7728544 30.5106357,18.9670305 C30.2548304,19.2691975 29.9741844,19.5500779 29.6544277,19.7956535 C29.5783203,19.8543217 29.5059126,19.921816 29.4091928,19.9456986 C29.3933371,19.9498521 29.3769529,19.9524481 29.3595116,19.9540056 L29.3626827,19.9555632 L29.3621542,19.9560824 C29.3616257,19.9566016 29.3616257,19.9566016 29.3610971,19.9571208 C29.2479931,20.0661501 29.1253757,20.162719 28.9964159,20.2515 C28.9440921,20.2878431 28.8907112,20.3226287 28.8362733,20.3574142 C28.8220032,20.3662404 28.8077331,20.3750666 28.7934629,20.3838928 C28.7765502,20.3942765 28.7596374,20.4051795 28.7421961,20.4155632 C28.5963237,20.4851343 28.4493941,20.5495135 28.3019361,20.6092201 C28.0197045,20.7239605 27.7348304,20.8210485 27.4467851,20.8994458 C27.2359042,20.9570756 27.0234378,21.0048409 26.8093857,21.0427415 C26.0646961,21.1746151 25.3004512,21.1860372 24.5145367,21.0707777 C24.3432951,21.0458567 24.171525,21.0230124 24.0023975,20.9928995 C23.7095955,20.9415 23.4241928,20.8682946 23.158874,20.7265564 C23.1070787,20.6990395 23.0558119,20.6684074 23.0056022,20.6351795 C23.0425988,20.64764 23.080124,20.6595813 23.1171206,20.6715226 C23.6630854,20.8459695 24.2148639,20.9928995 24.7898975,21.0515677 C26.1883706,21.1943442 27.5086223,20.9466919 28.7580518,20.3189944 C28.9160804,20.2239831 29.0746374,20.1289718 29.2331945,20.0339605 C29.2606777,20.0121546 29.2881609,19.9913871 29.3156441,19.9701005 C29.3304428,19.9617935 29.3462985,19.9555632 29.3626827,19.9514097 C29.9519864,19.4805068 30.4672968,18.9400327 30.9308119,18.3512743 C31.0692851,18.1036219 31.2939076,17.9047731 31.3605015,17.6171433 L31.3605015,17.6150666 C31.3139914,17.6389492 31.2680099,17.6628318 31.2214998,17.6872336 C30.9725653,18.1498296 30.5883287,18.502877 30.2162482,18.863193 C30.0339076,19.0397167 29.9741844,19.3205971 29.7099227,19.422877 C28.7559378,20.2634413 27.6222549,20.6980011 26.3622549,20.8475271 C25.6492767,20.9321546 24.9389411,20.9425384 24.2354763,20.7722449 C23.4522045,20.6497167 22.7170284,20.3989492 22.0484461,19.9737348 C22.697473,20.2800553 23.3681693,20.5219966 24.0732196,20.6611388 C24.0943606,20.6652923 24.114973,20.6694458 24.1361139,20.6735993 C24.1799814,20.6819063 24.2233203,20.6896941 24.2671878,20.6969628 C26.241223,21.0183397 28.042431,20.6543894 29.617431,19.3958792 C29.6359294,19.3771885 29.6544277,19.3579786 29.672926,19.3392878 C29.6808539,19.3315 29.6882532,19.323193 29.696181,19.3154052 C30.2151911,18.7853149 30.7342012,18.2541862 31.1686475,17.6503713 C31.1718186,17.6462178 31.1749898,17.6425835 31.1776324,17.63843 C31.1808035,17.6353149 31.1845032,17.6321998 31.1876743,17.6290847 C31.2384126,17.5865113 31.2949646,17.5704165 31.3605015,17.6015677 C31.36103,17.6015677 31.3615586,17.6020869 31.3620871,17.6020869 C31.3631441,17.605202 31.3642012,17.607798 31.3647297,17.6109131 C31.3652582,17.6114323 31.3652582,17.6114323 31.3652582,17.6119515 C31.4297381,17.8071659 31.2875653,17.9333284 31.1897884,18.0683172" id="Fill-16" fill="#EEF0FE"></path>
                    <path d="M29.7099227,19.4228666 C28.7559378,20.2634309 27.6222549,20.6979907 26.3622549,20.8475167 C25.6492767,20.9321442 24.9389411,20.942528 24.2354763,20.7722345 C24.1810384,20.7358914 24.0758622,20.7405641 24.0732196,20.6611284 C24.0726911,20.6471104 24.0753337,20.6304964 24.0822045,20.6102481 C24.0954176,20.571309 24.1197297,20.5531375 24.14827,20.5495032 C24.1773388,20.5448305 24.2116928,20.554695 24.2444612,20.5707898 C25.3961139,20.6362074 26.5313824,20.5801352 27.6296542,20.1808801 C28.2612398,19.9513993 28.8389159,19.6258688 29.4113069,19.2878779 C29.6232448,19.2401126 29.6755686,19.2302481 29.696181,19.3153948 C29.7025233,19.3418734 29.7056945,19.3766589 29.7099227,19.4228666" id="Fill-18" fill="#584EE1"></path>
                    <path d="M29.4786672,9.56396072 C29.9368971,9.70642573 30.2010003,10.0684551 30.489257,10.4097169 C31.1603761,11.2041255 31.6271152,12.0896515 31.8053333,13.1150984 C31.8635766,13.4499223 31.8173836,13.7844867 31.8389474,14.1183242 C31.845184,14.2147892 31.7801756,14.3502451 31.9797989,14.3523738 C32.0921102,14.3535679 32.0979768,14.4625454 32.1134096,14.5546492 C32.2004575,15.0738366 32.0980825,15.5781752 32.0053266,16.0851616 C31.9394726,16.4453219 31.5905942,16.6328524 31.468241,16.9597847 C31.4525967,17.0015792 31.3071999,16.996595 31.2218434,17.0132609 C31.1414549,16.8761955 31.2922956,16.7736041 31.2786596,16.646507 C31.6336689,15.7819562 31.7127888,14.8718208 31.7459801,13.9530668 C31.7953442,12.5887982 31.2054063,11.4696898 30.3684893,10.4400375 C30.104069,10.1146628 29.7754331,9.85574402 29.4786672,9.56396072" id="Fill-20" fill="#645BE1"></path>
                    <path d="M39.9675647,21.7255975 C40.5936536,21.8462047 41.2253449,21.8769926 41.8624271,21.8590806 C42.4465513,21.8426743 42.38186,21.913751 42.3822299,21.3618549 C42.3840798,18.2262228 42.3759405,15.0905388 42.3923776,11.9549587 C42.3948088,11.4989564 42.4005697,11.0149181 42.7412031,10.6312905 C42.4439615,11.5410625 42.4492996,12.4793379 42.4520479,13.4205208 C42.4599758,16.1406472 42.4506737,18.8608255 42.4621956,21.5809 C42.4636226,21.900356 42.3753063,22.0181077 42.0399581,21.9969767 C41.5633357,21.9668639 41.0828021,22.0071009 40.6080294,21.9241348 C40.3853096,21.8851438 40.1604758,21.8557578 39.9675647,21.7255975" id="Fill-22" fill="#5852C3"></path>
                    <path d="M31.2310291,16.9593122 C31.2268009,16.9769646 31.2236298,16.9951361 31.2220442,17.0133077 L31.2199301,17.0159036 C31.203493,17.0662648 31.1871617,17.1171451 31.1734201,17.1675063 C31.1306096,17.321705 31.1110014,17.4753844 31.1876902,17.6290639 C31.1972036,17.6483257 31.2083026,17.6680029 31.2215157,17.6872648 C30.9725811,18.1498088 30.5883445,18.5028562 30.216264,18.8631722 C30.0339234,19.0396959 29.9742003,19.3205763 29.7099385,19.4228562 C29.7025392,19.3844363 29.6898546,19.3574386 29.6729419,19.339267 C29.6111046,19.2691767 29.4932439,19.316942 29.4113227,19.2878675 C30.3066415,18.5931948 30.7516583,17.5922016 31.2785962,16.6462422 C31.3108362,16.7578675 31.2553412,16.8559939 31.2310291,16.9593122" id="Fill-24" fill="#695FD3"></path>
                    <path d="M42.9376711,10.2376894 C42.8651577,10.1201454 42.9100294,10.016256 42.994646,9.93443205 C43.4744924,9.47059007 44.0112081,9.11987901 44.7147257,9.08192641 C45.5755319,9.03540722 46.4150386,9.12366907 47.2232567,9.42921084 C47.457604,9.51783612 47.4533758,9.35366907 47.4484606,9.22324921 C47.4173305,8.40635982 47.6138356,7.55868262 47.1213574,6.80108442 C47.1055017,6.77673454 47.1170235,6.73530339 47.1158079,6.70171196 C47.4183876,7.05943205 47.5541653,7.48516569 47.5808557,7.93618375 C47.6091846,8.41591287 47.5864052,8.89828984 47.5975042,9.37926501 C47.6034237,9.6366781 47.4958163,9.65858781 47.2833498,9.57131242 C46.6256023,9.30102348 45.939896,9.16084289 45.224698,9.15019955 C44.2736728,9.13602573 43.4851686,9.43980226 42.9376711,10.2376894" id="Fill-26" fill="#5D55C6"></path>
                    <path d="M18.9836811,12.5308569 C19.1655461,12.6200533 19.1421325,12.8168253 19.2662298,12.932033 C19.4678615,12.6950239 19.6340821,12.7254483 19.7737709,12.9951661 C19.866791,13.174805 19.9868716,13.337726 20.1365494,13.4783219 C20.1890318,13.5275409 20.2191576,13.5865725 20.1687893,13.655209 C20.1248162,13.7150713 20.0340687,13.7634077 19.9981291,13.7109698 C19.9009336,13.5692316 19.6115142,13.6383874 19.6365662,13.3506018 C19.6500435,13.1954686 19.5995695,13.1940149 19.4152734,13.3045499 C19.3820821,13.3244348 19.317338,13.3262 19.2838296,13.3075612 C19.068562,13.1880442 18.9134932,12.7957463 18.9836811,12.5308569" id="Fill-28" fill="#6256D1"></path>
                    <path d="M22.1234701,22.050749 C21.7285044,21.8600515 21.3313719,21.6736113 20.9396303,21.4768393 C20.7474591,21.3803223 20.5618417,21.2698393 20.3802939,21.155047 C20.302918,21.1061395 20.1402385,21.0614375 20.2161873,20.949916 C20.2791873,20.8573968 20.4469407,20.8894826 20.5208811,20.9813788 C20.7905867,21.3166181 21.2076445,21.40353 21.5585841,21.6007174 C21.8044004,21.7388731 22.0534407,21.8715774 22.3010011,22.0067219 C22.362944,22.0496587 22.3534835,22.104433 22.2997326,22.133144 C22.2142704,22.1788325 22.1548643,22.1352208 22.1234701,22.050749" id="Fill-30" fill="#6B62B6"></path>
                    <path d="M24.2354711,20.7722501 C23.4521992,20.6497219 22.7170231,20.3989544 22.0484409,19.97374 C22.3988519,20.0189093 22.6958821,20.2198348 23.0341372,20.2987512 C23.4046321,20.3859747 23.7772412,20.4664488 24.1482647,20.5495187 C24.1805046,20.5562682 24.212216,20.5635368 24.244456,20.5708054 C24.1133821,20.6009183 24.1070398,20.636223 24.1361086,20.6736045 C24.1620063,20.7063133 24.2153872,20.7400605 24.2354711,20.7722501" id="Fill-32" fill="#6E67BD"></path>
                    <path d="M21.8258902,20.9184481 C21.8918499,20.9625271 22.0464959,21.0096693 21.8228247,21.045649 C21.6886326,21.0672472 21.5350437,20.9922765 21.423261,21.1240982 C20.7894556,20.7911953 20.226261,20.3662404 19.6494305,19.8354752 C19.8859976,19.8525045 19.9679187,19.9871817 20.0765831,20.0660463 C20.4427442,20.3317144 20.8070026,20.6018995 21.2103717,20.8089515 C21.3945093,20.9034955 21.5876846,21.067351 21.8258902,20.9184481" id="Fill-34" fill="#7168B5"></path>
                    <path d="M22.7945258,22.393667 C22.8633924,22.4637573 22.932259,22.5338476 23.0011256,22.603886 C22.5123999,22.5243465 21.648264,22.1569695 21.1864402,21.7964458 C21.4711558,21.9075519 21.7559771,22.0187099 22.0406927,22.1298679 C22.2999335,22.1959605 22.5736558,22.2220237 22.7945258,22.393667" id="Fill-36" fill="#6A63BB"></path>
                    <path d="M18.2012497,10.3978275 C18.2526221,10.5506244 18.095175,10.6859765 18.1619275,10.844744 C18.3060559,10.8388253 18.287399,10.6379517 18.427722,10.6329156 C18.3650919,10.8740262 18.3024619,11.1151887 18.2356565,11.3723941 C17.8896322,11.0326898 17.9666381,10.7157779 18.2012497,10.3978275" id="Fill-38" fill="#6860C5"></path>
                    <path d="M18.2367823,14.2335059 C18.37256,14.8145804 18.4974501,15.3492395 18.6298981,15.9161402 C18.3808049,15.5742034 18.1840885,14.7263704 18.2367823,14.2335059" id="Fill-40" fill="#8D88AA"></path>
                    <path d="M22.7945258,22.393667 C22.530634,22.3404503 22.2665308,22.2878047 22.0406927,22.1298679 C22.0682816,22.1034932 22.0958706,22.0770666 22.1234595,22.0507438 C22.1932774,22.0771704 22.296868,22.2348995 22.3010434,22.0067167 C22.3802162,22.0055226 22.4191155,22.0598296 22.4569049,22.1156941 C22.5197464,22.2206219 22.6905652,22.1759199 22.7336927,22.308105 L22.7945258,22.393667 Z" id="Fill-42" fill="#C2BCF5"></path>
                    <path d="M22.7336716,22.3081102 C22.6445625,22.2396293 22.4712068,22.2879138 22.4569367,22.1156474 C22.7318746,22.1428009 23.0032714,22.114609 23.2732412,22.0651305 C23.1666909,22.303074 22.8456657,22.0819521 22.7336716,22.3081102" id="Fill-44" fill="#6A63BB"></path>
                    <path d="M33.8269621,17.4912041 C33.8689268,17.4661273 33.9108916,17.4410506 33.9528035,17.4159738 C34.0925451,17.6480506 33.9201936,17.7356375 33.7554,17.8267029 C33.7456752,17.7080167 33.7584654,17.5938993 33.8269621,17.4912041" id="Fill-46" fill="#7B73DB"></path>
                    <path d="M17.8601829,14.857974 C17.7308003,15.0205835 17.9608138,15.1963284 17.8324883,15.3687506 C17.7353985,15.1868792 17.704797,14.9995045 17.7264664,14.801746 C17.7795831,14.8008634 17.8385134,14.7866377 17.8601829,14.857974" id="Fill-48" fill="#C7C8FE"></path>
                    <path d="M28.9594087,20.5095361 C28.7696688,20.7732833 28.6592074,20.8080688 28.4308852,20.6715226 C28.3595346,20.62843 28.3035111,20.6715226 28.2416738,20.6922901 C28.0381923,20.7597844 27.8336537,20.8246828 27.6307007,20.8937348 C27.560407,20.9176174 27.4536453,20.9150214 27.469501,21.0276851 C27.4901134,21.1756535 27.6349289,21.0084752 27.6861956,21.1045248 C27.5693919,21.2748183 27.4060782,21.3012968 27.2448785,21.1974594 C27.1175044,21.115947 26.9885446,21.0982946 26.8553567,21.1185429 C25.9494674,21.2566467 25.0446352,21.1761727 24.139803,21.1123126 C23.8961537,21.0951795 23.6604322,20.8760824 23.4051554,21.0925835 C23.3892997,21.1060824 23.2645681,21.0370305 23.2677393,21.0250892 C23.3242913,20.7982043 23.0468164,20.7924932 23.0055916,20.6351795 C23.0425883,20.64764 23.0801134,20.6595813 23.1171101,20.6715226 C23.6630748,20.8459695 24.2148534,20.9928995 24.7898869,21.0515677 C26.1883601,21.1943442 27.5086117,20.9466919 28.7580413,20.3189944 C28.7908097,20.3247054 28.8156503,20.3387235 28.8362628,20.3574142 C28.8568752,20.3750666 28.8732594,20.3973916 28.8891151,20.4202359 C28.9107846,20.4519063 28.931397,20.4846151 28.9594087,20.5095361" id="Fill-50" fill="#5D54DE"></path>
                    <path d="M31.0164169,18.3590673 C30.9619789,18.566223 30.8266769,18.7224984 30.6718195,18.8621598 C30.5698145,18.9535368 30.5201333,19.0449138 30.6020544,19.1710763 C30.4815511,19.3989995 30.1829353,19.4893381 30.1232122,19.7650266 C29.8103263,20.1648009 29.6935226,20.1949138 29.3626669,19.9560876 L29.3621383,19.9560876 C29.3610813,19.9550492 29.3605528,19.95453 29.3594957,19.9540108 C29.3605528,19.9529725 29.3616098,19.9524533 29.3626669,19.9514149 C29.9519706,19.480512 30.467281,18.9400379 30.9307961,18.3512795 C30.9418951,18.3429725 30.9535754,18.338819 30.964093,18.3372614 C30.9736065,18.3357038 30.9831199,18.3372614 30.9921048,18.3419341 C31.0000326,18.3450492 31.008489,18.3507603 31.0164169,18.3590673" id="Fill-52" fill="#5C52DB"></path>
                    <path d="M24.3859258,21.693626 C24.9183076,21.5279533 25.4627924,21.6116982 26.0026263,21.5990819 C25.4699804,21.7336553 24.9293537,21.7387433 24.3859258,21.693626" id="Fill-54" fill="#847FFC"></path>
                    <path d="M31.4233905,17.5537921 C31.4091204,17.5776747 31.389565,17.5974038 31.3652529,17.6119411 C31.3641959,17.6129795 31.3626103,17.6134986 31.3610247,17.614537 C31.3610247,17.614537 31.3604962,17.614537 31.3604962,17.6150562 C31.3139862,17.6389388 31.2680046,17.6628214 31.2214945,17.6872233 C31.2024677,17.6747628 31.1844979,17.6628214 31.1686422,17.6503609 C30.9197076,17.4618959 31.0322831,17.2718734 31.1712848,17.0818508 C31.1871405,17.0600449 31.2035247,17.0377199 31.219909,17.015914 C31.2341791,17.2147628 31.3779375,17.3663655 31.4233905,17.5537921" id="Fill-56" fill="#645BE1"></path>
                    <path d="M27.5329397,8.11913499 C27.0292568,8.07292731 26.5245169,8.05890926 26.0160773,8.05319819 C26.5234598,7.95351422 27.0313709,7.96389797 27.5329397,8.11913499" id="Fill-58" fill="#FEFEFE"></path>
                    <path d="M31.0164169,18.3590673 C31.0047893,18.3580289 30.9936904,18.3569905 30.9820628,18.3559521 C30.9730779,18.3549138 30.964093,18.3543946 30.9551081,18.3533562 C30.9471803,18.352837 30.9387239,18.3517986 30.9307961,18.3512795 C31.0692692,18.1036271 31.2938917,17.9047783 31.3604857,17.6171485 C31.3604857,17.6161102 31.361067,17.615591 31.361067,17.6145526 C31.3620712,17.6135142 31.3636568,17.6119567 31.3647138,17.6109183 C31.3847977,17.5917084 31.4038246,17.5730176 31.4233799,17.5538077 C31.4989588,17.9250266 31.2061568,18.1166068 31.0164169,18.3590673" id="Fill-60" fill="#695FD3"></path>
                    <path d="M29.3626933,19.956072 C29.3040272,20.1933406 28.9604869,20.2312413 28.9594299,20.5095257 C28.9192621,20.5095257 28.8891362,20.4986228 28.8658812,20.4814896 C28.8331128,20.457607 28.8125003,20.4212639 28.7934735,20.3838824 C28.781846,20.3615573 28.770747,20.3392323 28.7580624,20.318984 C28.9160909,20.2239727 29.074648,20.1289614 29.233205,20.0339501 C29.2760154,20.0079907 29.3182973,19.9825506 29.3611077,19.9571104 C29.3616362,19.9565912 29.3616362,19.9565912 29.3621648,19.956072 L29.3626933,19.956072 Z" id="Fill-62" fill="#5C52DB"></path>
                    <path d="M30.1230906,19.7650318 L29.9776938,19.829463 C30.1609329,19.5812914 30.3485587,19.3450612 30.60188,19.1708219 C30.5295252,19.4366458 30.2617752,19.5507632 30.1230906,19.7650318" id="Fill-64" fill="#9591FE"></path>
                    <path d="M34.0873497,13.0491097 C34.0626677,12.8691594 33.980218,12.6914935 34.0769907,12.4404664 C34.095489,12.7777305 34.2026207,13.0391413 34.1646727,13.3177892 L34.1667868,13.3160758 C34.1423162,13.3168027 34.1178456,13.3175296 34.0933221,13.3182564 C34.0913137,13.2285409 34.0893581,13.1388253 34.0873497,13.0491097" id="Fill-66" fill="#8982FD"></path>
                    <path d="M20.9184735,9.45655124 C20.8687923,9.62321038 20.7800003,9.75767991 20.6172151,9.89941806 C20.6579114,9.67616749 20.784757,9.5609079 20.9184735,9.45655124" id="Fill-68" fill="#FEFEFE"></path>
                    <path d="M32.115788,11.1344506 C31.9574952,10.9560578 31.8969793,10.8261052 31.8691789,10.679902 C31.9969231,10.7765228 32.0590774,10.9057485 32.115788,11.1344506" id="Fill-70" fill="#8780FE"></path>
                    <path d="M34.1646939,13.3177788 C34.2969305,13.5532822 34.2093013,13.8553973 34.4213449,14.0667065 C34.0972543,13.8882619 34.1747887,13.5893657 34.166808,13.3161174 C34.166808,13.3160655 34.1646939,13.3177788 34.1646939,13.3177788" id="Fill-72" fill="#8982FD"></path>
                    <path d="M33.4291213,10.5887223 L33.2109468,10.1574334 C33.376269,10.2486546 33.4366263,10.3954289 33.4291213,10.5887223" id="Fill-74" fill="#8B86FE"></path>
                </g>
            </g>
        </g>
    </g>
</svg>