<?xml version="1.0" encoding="UTF-8"?>
<svg width="200px" height="200px" viewBox="0 0 200 200" version="1.1" xmlns="http://www.w3.org/2000/svg" xmlns:xlink="http://www.w3.org/1999/xlink">
    <!-- Generator: Sketch 53.2 (72643) - https://sketchapp.com -->
    <title>Product Strategy</title>
    <desc>Created with Sketch.</desc>
    <g id="Product-Strategy" stroke="none" stroke-width="1" fill="none" fill-rule="evenodd">
        <g transform="translate(27.000000, 26.000000)" fill-rule="nonzero">
            <path d="M43.4326486,91.5903174 C45.1147798,97.178643 51.1159933,107.822779 61.4362893,123.522727 C64.8886397,126.522983 58.6084269,140.028037 56.2670624,146.440896 C56.0841821,146.941794 55.9253324,147.399424 55.7970283,147.805398 L98.5058736,147.805398 C102.203946,147.805398 100.557167,132.758215 106.936042,133.76493 C124.632335,133.76493 130.544464,136.940879 136.003609,129.035746 C139.228352,124.365516 136.43505,114.013828 137.479846,106.621527 C137.780538,104.491996 145.524649,101.256191 145.524649,98.9392734 C145.524649,95.3963711 138.467793,83.7467672 139.010536,80.3789648 C143.93494,49.8222998 117.433258,33.324541 91.3118919,33.324541 C78.2924033,33.324541 70.8445556,37.4230041 65.9428803,41.9982233" id="Path" stroke="#041630" stroke-width="5" stroke-linecap="round" stroke-linejoin="round"></path>
            <g id="Group-2">
                <path d="M20,42.8804297 C20,51.0926602 24.3305743,58.2867461 30.820751,62.2850312 C33.9237209,64.1970977 34.8901265,66.2493281 35.1384598,69.1729219 L50.1066767,69.1729219 C50.35501,66.2490273 51.3217149,64.1970977 54.4252831,62.2850312 C60.8283936,58.3408867 65.130245,51.2824531 65.2421446,43.205875 C65.2439398,43.097293 65.2445382,42.9884102 65.2445382,42.8804297 C65.2445382,30.3198047 55.1161285,20.137457 42.6222691,20.137457 C30.1287088,20.137457 20,30.3201055 20,42.8804297 Z" id="Path" stroke="#C5001A" stroke-width="5" stroke-linecap="round" stroke-linejoin="round"></path>
                <g id="Group" transform="translate(35.059771, 69.027344)" stroke="#041630" stroke-linecap="round" stroke-linejoin="round" stroke-width="5">
                    <rect id="Rectangle" x="0.0774919679" y="0.144375" width="14.9688153" height="10.4145508"></rect>
                    <path d="M0.078688755,17.8910703 C0.078688755,19.5859727 1.45858434,20.9740781 3.14395984,20.9740781 L6.86746386,20.9740781 L11.9807369,20.9740781 C13.66701,20.9740781 15.0469056,19.5859727 15.0469056,17.8910703 L15.0469056,10.5601289 L0.078688755,10.5601289 L0.078688755,17.8910703 Z" id="Path"></path>
                </g>
                <path d="M48.9459237,31.0037812 C52.218239,32.7010898 54.4143434,35.3374375 55.2978715,38.6297891 C56.4811948,43.0386406 55.0121386,47.633375 53.7357651,49.6453008" id="Path" stroke="#C5001A" stroke-width="5" stroke-linecap="round" stroke-linejoin="round"></path>
                <path d="M42.5,12 C41.11925,12 40,10.8919766 40,9.52618125 L40,2.47381875 C40,1.10777604 41.11925,0 42.5,0 C43.88075,0 45,1.10777604 45,2.47381875 L45,9.52618125 C45,10.8919766 43.88075,12 42.5,12 Z" id="Path" fill="#C5001A"></path>
                <path d="M9.52598487,46 L2.47376775,46 C1.10725845,46 0,44.88075 0,43.5 C0,42.11975 1.10725845,41 2.47376775,41 L9.52623225,41 C10.8922468,41 12,42.11975 12,43.5 C11.9997526,44.88075 10.8922468,46 9.52598487,46 Z" id="Path" fill="#C5001A"></path>
                <path d="M25.6661677,16 C24.8590103,16 24.0742739,15.5585806 23.6415011,14.7685556 L20.313378,8.69306871 C19.668306,7.51554 20.0510985,6.00983947 21.1679466,5.33010775 C22.2847946,4.65062223 23.7134353,5.05363593 24.3585073,6.23116464 L27.6866304,12.3066515 C28.3317024,13.4841802 27.9489098,14.9896346 26.8318282,15.6696125 C26.4642166,15.8938919 26.0625063,16 25.6661677,16 Z" id="Path" fill="#C5001A"></path>
                <path d="M13.5354035,28 C13.1178985,28 12.6944856,27.899102 12.3070134,27.6865624 L6.23128311,24.3583311 C5.05385035,23.7132381 4.65037715,22.2850182 5.33029965,21.1679003 C6.00997597,20.0512495 7.51579998,19.6684445 8.69298657,20.3130703 L14.7687169,23.6413016 C15.9461497,24.2863946 16.3496228,25.7150816 15.6697004,26.8317324 C15.2135467,27.5812268 14.3861682,28 13.5354035,28 Z" id="Path" fill="#C5001A"></path>
                <path d="M72.4643504,28 C71.6135857,28 70.7864533,27.581243 70.3302996,26.8317776 C69.6503772,25.71517 70.0538503,24.2865382 71.2312831,23.6414702 L77.3070134,20.3133677 C78.4842,19.6682997 79.9895317,20.0510898 80.6697004,21.1681645 C81.3496228,22.2852392 80.9461497,23.7134039 79.7687169,24.358472 L73.6929866,27.6865745 C73.3052683,27.8993395 72.8818553,28 72.4643504,28 Z" id="Path" fill="#C5001A"></path>
                <path d="M59.3336071,16 C58.937502,16 58.5357917,15.8936479 58.1679466,15.669619 C57.0510985,14.9896547 56.668306,13.4842303 57.313378,12.306725 L60.6415011,6.23135896 C61.2865731,5.05385367 62.7145131,4.65035561 63.8318282,5.33031999 C64.9489098,6.01028437 65.3317024,7.51570877 64.6866304,8.69321406 L61.3585073,14.7685801 C60.9257345,15.5585894 60.1407645,16 59.3336071,16 Z" id="Path" fill="#C5001A"></path>
            </g>
        </g>
    </g>
</svg>