<svg width="1470" height="1879" viewBox="0 0 1470 1879" fill="none" xmlns="http://www.w3.org/2000/svg">
<rect width="1470" height="1879" fill="#C8C8C8"/>
<path d="M580.852 171.214L735.5 81.9282L890.148 171.214V349.786L735.5 439.072L580.852 349.786V171.214Z" stroke="#A6A6A6" stroke-width="12"/>
<path d="M763.852 503.214L918.5 413.928L1073.15 503.214V681.786L918.5 771.072L763.852 681.786V503.214Z" stroke="#A6A6A6" stroke-width="12"/>
<path d="M774.852 1160.21L929.5 1070.93L1084.15 1160.21V1338.79L929.5 1428.07L774.852 1338.79V1160.21Z" stroke="#A6A6A6" stroke-width="12"/>
<path d="M580.852 823.214L735.5 733.928L890.148 823.214V1001.79L735.5 1091.07L580.852 1001.79V823.214Z" stroke="#A6A6A6" stroke-width="12"/>
<path d="M379.852 503.214L534.5 413.928L689.148 503.214V681.786L534.5 771.072L379.852 681.786V503.214Z" stroke="#A6A6A6" stroke-width="12"/>
<path d="M580.852 1475.21L735.5 1385.93L890.148 1475.21V1653.79L735.5 1743.07L580.852 1653.79V1475.21Z" stroke="#A6A6A6" stroke-width="12"/>
<path d="M383.852 1160.21L538.5 1070.93L693.148 1160.21V1338.79L538.5 1428.07L383.852 1338.79V1160.21Z" stroke="#A6A6A6" stroke-width="12"/>
<path d="M209.852 842.214L364.5 752.928L519.148 842.214V1020.79L364.5 1110.07L209.852 1020.79V842.214Z" stroke="#A6A6A6" stroke-width="12"/>
<path d="M951.852 842.214L1106.5 752.928L1261.15 842.214V1020.79L1106.5 1110.07L951.852 1020.79V842.214Z" stroke="#A6A6A6" stroke-width="12"/>
<path d="M426.512 594.958C425.9 594.307 425.154 593.791 424.332 593.428C423.51 593.065 422.63 592.893 421.732 592.893C420.833 592.873 419.953 593.065 419.131 593.409C418.309 593.772 417.564 594.288 416.952 594.938C416.321 595.569 415.824 596.315 415.499 597.137C415.174 597.978 415.001 598.858 415.001 599.738C414.982 600.636 415.154 601.516 415.499 602.338C415.843 603.16 416.34 603.906 416.971 604.537C417.583 605.187 418.324 605.702 419.148 606.047C419.971 606.393 420.858 606.562 421.751 606.544C422.642 606.549 423.524 606.374 424.346 606.029C425.167 605.684 425.91 605.176 426.531 604.537C427.181 603.925 427.678 603.179 428.022 602.357C428.366 601.535 428.538 600.655 428.538 599.757C428.538 598.858 428.366 597.978 428.022 597.156C427.659 596.315 427.162 595.569 426.512 594.958ZM506.528 579.432C506.433 583.715 506.643 588.017 507.14 592.281H506.911C506.375 591.229 505.19 589.279 503.374 586.43L459.78 518H446.549V605.359H456.721V542.206C456.836 538.21 456.664 534.214 456.243 530.218H456.625C457.352 532.13 458.289 533.965 459.398 535.686L504.177 605.359H516.7V518H506.528V579.432ZM585.666 595.761H549.72V565.494H581.172V556.278H549.72V527.254H583.467V518H539.3V605.359H585.608L585.666 595.761ZM593.447 518V527.254H618.494V605.359H628.666V527.254H654V518H593.447ZM493.756 627.079C491.216 628.093 488.921 629.638 487.026 631.61C485.076 633.694 483.546 636.142 482.552 638.838C481.558 641.534 481.118 644.382 481.233 647.231C481.042 652.508 482.877 657.671 486.395 661.609C488.154 663.464 490.296 664.898 492.666 665.854C495.037 666.81 497.58 667.231 500.123 667.116C503.947 667.25 507.752 666.447 511.213 664.764L511.251 660.309C508.077 662.164 504.463 663.082 500.792 662.986C498.823 663.063 496.854 662.718 495.037 661.973C493.221 661.227 491.577 660.08 490.238 658.627C487.439 655.376 486.001 651.171 486.223 646.887C485.994 642.356 487.542 637.92 490.525 634.517C491.94 632.949 493.68 631.725 495.611 630.884C497.549 630.059 499.643 629.662 501.748 629.717C505.094 629.66 508.383 630.482 511.308 632.107V627.308C508.274 626.085 505.018 625.512 501.748 625.626C499.014 625.588 496.28 626.066 493.756 627.079ZM541.422 640.769C540.144 639.425 538.59 638.373 536.868 637.687C535.145 637 533.294 636.695 531.442 636.792C529.472 636.696 527.522 637.021 525.686 637.729C523.851 638.436 522.188 639.507 520.773 640.864C519.396 642.394 518.344 644.172 517.656 646.122C516.968 648.073 516.681 650.118 516.815 652.183C516.624 656.103 517.981 659.946 520.581 662.871C521.882 664.267 523.449 665.376 525.208 666.122C526.967 666.848 528.86 667.212 530.753 667.135C532.684 667.192 534.615 666.829 536.413 666.084C538.21 665.338 539.816 664.21 541.135 662.776C543.817 659.753 545.204 655.798 544.998 651.763C545.227 647.748 543.946 643.828 541.422 640.769ZM537.923 660.405C537.082 661.376 536.029 662.141 534.846 662.642C533.663 663.142 532.38 663.365 531.097 663.292C529.778 663.349 528.478 663.101 527.273 662.604C526.069 662.087 524.998 661.323 524.119 660.328C522.286 658.06 521.366 655.19 521.537 652.279C521.365 649.277 522.283 646.314 524.119 643.943C524.979 642.948 526.05 642.165 527.254 641.629C528.459 641.113 529.778 640.864 531.078 640.922C532.378 640.845 533.659 641.094 534.845 641.61C536.03 642.126 537.082 642.91 537.923 643.904C539.661 646.308 540.506 649.243 540.313 652.202C540.504 655.109 539.663 658.034 537.923 660.405ZM560.083 638.895C558.649 640.176 557.598 641.84 557.081 643.694V637.69H552.301V666.447H557.081V651.782C556.928 649.124 557.617 646.467 559.032 644.21C559.548 643.388 560.236 642.7 561.077 642.222C561.919 641.744 562.856 641.457 563.812 641.438C565.035 641.342 566.259 641.667 567.291 642.356V637.614C566.412 637.327 565.494 637.193 564.576 637.232C562.932 637.213 561.345 637.805 560.083 638.895ZM595.264 650.769C595.493 647.117 594.403 643.522 592.205 640.616C591.115 639.392 589.776 638.417 588.266 637.786C586.755 637.155 585.13 636.868 583.505 636.964C581.708 636.907 579.91 637.27 578.247 637.996C576.603 638.723 575.13 639.813 573.945 641.189C571.349 644.218 570.002 648.122 570.178 652.107C569.93 656.084 571.173 660.023 573.658 663.12C574.863 664.439 576.354 665.472 577.998 666.16C579.643 666.848 581.44 667.135 583.218 667.059C586.755 667.231 590.254 666.275 593.199 664.324V660.003C590.683 662.047 587.549 663.18 584.308 663.216C583.065 663.292 581.803 663.101 580.637 662.642C579.471 662.183 578.4 661.514 577.52 660.615C575.812 658.548 574.945 655.913 575.092 653.235H595.302L595.264 650.769ZM575.054 649.43C575.303 647.155 576.297 645.013 577.865 643.35C578.567 642.595 579.42 641.996 580.369 641.591C581.317 641.186 582.34 640.984 583.371 640.998C584.365 640.941 585.34 641.113 586.258 641.495C587.176 641.878 587.979 642.451 588.629 643.197C589.967 644.975 590.637 647.155 590.541 649.373L575.054 649.43Z" fill="#621EE5"/>
<path d="M758.183 232.027L737.668 251.114L718.632 212.716L728.483 190.632C731.045 186.148 735.042 186.199 737.54 190.632L758.183 232.027Z" fill="#FFA000"/>
<path d="M718.632 212.716L737.668 251.114L661 322.433L718.632 212.716Z" fill="#F57F17"/>
<path d="M780.619 202.852C784.283 199.33 788.075 200.534 789.042 205.523L809 321.486L742.849 361.197C740.544 362.478 734.395 363.028 734.395 363.028C734.395 363.028 728.797 362.362 726.664 361.107L661 322.434L780.619 202.852Z" fill="#FFCA28"/>
<path d="M718.632 212.716L661.006 322.434L686.671 162.085C687.619 157.089 690.463 156.608 692.999 161.015L718.632 212.716Z" fill="#FFA000"/>
<path d="M668.911 1007.78L654 840.376H817L802.428 1007.78L735.331 1026.08L668.911 1007.78Z" fill="url(#paint0_angular_1_16)"/>
<path d="M703.476 806.827V797H731.942V806.827H723.131V827.838H712.626V806.827H703.476Z" fill="white"/>
<path d="M736.686 827.838V797H748.208L754.308 806.827L760.407 797H771.929V827.838H761.424V812.927L754.308 823.432L746.852 812.927V827.838H736.686Z" fill="white"/>
<path d="M698.732 827.838V797H688.565V806.827H678.738V797H668.233V827.838H678.738V816.994H688.565V827.838H698.732Z" fill="white"/>
<path d="M777.012 827.838V797H787.518V818.01H802.089V827.838H777.012Z" fill="white"/>
<path d="M785.145 895.274L786.501 875.62H684.499L690.26 937.295H760.746L758.713 964.067L735.669 970.166L712.626 964.067L710.931 947.123H690.938L693.987 979.655L735.669 991.177L777.69 979.655L783.112 916.624H708.559L706.526 895.274H785.145Z" fill="white"/>
<path d="M362.975 1017.07C362.023 1017.07 361.134 1016.81 360.308 1016.37L351.86 1011.35C350.59 1010.65 351.225 1010.4 351.606 1010.27C353.321 1009.7 353.639 1009.57 355.417 1008.56C355.608 1008.43 355.862 1008.49 356.052 1008.62L362.531 1012.49C362.785 1012.62 363.103 1012.62 363.293 1012.49L388.636 997.822C388.89 997.695 389.018 997.441 389.018 997.124V967.843C389.018 967.524 388.89 967.271 388.636 967.144L363.293 952.535C363.039 952.407 362.721 952.407 362.531 952.535L337.188 967.144C336.934 967.271 336.806 967.588 336.806 967.842V997.123C336.806 997.378 336.934 997.695 337.188 997.822L344.111 1001.82C347.859 1003.73 350.209 1001.51 350.209 999.283V970.383C350.209 970.002 350.526 969.621 350.971 969.621H354.21C354.591 969.621 354.972 969.938 354.972 970.383V999.283C354.972 1004.3 352.241 1007.22 347.477 1007.22C346.017 1007.22 344.873 1007.22 341.634 1005.63L334.965 1001.82C333.313 1000.87 332.297 999.092 332.297 997.187V967.906C332.297 966.001 333.313 964.222 334.965 963.269L360.308 948.597C361.896 947.707 364.056 947.707 365.643 948.597L390.986 963.269C392.638 964.222 393.655 966.001 393.655 967.906V997.187C393.655 999.092 392.638 1000.87 390.986 1001.82L365.643 1016.5C364.817 1016.88 363.865 1017.07 362.976 1017.07H362.975ZM370.788 996.933C359.673 996.933 357.386 991.852 357.386 987.533C357.386 987.151 357.704 986.77 358.148 986.77H361.451C361.832 986.77 362.15 987.024 362.15 987.406C362.658 990.772 364.119 992.423 370.852 992.423C376.187 992.423 378.474 991.217 378.474 988.358C378.474 986.707 377.838 985.5 369.518 984.674C362.594 983.975 358.275 982.451 358.275 976.925C358.275 971.78 362.595 968.731 369.836 968.731C377.965 968.731 381.967 971.526 382.476 977.623C382.476 977.815 382.412 978.005 382.285 978.196C382.157 978.322 381.967 978.449 381.777 978.449H378.474C378.156 978.449 377.838 978.196 377.775 977.878C377.013 974.385 375.044 973.241 369.836 973.241C363.992 973.241 363.293 975.274 363.293 976.798C363.293 978.64 364.119 979.212 371.995 980.228C379.807 981.245 383.492 982.705 383.492 988.167C383.428 993.757 378.855 996.933 370.788 996.933Z" fill="#539E43"/>
<path d="M284.341 902.547C284.341 901.404 283.706 900.323 282.69 899.752L255.759 884.254C255.314 883.999 254.806 883.872 254.298 883.809H254.043C253.536 883.809 253.027 883.999 252.583 884.254L225.651 899.752C224.635 900.323 224 901.403 224 902.547L224.064 944.214C224.064 944.785 224.381 945.357 224.889 945.611C225.398 945.929 226.032 945.929 226.477 945.611L242.484 936.465C243.5 935.893 244.135 934.813 244.135 933.67V914.17C244.135 913.027 244.77 911.947 245.787 911.376L252.583 907.438C253.091 907.12 253.663 906.992 254.234 906.992C254.806 906.992 255.377 907.12 255.822 907.438L262.618 911.376C263.635 911.947 264.27 913.027 264.27 914.17V933.67C264.27 934.813 264.905 935.893 265.921 936.465L281.928 945.611C282.175 945.767 282.461 945.85 282.753 945.85C283.046 945.85 283.332 945.767 283.579 945.611C284.087 945.357 284.405 944.785 284.405 944.214L284.341 902.547ZM413.789 845.191C413.281 844.936 412.646 844.936 412.201 845.191C411.693 845.508 411.375 846.016 411.375 846.588V887.874C411.375 888.255 411.185 888.636 410.804 888.891C410.423 889.081 410.042 889.081 409.661 888.891L402.928 885.016C402.434 884.735 401.876 884.587 401.308 884.587C400.74 884.587 400.182 884.735 399.688 885.016L372.757 900.578C371.741 901.149 371.106 902.229 371.106 903.372V934.432C371.106 935.575 371.741 936.656 372.757 937.227L399.688 952.789C400.182 953.07 400.74 953.218 401.308 953.218C401.876 953.218 402.434 953.07 402.928 952.789L429.859 937.227C430.875 936.656 431.511 935.576 431.511 934.432V857.005C431.511 855.798 430.875 854.719 429.859 854.147L413.789 845.191ZM411.312 924.206C411.312 924.524 411.185 924.778 410.931 924.905L401.721 930.24C401.593 930.303 401.451 930.335 401.308 930.335C401.165 930.335 401.024 930.303 400.895 930.24L391.685 924.905C391.431 924.778 391.304 924.46 391.304 924.206V913.535C391.304 913.217 391.431 912.964 391.685 912.837L400.895 907.501C401.024 907.438 401.165 907.405 401.308 907.405C401.451 907.405 401.593 907.438 401.721 907.501L410.931 912.837C411.185 912.963 411.312 913.281 411.312 913.535V924.206ZM503.412 913.281C504.428 912.71 505 911.63 505 910.486V902.928C505 901.785 504.365 900.705 503.412 900.133L476.671 884.635C476.178 884.354 475.619 884.206 475.051 884.206C474.483 884.206 473.925 884.354 473.432 884.635L446.5 900.196C445.484 900.768 444.849 901.848 444.849 902.991V934.051C444.849 935.194 445.484 936.274 446.5 936.846L473.241 952.09C474.258 952.661 475.464 952.661 476.417 952.09L492.614 943.071C493.122 942.817 493.44 942.245 493.44 941.674C493.44 941.102 493.122 940.531 492.614 940.276L465.556 924.714C465.047 924.397 464.73 923.889 464.73 923.317V913.599C464.73 913.028 465.047 912.456 465.556 912.202L474.003 907.374C474.25 907.219 474.537 907.136 474.829 907.136C475.121 907.136 475.407 907.219 475.655 907.374L484.103 912.202C484.611 912.519 484.928 913.027 484.928 913.599V921.221C484.928 921.793 485.246 922.364 485.754 922.618C486.001 922.774 486.288 922.857 486.58 922.857C486.872 922.857 487.158 922.774 487.405 922.618L503.412 913.281Z" fill="#333333"/>
<path d="M474.638 911.82C474.733 911.758 474.843 911.725 474.956 911.725C475.069 911.725 475.179 911.758 475.274 911.82L480.419 914.805C480.609 914.933 480.736 915.123 480.736 915.377V921.348C480.736 921.602 480.609 921.792 480.419 921.919L475.274 924.905C475.179 924.967 475.069 925 474.956 925C474.843 925 474.733 924.967 474.638 924.905L469.494 921.919C469.303 921.792 469.176 921.602 469.176 921.348V915.377C469.176 915.123 469.303 914.932 469.494 914.806L474.638 911.82Z" fill="#539E43"/>
<path d="M328.402 880.722L359.814 898.858V935.13L328.402 953.266L296.989 935.13V898.858L328.402 880.722Z" fill="#539E43"/>
<path d="M1106 821V1042.64L1193.82 992.906L1211 857.293L1106 821Z" fill="#B52E31"/>
<path d="M1106 821L1106 1042.64L1018.18 992.906L1001 857.293L1106 821Z" fill="#E33237"/>
<path d="M1106.91 880.778L1070.55 980.875H1055.69L1097.55 871.047H1107.13L1106.91 880.778ZM1137.38 980.875L1100.95 880.778L1100.72 871.047H1110.3L1152.31 980.875H1137.38ZM1135.49 940.218V952.136H1073.79V940.218H1135.49Z" fill="white"/>
<path d="M482.825 1228.35C482.825 1231.49 483.165 1234.03 483.758 1235.9C484.511 1238 485.418 1240.04 486.47 1242C486.894 1242.68 487.063 1243.36 487.063 1243.95C487.063 1244.8 486.555 1245.65 485.453 1246.49L480.113 1250.05C479.35 1250.56 478.587 1250.82 477.908 1250.82C477.061 1250.82 476.213 1250.39 475.365 1249.63C474.223 1248.4 473.202 1247.07 472.314 1245.65C471.466 1244.21 470.618 1242.59 469.686 1240.65C463.074 1248.44 454.766 1252.34 444.764 1252.34C437.644 1252.34 431.964 1250.31 427.81 1246.24C423.657 1242.17 421.538 1236.75 421.538 1229.96C421.538 1222.76 424.081 1216.91 429.252 1212.5C434.422 1208.09 441.289 1205.89 450.02 1205.89C452.902 1205.89 455.869 1206.14 459.005 1206.57C462.142 1206.99 465.363 1207.67 468.754 1208.43V1202.25C468.754 1195.8 467.397 1191.31 464.769 1188.68C462.057 1186.05 457.479 1184.78 450.952 1184.78C447.985 1184.78 444.934 1185.12 441.797 1185.89C438.661 1186.65 435.609 1187.58 432.642 1188.77C431.286 1189.36 430.269 1189.7 429.675 1189.87C429.082 1190.04 428.658 1190.12 428.319 1190.12C427.132 1190.12 426.539 1189.27 426.539 1187.49V1183.34C426.539 1181.98 426.709 1180.97 427.132 1180.38C427.556 1179.78 428.319 1179.19 429.506 1178.59C432.473 1177.07 436.033 1175.8 440.186 1174.78C444.341 1173.68 448.749 1173.17 453.411 1173.17C463.499 1173.17 470.874 1175.46 475.621 1180.04C480.283 1184.61 482.657 1191.56 482.657 1200.89V1228.35H482.827H482.825ZM448.409 1241.24C451.207 1241.24 454.089 1240.73 457.14 1239.71C460.192 1238.69 462.905 1236.83 465.193 1234.29C466.55 1232.68 467.567 1230.9 468.075 1228.86C468.584 1226.83 468.923 1224.37 468.923 1221.49V1217.93C466.353 1217.3 463.749 1216.82 461.124 1216.49C458.482 1216.15 455.82 1215.98 453.156 1215.98C447.476 1215.98 443.323 1217.08 440.526 1219.37C437.728 1221.66 436.372 1224.88 436.372 1229.12C436.372 1233.1 437.389 1236.07 439.508 1238.1C441.543 1240.22 444.51 1241.24 448.409 1241.24ZM516.478 1250.39C514.952 1250.39 513.935 1250.14 513.257 1249.54C512.579 1249.04 511.985 1247.85 511.477 1246.24L491.557 1180.71C491.047 1179.02 490.793 1177.92 490.793 1177.32C490.793 1175.97 491.471 1175.2 492.828 1175.2H501.135C502.745 1175.2 503.848 1175.46 504.441 1176.05C505.119 1176.56 505.628 1177.75 506.136 1179.36L520.377 1235.47L533.601 1179.36C534.025 1177.66 534.534 1176.56 535.211 1176.05C535.89 1175.54 537.077 1175.2 538.603 1175.2H545.384C546.994 1175.2 548.097 1175.46 548.774 1176.05C549.453 1176.56 550.046 1177.75 550.385 1179.36L563.779 1236.15L578.443 1179.36C578.951 1177.66 579.545 1176.56 580.138 1176.05C580.816 1175.54 581.918 1175.2 583.444 1175.2H591.327C592.684 1175.2 593.447 1175.88 593.447 1177.32C593.447 1177.75 593.362 1178.17 593.277 1178.68C593.192 1179.19 593.023 1179.87 592.684 1180.8L572.254 1246.32C571.746 1248.02 571.153 1249.12 570.474 1249.63C569.796 1250.14 568.694 1250.48 567.254 1250.48H559.964C558.353 1250.48 557.251 1250.22 556.572 1249.63C555.894 1249.04 555.301 1247.93 554.962 1246.24L541.822 1191.56L528.768 1246.15C528.345 1247.85 527.836 1248.95 527.158 1249.54C526.48 1250.14 525.293 1250.39 523.768 1250.39H516.477H516.478ZM625.405 1252.68C620.997 1252.68 616.589 1252.17 612.351 1251.16C608.112 1250.14 604.807 1249.04 602.603 1247.77C601.246 1247 600.313 1246.15 599.975 1245.39C599.645 1244.64 599.472 1243.84 599.466 1243.02V1238.69C599.466 1236.92 600.144 1236.07 601.416 1236.07C601.935 1236.07 602.451 1236.16 602.942 1236.32C603.45 1236.49 604.213 1236.83 605.061 1237.17C608.055 1238.49 611.181 1239.48 614.385 1240.14C617.706 1240.81 621.085 1241.15 624.473 1241.15C629.813 1241.15 633.967 1240.22 636.849 1238.36C639.731 1236.49 641.257 1233.78 641.257 1230.3C641.257 1227.93 640.494 1225.98 638.968 1224.37C637.442 1222.76 634.56 1221.32 630.407 1219.96L618.115 1216.15C611.927 1214.2 607.35 1211.31 604.552 1207.5C601.755 1203.77 600.314 1199.62 600.314 1195.21C600.314 1191.65 601.077 1188.51 602.603 1185.8C604.128 1183.09 606.163 1180.71 608.706 1178.85C611.249 1176.9 614.131 1175.46 617.522 1174.44C620.912 1173.42 624.472 1173 628.202 1173C630.067 1173 632.017 1173.08 633.882 1173.34C635.832 1173.59 637.612 1173.93 639.392 1174.27C641.087 1174.69 642.698 1175.12 644.224 1175.63C645.75 1176.14 646.936 1176.64 647.784 1177.15C648.971 1177.83 649.818 1178.51 650.327 1179.27C650.836 1179.95 651.09 1180.88 651.09 1182.07V1186.05C651.09 1187.83 650.412 1188.77 649.14 1188.77C648.462 1188.77 647.36 1188.43 645.92 1187.75C641.087 1185.55 635.662 1184.44 629.644 1184.44C624.812 1184.44 620.997 1185.21 618.369 1186.82C615.742 1188.43 614.385 1190.89 614.385 1194.36C614.385 1196.74 615.233 1198.77 616.928 1200.38C618.624 1201.99 621.76 1203.6 626.253 1205.04L638.29 1208.86C644.393 1210.81 648.801 1213.52 651.429 1216.99C654.057 1220.47 655.329 1224.45 655.329 1228.86C655.329 1232.51 654.565 1235.81 653.124 1238.69C651.599 1241.58 649.564 1244.12 646.936 1246.15C644.308 1248.27 641.172 1249.8 637.527 1250.9C633.712 1252.09 629.728 1252.68 625.405 1252.68Z" fill="#252F3E"/>
<path d="M641.426 1293.88C613.538 1314.48 573.018 1325.41 538.179 1325.41C489.352 1325.41 445.358 1307.36 412.129 1277.35C409.501 1274.98 411.874 1271.76 415.01 1273.62C450.952 1294.47 495.286 1307.1 541.146 1307.1C572.086 1307.1 606.078 1300.66 637.358 1287.44C642.02 1285.32 646.004 1290.49 641.426 1293.88ZM653.04 1280.66C649.48 1276.08 629.474 1278.45 620.404 1279.55C617.691 1279.89 617.267 1277.52 619.726 1275.74C635.662 1264.55 661.856 1267.77 664.907 1271.5C667.959 1275.32 664.059 1301.51 649.14 1314.05C646.852 1316 644.648 1314.99 645.665 1312.44C649.055 1304.05 656.6 1285.15 653.04 1280.66Z" fill="#FF9900"/>
<path d="M737 1640.6C807.692 1640.6 865 1610.47 865 1573.3C865 1536.13 807.692 1506 737 1506C666.308 1506 609 1536.13 609 1573.3C609 1610.47 666.308 1640.6 737 1640.6Z" fill="url(#paint1_radial_1_16)"/>
<path d="M737 1635.6C804.931 1635.6 860 1607.71 860 1573.3C860 1538.89 804.931 1511 737 1511C669.069 1511 614 1538.89 614 1573.3C614 1607.71 669.069 1635.6 737 1635.6Z" fill="#6181B6"/>
<path d="M761.9 1593.5L768 1562.1C769.4 1555 768.2 1549.7 764.6 1546.4C761.1 1543.2 755.1 1541.6 746.3 1541.6H735.7L738.7 1526C738.8 1525.4 738.7 1524.8 738.3 1524.3C737.9 1523.8 737.4 1523.6 736.8 1523.6H722.2C721.2 1523.6 720.4 1524.3 720.2 1525.2L713.7 1558.5C713.1 1554.7 711.7 1551.5 709.3 1548.9C705 1544 698.3 1541.5 689.2 1541.5H661.1C660.1 1541.5 659.3 1542.2 659.1 1543.1L646 1610.7C645.9 1611.3 646 1611.9 646.4 1612.4C646.8 1612.9 647.3 1613.1 647.9 1613.1H662.6C663.6 1613.1 664.4 1612.4 664.6 1611.5L667.8 1595.2H678.7C684.4 1595.2 689.3 1594.6 693 1593.4C696.9 1592.1 700.4 1590 703.5 1587.1C706 1584.8 708.1 1582.2 709.7 1579.4L707.1 1592.9C707 1593.5 707.1 1594.1 707.5 1594.6C707.9 1595.1 708.4 1595.3 709 1595.3H723.6C724.6 1595.3 725.4 1594.6 725.6 1593.7L732.8 1556.7H742.8C747.1 1556.7 748.3 1557.5 748.7 1557.9C749 1558.2 749.6 1559.4 748.9 1563.1L743.1 1593C743 1593.6 743.1 1594.2 743.5 1594.7C743.9 1595.2 744.4 1595.4 745 1595.4H760C760.9 1595.1 761.7 1594.4 761.9 1593.5ZM694.3 1567.5C693.4 1572.2 691.7 1575.6 689.2 1577.5C686.7 1579.4 682.6 1580.4 677.2 1580.4H670.7L675.4 1556.2H683.8C690 1556.2 692.5 1557.5 693.5 1558.6C694.8 1560.2 695.1 1563.3 694.3 1567.5ZM824.3 1548.9C820 1544 813.3 1541.5 804.2 1541.5H775.9C774.9 1541.5 774.1 1542.2 773.9 1543.1L760.8 1610.6C760.7 1611.2 760.8 1611.8 761.2 1612.3C761.6 1612.8 762.1 1613 762.7 1613H777.4C778.4 1613 779.2 1612.3 779.4 1611.4L782.6 1595.1H793.5C799.2 1595.1 804.1 1594.5 807.8 1593.3C811.7 1592 815.2 1589.9 818.3 1587C820.9 1584.6 823.1 1581.9 824.7 1579C826.3 1576.1 827.5 1572.9 828.2 1569.4C829.9 1560.7 828.6 1553.9 824.3 1548.9ZM809 1567.5C808.1 1572.2 806.4 1575.6 803.9 1577.5C801.4 1579.4 797.3 1580.4 791.9 1580.4H785.4L790.1 1556.2H798.5C804.7 1556.2 807.2 1557.5 808.2 1558.6C809.6 1560.2 809.9 1563.3 809 1567.5Z" fill="white"/>
<path d="M683.8 1554.2C689.4 1554.2 693.1 1555.2 695 1557.3C696.9 1559.4 697.3 1562.9 696.3 1567.9C695.3 1573.1 693.3 1576.9 690.4 1579.1C687.5 1581.3 683.1 1582.4 677.2 1582.4H668.3L673.8 1554.2H683.8ZM648 1611H662.7L666.2 1593.1H678.8C684.4 1593.1 688.9 1592.5 692.5 1591.3C696.1 1590.1 699.3 1588.2 702.3 1585.4C704.8 1583.1 706.8 1580.6 708.3 1577.9C709.8 1575.2 710.9 1572.2 711.5 1568.9C713.1 1560.9 711.9 1554.7 708 1550.2C704.1 1545.7 697.9 1543.5 689.4 1543.5H661.1L648 1611ZM722.3 1525.6H736.9L733.4 1543.5H746.4C754.6 1543.5 760.2 1544.9 763.3 1547.8C766.4 1550.7 767.3 1555.3 766.1 1561.7L760 1593.1H745.2L751 1563.2C751.7 1559.8 751.4 1557.5 750.3 1556.3C749.2 1555.1 746.7 1554.4 743 1554.4H731.3L723.8 1593.1H709.2L722.3 1525.6ZM798.5 1554.2C804.1 1554.2 807.8 1555.2 809.7 1557.3C811.6 1559.4 812 1562.9 811 1567.9C810 1573.1 808 1576.9 805.1 1579.1C802.2 1581.3 797.8 1582.4 791.9 1582.4H783L788.5 1554.2H798.5ZM762.7 1611H777.4L780.9 1593.1H793.5C799.1 1593.1 803.6 1592.5 807.2 1591.3C810.8 1590.1 814 1588.2 817 1585.4C819.5 1583.1 821.5 1580.6 823 1577.9C824.5 1575.2 825.6 1572.2 826.2 1568.9C827.8 1560.9 826.6 1554.7 822.7 1550.2C818.8 1545.7 812.6 1543.5 804.1 1543.5H775.8L762.7 1611Z" fill="#000004"/>
<path d="M918.5 608C927.06 608 934 600.837 934 592C934 583.163 927.06 576 918.5 576C909.94 576 903 583.163 903 592C903 600.837 909.94 608 918.5 608Z" fill="#00D8FF"/>
<path d="M918.5 628.947C899.29 629.411 880.129 626.823 861.731 621.279C853.233 618.587 845.306 614.345 838.353 608.768C835.699 606.863 833.49 604.407 831.875 601.568C830.261 598.729 829.28 595.574 829 592.321C829 581.759 840.609 571.407 860.056 564.634C878.946 558.632 898.682 555.724 918.5 556.021C938.054 555.748 957.525 558.604 976.176 564.481C984.361 567.089 992.019 571.126 998.794 576.404C1001.4 578.22 1003.58 580.587 1005.17 583.338C1006.76 586.089 1007.73 589.155 1008 592.321C1008 603.298 995.023 614.423 974.118 621.337C956.077 626.7 937.319 629.267 918.5 628.947ZM918.5 563.663C899.54 563.409 880.66 566.175 862.569 571.854C844.669 578.097 836.646 586.634 836.646 592.302C836.646 598.231 845.27 607.554 864.205 614.027C881.805 619.304 900.131 621.76 918.5 621.305C936.505 621.627 954.453 619.192 971.721 614.084C991.379 607.573 1000.33 598.238 1000.33 592.321C1000.01 590.29 999.266 588.349 998.154 586.619C997.043 584.889 995.585 583.408 993.872 582.27C987.81 577.587 980.969 574.009 973.664 571.701C955.822 566.102 937.199 563.388 918.5 563.663Z" fill="#00D8FF"/>
<path d="M882.503 671.996C879.54 672.064 876.612 671.337 874.018 669.888C864.923 664.581 861.773 649.276 865.59 628.941C869.799 609.479 877.091 590.835 887.184 573.729C896.652 556.568 908.773 541.051 923.087 527.764C929.395 521.947 936.671 517.307 944.579 514.059C947.439 512.703 950.56 512 953.718 512C956.877 512 959.997 512.703 962.858 514.059C972.315 519.572 975.446 536.457 971.032 558.129C966.693 576.534 959.59 594.158 949.971 610.385C940.837 627.343 929.097 642.726 915.192 655.958C908.656 662.003 901.07 666.772 892.817 670.023C889.514 671.263 886.026 671.93 882.503 671.996ZM893.764 577.546C884.136 593.926 877.147 611.751 873.059 630.354C869.547 649.083 872.919 660.347 877.822 663.212C882.903 666.187 895.237 663.367 910.213 650.131C923.487 637.454 934.692 622.729 943.411 606.504C952.626 590.991 959.439 574.141 963.613 556.542C967.767 536.142 964.179 523.652 959.085 520.683C957.176 519.943 955.136 519.612 953.094 519.711C951.052 519.809 949.052 520.335 947.221 521.255C940.182 524.194 933.711 528.365 928.104 533.579C914.428 546.305 902.85 561.161 893.808 577.584L893.764 577.546Z" fill="#00D8FF"/>
<path d="M954.199 671.996C945.53 671.996 934.519 666.755 923.053 656.908C908.381 643.572 895.964 627.954 886.284 610.659C876.243 593.88 868.956 575.604 864.697 556.525C862.85 548.131 862.507 539.476 863.686 530.963C863.958 527.804 864.921 524.744 866.506 521.998C868.092 519.252 870.261 516.887 872.861 515.069C882.375 509.567 898.517 515.223 914.992 529.831C928.687 542.754 940.318 557.699 949.477 574.144C959.511 590.531 966.876 608.407 971.295 627.102C973.221 635.804 973.518 644.787 972.171 653.597C971.851 656.846 970.83 659.988 969.181 662.806C967.531 665.624 965.29 668.053 962.612 669.925C960.041 671.348 957.138 672.063 954.199 671.996ZM892.906 606.812C902.192 623.341 914.053 638.288 928.044 651.092C942.433 663.458 953.847 666.116 958.754 663.234C963.873 660.263 967.648 648.133 963.758 628.508C959.496 610.659 952.432 593.596 942.83 577.952C934.089 562.213 922.988 547.903 909.912 535.519C894.403 521.767 881.824 518.693 876.699 521.658C875.102 522.954 873.791 524.568 872.85 526.396C871.908 528.224 871.356 530.227 871.229 532.279C870.212 539.872 870.543 547.584 872.208 555.061C876.305 573.307 883.294 590.782 892.912 606.825L892.906 606.812Z" fill="#00D8FF"/>
<path d="M929.618 1130L824 1236.04L856.69 1268.86L995 1130H929.618ZM928.882 1227.79L872.331 1284.56L905.145 1318L937.775 1285.24L995 1227.79H928.882Z" fill="#47C5FB"/>
<path d="M904 1317.36L929.157 1342H995L937.045 1285L904 1317.36Z" fill="#00569E"/>
<path d="M904 1318L932.199 1308.94L935 1288L904 1318Z" fill="url(#paint2_linear_1_16)" fill-opacity="0.8"/>
<defs>
<radialGradient id="paint0_angular_1_16" cx="0" cy="0" r="1" gradientUnits="userSpaceOnUse" gradientTransform="translate(735.5 933.229) rotate(90) scale(92.8524 81.5)">
<stop stop-color="#F55D35"/>
<stop offset="1" stop-color="#FF643D"/>
</radialGradient>
<radialGradient id="paint1_radial_1_16" cx="0" cy="0" r="1" gradientUnits="userSpaceOnUse" gradientTransform="translate(685.852 1529.67) scale(168.095 168.095)">
<stop stop-color="white"/>
<stop offset="0.5" stop-color="#4C6B97"/>
<stop offset="1" stop-color="#231F20"/>
</radialGradient>
<linearGradient id="paint2_linear_1_16" x1="905.225" y1="1296.1" x2="927.356" y2="1304.34" gradientUnits="userSpaceOnUse">
<stop/>
<stop offset="1" stop-opacity="0"/>
</linearGradient>
</defs>
</svg>
