<?xml version="1.0" encoding="UTF-8"?>
<svg width="94px" height="57px" viewBox="0 0 94 57" version="1.1" xmlns="http://www.w3.org/2000/svg" xmlns:xlink="http://www.w3.org/1999/xlink">
    <!-- Generator: Sketch 53.2 (72643) - https://sketchapp.com -->
    <title>The Dutches</title>
    <desc>Created with Sketch.</desc>
    <g id="Page-1" stroke="none" stroke-width="1" fill="none" fill-rule="evenodd">
        <g id="ITC-Copy-2" transform="translate(-47.000000, -32.000000)" fill="#337CC1" fill-rule="nonzero" stroke="#337CC1" stroke-width="0.5">
            <g id="ITC">
                <g id="The-Dutches" transform="translate(48.000000, 33.000000)">
                    <g id="The-Dutchess">
                        <path d="M54.8297731,43.4297074 C55.2403631,42.9608779 55.5048109,42.5060433 55.8040545,42.072201 C55.8666868,41.9882316 55.9154009,41.8972646 55.9919516,41.8202926 C56.3051135,41.519402 56.6391528,41.2325064 56.9244781,40.903626 C57.0010287,40.812659 57.1123752,40.7566794 57.2028442,40.6727099 C57.3002723,40.581743 57.4116188,40.4977735 57.4881694,40.3858142 C57.6412708,40.1688931 57.8500454,40.0709288 58.0936157,40.028944 C58.4067776,39.9659669 58.7060212,39.9309796 59.0052648,40.1199109 C59.3114675,40.3158397 59.5202421,40.5747455 59.652466,40.903626 C59.7429349,41.134542 59.7638124,41.3724555 59.7638124,41.6173664 C59.7707716,42.1911578 59.70118,42.7649491 59.5967927,43.331743 C59.4784871,44.0174936 59.3184266,44.6892494 59.151407,45.3680025 C58.9426324,46.235687 58.7756127,47.110369 58.5946747,47.9780534 C58.5807564,48.0340331 58.5737973,48.0970102 58.5737973,48.1599873 C58.5807564,48.3139313 58.46941,48.4888677 58.6433888,48.6148219 C58.8104085,48.5798346 58.8591225,48.4118957 58.9426324,48.2999364 C59.2279576,47.9290712 59.5063238,47.5512087 59.791649,47.187341 C60.0769743,46.8304707 60.2370348,46.403626 60.4388502,45.9977735 C60.5571558,45.7458651 60.7102572,45.528944 60.8981543,45.3260178 C61.246112,44.9481552 61.5244781,44.5213104 61.8515582,44.1224555 C61.9002723,44.0664758 61.9420272,43.9965013 61.9698638,43.9335242 C62.1438427,43.5066794 62.4291679,43.1638041 62.7353707,42.8279262 C62.9163086,42.625 63.0485325,42.3870865 63.2225113,42.1771628 C63.4591225,41.8832697 63.6748563,41.5823791 63.8975492,41.2744911 C64.2246293,40.8196565 64.6213011,40.427799 65.1084418,40.1409033 C65.2824206,40.0359415 65.4076853,39.8889949 65.574705,39.7840331 C65.9017852,39.5741094 66.2288654,39.3641858 66.5698638,39.168257 C66.8760666,38.9933206 67.2309834,38.9583333 67.5719818,38.9303435 C67.8573071,38.9093511 68.1426324,38.9093511 68.4209985,38.860369 C68.8176702,38.7903944 69.1656278,38.8953562 69.4231165,39.2312341 C69.4439939,39.2522265 69.4648714,39.2732188 69.4857489,39.2942112 C70.0216036,39.7490458 69.9172163,40.2458651 69.673646,40.812659 C69.6458094,40.8756361 69.583177,40.9316158 69.5275038,40.980598 C69.4439939,41.0505725 69.3674433,41.1205471 69.3256884,41.2185115 C69.2282602,41.4844148 69.0055673,41.6173664 68.7759153,41.7293257 C68.4140393,41.9112595 68.0312859,42.0582061 67.6972466,42.2891221 C67.6763691,42.303117 67.6415734,42.3241094 67.6137368,42.3311069 C67.1544327,42.394084 66.7995159,42.7159669 66.3610893,42.8279262 C66.2636611,42.855916 66.1731921,42.9188931 66.0688048,42.9538804 C65.9504992,43.0028626 65.8669894,43.0938295 65.8252345,43.2057888 C65.7208472,43.485687 65.6095008,43.7725827 65.6025416,44.0804707 C65.5955825,44.4443384 65.5677458,44.8012087 65.5259909,45.1650763 C65.4494402,45.8228372 65.7765204,46.2426845 66.4306808,46.3406489 C67.0152496,46.4246183 67.5650227,46.312659 68.0730408,46.004771 C68.1774281,45.9417939 68.2678971,45.8578244 68.3792436,45.8088422 C69.1586687,45.4659669 69.7501967,44.899173 70.313888,44.2833969 C70.6200908,43.9475191 70.8984569,43.5906489 71.2185779,43.2757634 C71.357761,43.1428117 71.4551891,42.9678753 71.5595764,42.7999364 C71.6430862,42.6669847 71.6361271,42.5200382 71.6152496,42.3660941 C71.5804539,42.0512087 71.5039032,41.7433206 71.5178215,41.4214377 C71.5317398,41.1275445 71.5526172,40.8476463 71.768351,40.6237277 C71.8170651,40.5747455 71.8309834,40.4907761 71.85882,40.4208015 C71.9144932,40.2948473 71.949289,40.1618957 72.0258396,40.0499364 C72.2276551,39.7490458 72.3668381,39.4131679 72.5199395,39.091285 C72.5547352,39.0073155 72.6104085,38.937341 72.6591225,38.860369 C72.7078366,38.7833969 72.7913464,38.7274173 72.8191831,38.6434478 C72.9444478,38.3215649 73.1740998,38.0906489 73.4594251,37.9017176 C73.5707716,37.8247455 73.6542814,37.7057888 73.7586687,37.6288168 C73.9674433,37.4818702 74.1762179,37.3349237 74.4197882,37.2439567 C74.955643,37.0410305 75.4914977,36.8381043 76.0273525,36.6421756 C76.3753101,36.5162214 76.7441452,36.5652036 77.099062,36.6071883 C77.3495915,36.6351781 77.600121,36.7051527 77.8506505,36.7401399 C78.3795461,36.817112 78.7970953,37.0830153 79.1311346,37.4958651 C79.2076853,37.5868321 79.2703177,37.6917939 79.3538275,37.7827608 C79.4790923,37.9227099 79.5347655,38.0836514 79.5626021,38.2725827 C79.6321936,38.7204198 79.6878669,39.168257 79.6600303,39.6230916 C79.6530711,39.7700382 79.6391528,39.9239822 79.5904387,40.0709288 C79.5208472,40.3018448 79.3399092,40.4068066 79.1102572,40.3928117 C78.6857489,40.3578244 78.2194856,39.875 78.3865053,39.4481552 C78.4352194,39.322201 78.4143419,39.2032443 78.3656278,39.0982824 C78.1707716,38.7064249 77.961997,38.3425573 77.5026929,38.1816158 C77.008593,38.0136768 76.5840847,38.0556616 76.1317398,38.3355598 C75.5402118,38.6994275 75.1992133,39.2382316 74.9973979,39.8610051 C74.6772769,40.8826336 74.6563994,41.9112595 75.0600303,42.9258906 C75.1504992,43.1638041 75.1922542,43.4227099 75.2618457,43.6676209 C75.3383964,43.9125318 75.4219062,44.1574427 75.5193343,44.3883588 C75.6933132,44.822201 75.8812103,45.2490458 76.0691074,45.682888 C76.1108623,45.7808524 76.1734947,45.8648219 76.2918003,45.9347964 C76.688472,45.6688931 77.1477761,45.4869593 77.5166112,45.1370865 C77.7740998,44.8921756 78.0803026,44.6962468 78.3377912,44.437341 C78.4560968,44.3183842 78.5674433,44.2064249 78.6648714,44.0664758 C78.8110136,43.8425573 78.964115,43.6116412 79.1798487,43.4367048 C79.2633585,43.3667303 79.3120726,43.2757634 79.3607867,43.1847964 C79.5278064,42.8769084 79.7017852,42.5830153 79.8688048,42.2751272 C79.9801513,42.0791985 80.0914977,41.8832697 80.2445991,41.7153308 C80.3350681,41.6173664 80.4116188,41.4984097 80.4324962,41.3584606 C80.4533737,41.2185115 80.5438427,41.1135496 80.5995159,40.9875954 C80.8500454,40.4557888 81.2467171,40.0149491 81.4972466,39.476145 C81.650348,39.1542621 81.7408169,38.8253817 81.7756127,38.4825064 C81.7964902,38.2515903 81.8660817,38.0416667 81.970469,37.8387405 C82.200121,37.3979008 82.4436914,36.9640585 82.6663843,36.5232188 C82.8751589,36.096374 83.2161573,35.7744911 83.4875643,35.3966285 C83.5293192,35.3406489 83.5989107,35.2986641 83.6615431,35.2566794 C84.065174,34.9697837 84.5036006,34.7248728 84.9837821,34.5919211 C85.5196369,34.4449746 86.0624508,34.2910305 86.6122239,34.2630407 C87.0019365,34.2420483 87.391649,34.298028 87.6978517,34.605916 C87.8231165,34.7318702 87.9622995,34.8578244 88.1154009,34.9487913 C88.4772769,35.1517176 88.6721331,35.4875954 88.8391528,35.8444656 C89.0896823,36.3762723 89.1314372,36.9500636 89.1105598,37.5308524 C89.1036006,37.6917939 89.0688048,37.8597328 89.0200908,38.0206743 C88.9644175,38.2026081 88.8391528,38.3355598 88.665174,38.4055344 C88.4981543,38.4755089 88.3241755,38.5174936 88.1501967,38.5594784 C88.0388502,38.5874682 87.9414221,38.4965013 87.9483812,38.3775445 C87.9483812,38.3495547 87.9483812,38.3145674 87.9553404,38.2865776 C88.0458094,38.0346692 88.0110136,37.7967557 87.9205446,37.5378499 C87.8370348,37.2999364 87.8231165,37.0340331 87.8231165,36.7821247 C87.8231165,36.6351781 87.7952799,36.5232188 87.71177,36.4042621 C87.5517095,36.1593511 87.3846899,35.9284351 87.071528,35.8724555 C86.6887746,35.8094784 86.3199395,35.8304707 85.9928593,36.0683842 C85.7214523,36.264313 85.4848411,36.4882316 85.3526172,36.8101145 C85.2760666,36.9920483 85.1786384,37.1599873 85.0951286,37.3349237 C84.8793949,37.7897583 84.8515582,38.3005725 84.7193343,38.7763995 C84.6984569,38.846374 84.7123752,38.937341 84.6845386,39.0003181 C84.4409682,39.4901399 84.5175189,40.0079517 84.5592738,40.5117684 C84.7193343,42.5060433 85.1508018,44.4513359 85.5474735,46.403626 C85.568351,46.5085878 85.5961876,46.6065522 85.6309834,46.711514 C85.6657791,46.8234733 85.7423298,46.8584606 85.8397579,46.7954835 C86.4939183,46.3966285 87.1272012,45.9627863 87.663056,45.4029898 C88.0666868,44.9831425 88.4911952,44.5702926 88.9157035,44.1714377 C89.1244781,43.9685115 89.2775794,43.730598 89.4654766,43.5136768 C89.5629047,43.4017176 89.6533737,43.2757634 89.7508018,43.1638041 C89.9039032,42.9958651 90.0291679,42.8139313 90.1265961,42.6040076 C90.2379425,42.3590967 90.3771256,42.1211832 90.5511044,41.9112595 C90.7320424,41.6943384 90.9408169,41.4914122 91.170469,41.3374682 C91.3026929,41.2465013 91.4488351,41.1695293 91.5601815,41.0435751 C91.6367322,40.9526081 91.7341604,40.9316158 91.8455068,40.9456107 C91.9359758,40.9596056 92.0055673,41.05757 91.9707716,41.1415394 C91.8803026,41.365458 91.7898336,41.5893766 91.6993646,41.8132952 C91.6576097,41.9112595 91.6088956,42.0092239 91.5949773,42.1141858 C91.5601815,42.4430662 91.3862027,42.7089695 91.2261422,42.9818702 C90.989531,43.3877226 90.759879,43.7865776 90.5232678,44.19243 C90.5023903,44.2344148 90.4815129,44.2763995 90.4467171,44.3043893 C89.7855976,45.0041349 89.2010287,45.773855 88.484236,46.4246183 C88.2058699,46.6765267 87.9553404,46.9564249 87.6908926,47.2293257 C87.6073828,47.3202926 87.5238729,47.4042621 87.4125265,47.4532443 C87.0297731,47.6071883 86.7374887,47.9010814 86.3825719,48.1040076 C86.1877156,48.2159669 86.1181241,48.3839059 86.1390015,48.600827 C86.1946747,49.2445929 86.0415734,49.860369 85.9441452,50.4831425 C85.8954312,50.7840331 85.9023903,51.0849237 85.8258396,51.3788168 C85.7423298,51.7006997 85.6657791,52.0225827 85.4709228,52.3024809 C85.3943722,52.4144402 85.3456581,52.5403944 85.2830257,52.6593511 C85.0255371,53.1281807 84.7262935,53.548028 84.2530711,53.8209288 C84.0303782,53.946883 83.8355219,54.1148219 83.6197882,54.2477735 C82.9377912,54.6606234 82.1792436,54.8495547 81.4067776,54.9685115 C81.05882,55.0174936 80.7178215,54.9895038 80.3837821,54.8775445 C80.1402118,54.8005725 79.9036006,54.7026081 79.6530711,54.6466285 C79.3677458,54.5766539 79.2007262,54.3877226 79.145053,54.1288168 C79.0476248,53.6739822 78.9780333,53.2051527 79.1798487,52.7503181 C79.3259909,52.4354326 79.4164599,52.1065522 79.6113162,51.8056616 C79.8548865,51.4347964 80.1541301,51.1269084 80.467292,50.8260178 C80.8987595,50.4061705 81.378941,50.0423028 81.8521634,49.6714377 C82.2140393,49.384542 82.610711,49.139631 83.0213011,48.9157125 C83.3553404,48.7337786 83.3622995,48.5588422 83.3344629,48.2929389 C83.3135855,48.1319975 83.2718306,47.9640585 83.2300756,47.803117 C83.0978517,47.264313 82.9586687,46.7185115 82.8194856,46.1797074 C82.791649,46.0747455 82.7846899,45.9627863 82.7290166,45.8788168 C82.4854463,45.4939567 82.3393041,45.067112 82.1444478,44.6612595 C81.9008775,44.1574427 81.6921029,43.6466285 81.6225113,43.0868321 C81.5807564,42.7579517 81.4972466,42.4360687 81.4276551,42.1141858 C81.4137368,42.0582061 81.3859002,41.9882316 81.3163086,41.995229 C81.2815129,41.995229 81.2397579,42.0372137 81.2119213,42.072201 C80.9753101,42.3730916 80.8430862,42.7299618 80.6691074,43.0658397 C80.6412708,43.1218193 80.6343116,43.1847964 80.5995159,43.2337786 C80.3002723,43.6326336 80.0427837,44.0524809 79.785295,44.4793257 C79.7017852,44.6192748 79.5904387,44.745229 79.4999697,44.8851781 C79.2563994,45.2490458 78.9223601,45.5359415 78.6161573,45.850827 C78.5396067,45.927799 78.4491377,45.9837786 78.3865053,46.0677481 C78.0663843,46.4666031 77.6418759,46.7185115 77.1964902,46.94243 C77.050348,47.019402 76.9111649,47.1033715 76.7650227,47.187341 C76.6467171,47.2573155 76.5910439,47.3552799 76.6188805,47.4882316 C76.6745537,47.726145 76.6954312,47.9640585 76.7093495,48.2089695 C76.7163086,48.3979008 76.8346142,48.5448473 76.9111649,48.7057888 C77.1268986,49.1816158 77.1964902,49.6504453 76.9737973,50.1472646 C76.9320424,50.245229 76.8902874,50.3431934 76.8763691,50.4481552 C76.8206959,50.8610051 76.688472,51.2318702 76.4031467,51.5467557 C76.3613918,51.5887405 76.3335552,51.6447201 76.3057186,51.7006997 C76.0691074,52.2045165 75.6376399,52.4984097 75.1644175,52.7503181 C74.6146445,53.0442112 74.0300756,53.2331425 73.4246293,53.3451018 C72.9166112,53.4360687 72.408593,53.4150763 71.907534,53.2891221 C71.4273525,53.1701654 71.0306808,52.9042621 70.6827231,52.5613868 C70.494826,52.3794529 70.3626021,52.1625318 70.3417247,51.889631 C70.3347655,51.8266539 70.3347655,51.7706743 70.3208472,51.7076972 C70.174705,51.182888 70.3278064,50.7280534 70.6479274,50.3082061 C70.7105598,50.2242366 70.7731921,50.1402672 70.8219062,50.0493003 C70.9193343,49.8743639 71.0515582,49.7344148 71.1977005,49.6014631 C71.7544327,49.0906489 72.359879,48.6428117 72.9931619,48.2369593 C73.1462632,48.1389949 73.2993646,48.0410305 73.4455068,47.9430662 C73.5359758,47.8870865 73.6194856,47.8241094 73.6960363,47.7541349 C73.8560968,47.6141858 73.8769743,47.5022265 73.7934644,47.3132952 C73.6612405,47.0263995 73.5290166,46.7395038 73.3898336,46.4526081 C73.2993646,46.2636768 73.2297731,46.0607506 73.181059,45.8578244 C73.1114675,45.5779262 73.0418759,45.3050254 72.8678971,45.067112 C72.7635098,44.9271628 72.7356732,44.7312341 72.6591225,44.5702926 C72.5825719,44.3883588 72.4921029,44.2134224 72.4016339,44.038486 C72.3529198,43.9405216 72.26941,43.9335242 72.1719818,43.9685115 C72.0536762,44.0104962 71.9701664,44.0944656 71.8866566,44.1854326 C71.5734947,44.514313 71.267292,44.8431934 70.9610893,45.1720738 C70.7105598,45.451972 70.4809077,45.7528626 70.1051135,45.8788168 C70.0494402,45.8998092 69.993767,45.9347964 69.9659304,45.9837786 C69.8267474,46.2426845 69.5622995,46.389631 69.4161573,46.634542 C69.2978517,46.8234733 69.1099546,46.9564249 68.8872617,47.0333969 C68.6158548,47.1243639 68.3583661,47.2573155 68.08,47.3132952 C67.9756127,47.3342875 67.8781846,47.3762723 67.7877156,47.4322519 C67.3005749,47.7191476 66.7786384,47.7751272 66.2288654,47.7751272 C65.8321936,47.7751272 65.4494402,47.7191476 65.0666868,47.6561705 C64.7674433,47.6071883 64.4960363,47.4672392 64.2315885,47.3272901 C64.1550378,47.2853053 64.0854463,47.2223282 64.0297731,47.1523537 C63.8697126,46.9564249 63.7166112,46.7465013 63.5635098,46.5435751 C63.3825719,46.2986641 63.2573071,46.0327608 63.2016339,45.7248728 C63.159879,45.4729644 63.0833283,45.2350509 63.0276551,45.0041349 C62.9232678,44.976145 62.8815129,45.0321247 62.8467171,45.0741094 C62.5335552,45.5359415 62.1925567,45.9697837 61.9281089,46.4666031 C61.7680484,46.7674936 61.5592738,47.0613868 61.2878669,47.2783079 C60.8703177,47.6141858 60.5780333,48.0550254 60.2857489,48.4958651 C59.8612405,49.1326336 59.3045083,49.5944656 58.5946747,49.860369 C58.107534,50.0423028 57.6203933,50.0073155 57.1750076,49.7134224 C57.0984569,49.6644402 57.0219062,49.615458 56.9453555,49.5734733 C56.7504992,49.4685115 56.6113162,49.3145674 56.5278064,49.1116412 C56.4303782,48.8877226 56.3399092,48.6708015 56.2494402,48.446883 C56.2285628,48.3909033 56.2007262,48.3279262 56.2076853,48.2719466 C56.2285628,47.7471374 56.1172163,47.2223282 56.1798487,46.6905216 C56.2146445,46.389631 56.2563994,46.0887405 56.3259909,45.7948473 C56.3816641,45.5569338 56.4512557,45.3260178 56.465174,45.0811069 C56.4721331,44.9971374 56.513888,44.9061705 56.5347655,44.822201 C56.694826,44.2274173 56.9036006,43.639631 57.0914977,43.0588422 C57.1541301,42.855916 57.195885,42.6459924 57.1610893,42.4360687 C57.1541301,42.4080789 57.1332526,42.3800891 57.1123752,42.3660941 C57.0914977,42.3590967 57.0497428,42.3590967 57.0288654,42.3730916 C56.785295,42.5620229 56.6182753,42.8209288 56.4790923,43.0868321 C56.284236,43.4437023 56.054584,43.7795802 55.8110136,44.1014631 C55.4978517,44.5283079 55.2055673,44.9621501 54.9480787,45.4309796 C54.6140393,46.0397583 54.28,46.6485369 53.9459607,47.2573155 C53.8485325,47.4322519 53.7302269,47.5861959 53.598003,47.726145 C53.1317398,48.2229644 52.5750076,48.3209288 51.9486838,48.1180025 C51.5241755,47.9780534 51.412829,48.0690204 51.412829,47.3972646 C51.412829,47.0613868 51.4893797,46.7395038 51.545053,46.4106234 C51.5728896,46.2636768 51.6007262,46.1167303 51.5798487,45.9627863 C51.5659304,45.8648219 51.4685023,45.8088422 51.3780333,45.8578244 C51.3154009,45.8928117 51.2527685,45.9347964 51.1901362,45.9837786 C51.0509531,46.1027354 50.9256884,46.2286896 50.7865053,46.3476463 C50.5846899,46.5295802 50.3689561,46.6835242 50.1184266,46.7954835 C49.8052648,46.9354326 49.5060212,47.1173664 49.1998185,47.2783079 C49.0815129,47.341285 48.9562481,47.3902672 48.8240242,47.4322519 C48.3438427,47.5931934 47.8427837,47.7191476 47.3765204,47.9150763 C47.3208472,47.9360687 47.2512557,47.9500636 47.2025416,47.9360687 C47.0494402,47.8870865 46.9102572,47.9500636 46.764115,47.971056 C46.2143419,48.0340331 45.6576097,48.0970102 45.1843873,47.6911578 C45.1495915,47.6631679 45.1147958,47.6281807 45.0730408,47.6211832 C44.5859002,47.5022265 44.3632073,47.096374 44.0987595,46.7325064 C44.077882,46.711514 44.0709228,46.6765267 44.0570045,46.6555344 C44.0082905,46.5785623 43.9734947,46.480598 43.8621483,46.5015903 C43.7647201,46.5225827 43.7160061,46.6065522 43.6881694,46.6905216 C43.6046596,46.9564249 43.4445991,47.1733461 43.2288654,47.3482824 C43.1592738,47.4042621 43.0966415,47.4742366 43.0479274,47.5512087 C42.7695613,47.971056 42.4076853,48.3069338 42.0527685,48.6568066 C42.0110136,48.6987913 41.9692587,48.7477735 41.9205446,48.7757634 C41.4890772,48.9996819 41.1411195,49.3425573 40.7374887,49.6084606 C40.4104085,49.8253817 40.0554917,49.9793257 39.6727383,50.0772901 C39.0185779,50.2382316 38.2321936,49.9723282 37.8633585,49.2236005 C37.6685023,48.8247455 37.564115,48.3979008 37.4318911,47.9850509 C37.3901362,47.8590967 37.4040545,47.7121501 37.4110136,47.5791985 C37.4249319,47.2153308 37.4110136,46.8584606 37.3622995,46.4945929 C37.3275038,46.2706743 37.3135855,46.0397583 37.3692587,45.8158397 C37.4179728,45.6199109 37.3622995,45.4379771 37.3414221,45.2560433 C37.2370348,45.2630407 37.2091982,45.3190204 37.1744024,45.3610051 C36.9934644,45.5989186 36.8125265,45.8368321 36.5689561,46.0257634 C36.3880182,46.1657125 36.2418759,46.3616412 36.1583661,46.6065522 C36.060938,46.8864504 35.8382451,47.110369 35.6642663,47.3552799 C35.6016339,47.4392494 35.5250832,47.5162214 35.4763691,47.6071883 C35.4067776,47.7331425 35.3302269,47.8311069 35.2049622,47.9010814 C35.0379425,47.9990458 34.9474735,48.1459924 34.877882,48.3209288 C34.8291679,48.446883 34.7595764,48.5658397 34.6760666,48.6708015 C34.3559455,49.0556616 34.0079879,49.4055344 33.6252345,49.7274173 C33.0824206,50.1822519 32.4560968,50.322201 31.7671407,50.245229 C31.4400605,50.2032443 31.1686536,50.0562977 30.9459607,49.8113868 C30.7302269,49.5734733 30.5562481,49.3005725 30.4727383,48.9926845 C30.3196369,48.4048982 30.2082905,47.817112 30.3196369,47.2013359 C30.3544327,47.0263995 30.3753101,46.8444656 30.368351,46.6625318 C30.368351,46.0957379 30.4936157,45.5569338 30.6119213,45.0111323 C30.6745537,44.7172392 30.7441452,44.4303435 30.8276551,44.0524809 C30.5632073,44.2833969 30.368351,44.4653308 30.2082905,44.6822519 C29.7698638,45.2840331 29.2548865,45.8088422 28.7259909,46.3196565 C28.183177,46.8374682 27.5429349,47.2013359 26.8470197,47.4532443 C26.5408169,47.5652036 26.2137368,47.5931934 25.8727383,47.5442112 C25.3020877,47.4602417 24.8079879,46.9004453 24.7940696,46.3686387 C24.7801513,45.7528626 24.7523147,45.1300891 24.8427837,44.514313 C25.0306808,43.1987913 25.3020877,41.8972646 25.677882,40.6167303 C25.7544327,40.3578244 25.8240242,40.0919211 25.8518608,39.8190204 C25.9005749,39.4131679 26.1511044,39.168257 26.4642663,38.9793257 C26.9026929,38.7134224 27.3759153,38.615458 27.8908926,38.6784351 C28.0091982,38.69243 28.1344629,38.6854326 28.2527685,38.69243 C28.3780333,38.6994275 28.4824206,38.7484097 28.5798487,38.8323791 C28.684236,38.9303435 28.7329501,39.0423028 28.684236,39.1962468 C28.503298,39.8050254 28.3293192,40.4138041 28.1414221,41.0155852 C27.863056,41.9112595 27.5986082,42.8069338 27.3967927,43.7236005 C27.2854463,44.2274173 27.1671407,44.7242366 27.1601815,45.2420483 C27.1601815,45.3190204 27.1532224,45.3959924 27.1601815,45.4659669 C27.1740998,45.6339059 27.2436914,45.6898855 27.4176702,45.7178753 C27.6055673,45.7458651 27.772587,45.696883 27.9256884,45.5849237 C28.273646,45.3330153 28.5798487,45.0461196 28.8303782,44.7032443 C29.1504992,44.269402 29.4845386,43.8355598 29.7489864,43.3597328 C29.867292,43.1498092 29.9925567,42.946883 30.0551891,42.7089695 C30.0760666,42.625 30.1247806,42.5410305 30.1734947,42.471056 C30.6258396,41.8272901 31.008593,41.1485369 31.3495915,40.4417939 C31.6279576,39.875 31.9202421,39.3082061 32.0872617,38.69243 C32.2055673,38.2585878 32.4978517,38.0416667 32.8666868,37.8807252 C33.0058699,37.8177481 33.1520121,37.7827608 33.2911952,37.7337786 C33.5278064,37.6498092 33.7644175,37.6638041 34.0010287,37.7197837 C34.3281089,37.8037532 34.5647201,38.153626 34.557761,38.5104962 C34.557761,38.769402 34.4881694,39.014313 34.4185779,39.2662214 C34.1889259,40.1269084 33.9592738,40.9875954 33.7365809,41.8482824 C33.6182753,42.2891221 33.5278064,42.7299618 33.5417247,43.1917939 C33.5486838,43.4506997 33.4790923,43.7026081 33.374705,43.9405216 C33.1589713,44.4443384 33.0267474,44.9691476 32.9571558,45.5079517 C32.9084418,45.8928117 32.7970953,46.2776718 32.7066263,46.6555344 C32.5674433,47.264313 32.5396067,47.8800891 32.5396067,48.5028626 C32.5396067,48.6078244 32.5465658,48.7127863 32.5674433,48.8177481 C32.6091982,49.0556616 32.7622995,49.1256361 32.9571558,48.9996819 C33.0963389,48.908715 33.2285628,48.8107506 33.3468684,48.6987913 C33.6391528,48.4188931 33.9383964,48.1389949 34.1750076,47.803117 C34.2585174,47.6771628 34.3629047,47.5652036 34.467292,47.4602417 C34.7804539,47.1733461 35.0309834,46.8374682 35.2467171,46.4736005 C35.4206959,46.1797074 35.6573071,45.9138041 35.7686536,45.5779262 C35.789531,45.5079517 35.8521634,45.451972 35.9008775,45.3959924 C35.9495915,45.3400127 36.0261422,45.298028 36.0539788,45.2280534 C36.2836309,44.6542621 36.8055673,44.2973919 37.0908926,43.7655852 C37.1674433,43.6186387 37.2718306,43.485687 37.3692587,43.3527354 C37.6058699,43.0098601 37.7589713,42.6389949 37.8146445,42.226145 C37.8285628,42.0931934 37.8494402,41.9532443 37.8911952,41.8272901 C38.0442965,41.3864504 38.1626021,40.9386132 38.2739486,40.4837786 C38.385295,40.0149491 38.5036006,39.5461196 38.6427837,39.0842875 C38.6706203,38.9863232 38.7123752,38.8813613 38.7193343,38.7763995 C38.7402118,38.2655852 38.9141906,37.8037532 39.0881694,37.3349237 C39.1090469,37.278944 39.1229652,37.2159669 39.1368835,37.1599873 C39.3526172,36.2923028 39.6518608,35.4526081 39.9163086,34.605916 C40.0485325,34.1930662 40.0206959,34.1300891 39.6031467,34.053117 C39.157761,33.9691476 38.7262935,33.8431934 38.294826,33.7172392 C37.9468684,33.6192748 37.5919516,33.5493003 37.2300756,33.5423028 C36.5272012,33.5283079 35.8173676,33.514313 35.1144932,33.5213104 C34.4046596,33.5283079 33.7087443,33.6542621 33.012829,33.7592239 C32.8945234,33.7802163 32.7762179,33.8152036 32.6579123,33.8082061 C32.3029955,33.7802163 31.9689561,33.8711832 31.6488351,34.0041349 C31.460938,34.0811069 31.2730408,34.1090967 31.0781846,34.1020992 C30.8554917,34.0951018 30.6536762,34.144084 30.4936157,34.2910305 C30.2570045,34.5219466 29.9925567,34.528944 29.7002723,34.4309796 C29.6098033,34.4029898 29.5262935,34.3819975 29.4984569,34.2770356 C29.456702,34.1370865 29.4636611,34.0041349 29.5819667,33.899173 C29.6376399,33.8501908 29.7072315,33.8012087 29.776823,33.7872137 C30.1386989,33.7102417 30.4449017,33.514313 30.7650227,33.346374 C31.4818154,32.9755089 32.2403631,32.7445929 33.0267474,32.6116412 C33.1311346,32.5976463 33.2424811,32.5976463 33.3399092,32.562659 C33.8827231,32.3737277 34.4533737,32.331743 35.0240242,32.2617684 C35.1423298,32.2477735 35.2606354,32.2477735 35.3859002,32.2407761 C36.0887746,32.2197837 36.7986082,32.2827608 37.5014826,32.1917939 C37.5571558,32.1847964 37.6197882,32.1987913 37.6824206,32.2057888 C38.2600303,32.331743 38.8376399,32.3877226 39.4222088,32.4367048 C39.707534,32.4576972 39.9859002,32.5276718 40.250348,32.639631 C40.3338578,32.6746183 40.4104085,32.6256361 40.4104085,32.5416667 C40.4104085,32.3177481 40.4591225,32.1218193 40.6678971,32.0028626 C40.7862027,31.7159669 41.0019365,31.4640585 41.0228139,31.1351781 C41.0436914,30.8552799 41.1202421,30.6033715 41.2663843,30.365458 C41.3707716,30.1975191 41.4751589,30.0295802 41.6769743,29.9666031 C41.8161573,29.9246183 41.8787897,29.7986641 41.9553404,29.6867048 C42.1571558,29.3998092 42.4633585,29.3088422 42.7765204,29.2878499 C43.0340091,29.273855 43.2845386,29.3368321 43.4098033,29.6237277 C43.4376399,29.6867048 43.5002723,29.7426845 43.5489864,29.7986641 C43.7508018,29.9945929 43.7995159,30.2395038 43.7438427,30.5054071 C43.7299244,30.596374 43.7020877,30.6803435 43.6812103,30.7713104 C43.5141906,31.3381043 43.3610893,31.9048982 43.1731921,32.4646947 C43.075764,32.7515903 43.0479274,33.0524809 42.9783359,33.346374 C42.9504992,33.4723282 42.9992133,33.5493003 43.1175189,33.591285 C43.214947,33.6262723 43.3193343,33.6472646 43.4237216,33.6752545 C43.6394554,33.7312341 43.8621483,33.7732188 44.077882,33.8501908 C44.3214523,33.9341603 44.5719818,33.9691476 44.8294705,33.9691476 C45.0104085,33.9691476 45.1913464,33.9971374 45.3653253,34.0181298 C45.6924054,34.053117 46.0264448,34.0741094 46.353525,34.0111323 C46.7293192,33.9341603 47.1120726,33.9411578 47.4739486,33.9971374 C47.8288654,34.0461196 48.1629047,34.0041349 48.496944,33.9341603 C48.9423298,33.8431934 49.3946747,33.8711832 49.8470197,33.8711832 C50.0418759,33.8711832 50.2367322,33.9271628 50.3411195,34.1300891 C50.4455068,34.3260178 50.4037519,34.4939567 50.2019365,34.5709288 C50.0627534,34.6199109 49.9166112,34.6618957 49.7635098,34.682888 C49.2415734,34.7598601 48.7196369,34.8228372 48.2046596,34.8928117 C47.7592738,34.9487913 47.313888,35.0397583 46.8615431,35.0187659 C46.8476248,35.0187659 46.8337065,35.0187659 46.8197882,35.0257634 C46.0960363,35.2636768 45.3653253,35.1517176 44.6346142,35.0537532 C44.0709228,34.9767812 43.5002723,34.9068066 42.9365809,34.8298346 C42.8739486,34.8228372 42.8182753,34.8158397 42.755643,34.8158397 C42.5677458,34.8088422 42.4911952,34.8648219 42.4216036,35.0537532 C42.3868079,35.1517176 42.3589713,35.2566794 42.3311346,35.3546438 C42.0110136,36.5022265 41.6700151,37.6498092 41.3707716,38.8043893 C40.9462632,40.427799 40.5287141,42.0512087 40.2155522,43.6956107 C40.1042057,44.2903944 39.9719818,44.8781807 39.8606354,45.4729644 C39.7284115,46.158715 39.6449017,46.8444656 39.5892284,47.5372137 C39.5753101,47.7191476 39.5544327,47.894084 39.5265961,48.0760178 C39.4918003,48.3139313 39.477882,48.5588422 39.5196369,48.7967557 C39.5405144,48.9227099 39.6449017,48.985687 39.749289,48.9227099 C39.8675946,48.8457379 39.9998185,48.8247455 40.1250832,48.7827608 C40.3268986,48.7197837 40.5147958,48.6288168 40.660938,48.4608779 C40.7583661,48.3489186 40.8836309,48.2579517 40.9949773,48.1599873 C41.0506505,48.1110051 41.1202421,48.0690204 41.1689561,48.0130407 C41.7674433,47.3202926 42.4146445,46.6625318 42.9087443,45.8858142 C43.1036006,45.5779262 43.2636611,45.2560433 43.5072315,44.9831425 C43.576823,44.9061705 43.6255371,44.8012087 43.6185779,44.6892494 C43.576823,44.2344148 43.7716793,43.8285623 43.8691074,43.408715 C43.9456581,43.0588422 44.0709228,42.7159669 44.1822693,42.3730916 C44.2309834,42.2331425 44.2936157,42.072201 44.398003,41.9812341 C44.5719818,41.8272901 44.6346142,41.6453562 44.6972466,41.44243 C44.7390015,41.3024809 44.8225113,41.1695293 44.9060212,41.0435751 C45.0243268,40.8686387 45.1635098,40.7076972 45.2539788,40.5187659 C45.3305295,40.3578244 45.4836309,40.273855 45.6297731,40.2038804 C45.9150983,40.0569338 46.1586687,39.8610051 46.3813616,39.6370865 C46.583177,39.4271628 46.812829,39.2732188 47.1051135,39.1962468 C47.265174,39.1542621 47.4113162,39.0772901 47.5713767,39.0213104 C47.7940696,38.9303435 48.0167625,38.8393766 48.267292,38.9023537 C48.357761,38.9233461 48.4412708,38.8883588 48.5317398,38.860369 C48.8101059,38.769402 49.088472,38.769402 49.3668381,38.8883588 C49.4921029,38.9443384 49.6243268,38.9583333 49.7565507,38.9863232 C49.951407,39.0283079 50.0766717,39.1402672 50.1323449,39.3291985 C50.1949773,39.5461196 50.2436914,39.7700382 50.2436914,40.0009542 C50.2436914,40.1688931 50.2019365,40.3298346 50.0766717,40.4557888 C49.909652,40.6307252 49.7217549,40.7286896 49.4712254,40.6797074 C49.3042057,40.6517176 49.1511044,40.6027354 49.0049622,40.5117684 C48.8170651,40.3998092 48.6291679,40.4138041 48.44823,40.504771 C48.2812103,40.581743 48.1350681,40.6797074 48.0028442,40.8056616 C47.814947,40.980598 47.6479274,41.1765267 47.5017852,41.3864504 C46.764115,42.4430662 46.2908926,43.6046438 46.0612405,44.8711832 C46.0125265,45.1370865 45.9986082,45.4099873 46.0334039,45.682888 C46.0960363,46.1657125 46.3813616,46.4736005 46.8267474,46.6275445 C47.2164599,46.7674936 47.5922542,46.7534987 47.9541301,46.5225827 C48.0933132,46.4316158 48.2464145,46.3616412 48.406475,46.3266539 C48.8657791,46.2286896 49.26941,45.9907761 49.7008775,45.8088422 C49.8818154,45.7318702 50.0279576,45.6129135 50.1601815,45.451972 C50.3689561,45.1930662 50.6055673,44.9691476 50.8769743,44.7662214 C51.1066263,44.5982824 51.3154009,44.3953562 51.5172163,44.19243 C51.7120726,43.9965013 51.8442965,43.7515903 51.9208472,43.4926845 C52.0530711,43.0308524 52.1783359,42.5620229 52.275764,42.0931934 C52.3871104,41.5473919 52.5541301,41.0225827 52.7559455,40.4977735 C52.8881694,40.1479008 52.9647201,39.7700382 53.0134342,39.399173 C53.096944,38.7554071 53.2291679,38.1256361 53.5005749,37.5378499 C53.6815129,37.1459924 53.7719818,36.7331425 53.7998185,36.3132952 C53.8206959,36.0333969 53.8972466,35.7814885 54.0225113,35.5435751 C54.2591225,35.0887405 54.4261422,34.605916 54.5792436,34.1090967 C55.1081392,32.4367048 55.7135855,30.7923028 56.4582148,29.2038804 C56.9383964,28.1752545 57.5020877,27.1886132 58.2119213,26.3069338 C58.6642663,25.7401399 59.1583661,25.2083333 59.7986082,24.8444656 C60.0839334,24.6765267 60.383177,24.5295802 60.6754614,24.3826336 C60.7380938,24.3476463 60.8216036,24.3266539 60.8911952,24.3406489 C61.113888,24.3826336 61.3365809,24.3616412 61.566233,24.3756361 C61.8654766,24.3966285 62.1160061,24.5225827 62.3108623,24.7465013 C62.4500454,24.9074427 62.5892284,25.0613868 62.7284115,25.2223282 C62.8327988,25.341285 62.8815129,25.4812341 62.8815129,25.6351781 C62.9023903,26.1949746 62.9232678,26.754771 62.9371861,27.3145674 C62.9371861,27.4055344 62.9163086,27.4965013 62.9023903,27.5874682 C62.8467171,28.0073155 62.7840847,28.4271628 62.8049622,28.8540076 C62.8188805,29.0989186 62.7562481,29.3368321 62.6936157,29.5677481 C62.6309834,29.812659 62.568351,30.0645674 62.5057186,30.3164758 C62.4639637,30.4774173 62.4152496,30.6313613 62.3247806,30.7783079 C62.2551891,30.8902672 62.1855976,31.0162214 62.1438427,31.1421756 C61.7889259,32.2197837 61.3157035,33.2484097 60.8076853,34.2630407 C60.6685023,34.5499364 60.5223601,34.8228372 60.3205446,35.0747455 C60.1604841,35.2706743 60.0491377,35.5085878 59.9308321,35.7325064 C59.7846899,36.0124046 59.6037519,36.2713104 59.4158548,36.5232188 C58.8312859,37.2859415 58.1284115,37.9506997 57.5438427,38.7204198 C57.376823,38.9443384 57.1262935,39.1052799 56.9036006,39.2872137 C56.4999697,39.6230916 56.0963389,39.9589695 55.6857489,40.2948473 C55.553525,40.4068066 55.4560968,40.5327608 55.4143419,40.7006997 C55.3865053,40.8196565 55.3447504,40.9316158 55.3238729,41.0505725 C55.1986082,41.7783079 55.010711,42.4990458 54.8367322,43.2127863 C54.8436914,43.2477735 54.8436914,43.2967557 54.8297731,43.4297074 Z M61.8098033,28.6370865 C61.8237216,28.4551527 61.8028442,28.2732188 61.7610893,28.0982824 C61.6288654,27.461514 61.4409682,26.8457379 61.3435401,26.201972 C61.3365809,26.1389949 61.3226626,26.0830153 61.3087443,26.0270356 C61.2739486,25.9150763 61.1834796,25.8870865 61.1069289,25.9640585 C60.9607867,26.1110051 60.8563994,26.3069338 60.6824206,26.432888 C60.3622995,26.6638041 60.1187292,26.9716921 59.9447504,27.3285623 C59.652466,27.9233461 59.3323449,28.4971374 58.9983056,29.0709288 C58.9287141,29.1898855 58.88,29.3158397 58.8382451,29.4417939 C58.7408169,29.7426845 58.6433888,30.0435751 58.5529198,30.3444656 C58.4833283,30.5613868 58.4137368,30.764313 58.2815129,30.9602417 C58.1562481,31.1421756 58.0727383,31.3660941 58.0031467,31.5760178 C57.7804539,32.2477735 57.5647201,32.9265267 57.3559455,33.6052799 C56.8966415,35.0887405 56.513888,36.6001908 56.1311346,38.1046438 C56.103298,38.2026081 56.0893797,38.30757 56.0754614,38.4125318 C56.0754614,38.4475191 56.1102572,38.4965013 56.145053,38.5104962 C56.1798487,38.5244911 56.2424811,38.5174936 56.2703177,38.4895038 C56.3120726,38.4545165 56.3468684,38.3985369 56.3677458,38.3425573 C56.5486838,37.9297074 56.9175189,37.6708015 57.2306808,37.3699109 C57.2724357,37.3349237 57.3420272,37.3279262 57.3977005,37.3139313 C57.6899849,37.2369593 57.8500454,37.0410305 57.9126778,36.7471374 C57.9822693,36.418257 58.1840847,36.1733461 58.46941,36.0263995 C58.6225113,35.94243 58.7338578,35.8374682 58.8243268,35.6905216 C59.3393041,34.8578244 59.8890772,34.053117 60.3205446,33.1644402 C60.8146445,32.1568066 61.2321936,31.1281807 61.5383964,30.0505725 C61.6706203,29.5957379 61.7889259,29.1199109 61.8098033,28.6370865 Z M80.8013313,53.7719466 C81.3302269,53.7579517 81.7616944,53.6389949 82.1374887,53.3660941 C82.3114675,53.2471374 82.471528,53.1141858 82.6246293,52.9672392 C82.882118,52.7153308 83.1465658,52.4564249 83.2370348,52.0925573 C83.3205446,51.7566794 83.3901362,51.4138041 83.3553404,51.0639313 C83.3275038,50.7770356 83.2857489,50.4971374 83.4110136,50.2172392 C83.4179728,50.1962468 83.3970953,50.1542621 83.3762179,50.1402672 C83.3553404,50.1262723 83.3135855,50.1262723 83.292708,50.1402672 C83.0491377,50.2872137 82.791649,50.4061705 82.5689561,50.5951018 C82.1305295,50.9589695 81.6921029,51.3228372 81.288472,51.7286896 C80.9544327,52.05757 80.6899849,52.44243 80.4812103,52.8622774 C80.4324962,52.9532443 80.3837821,53.0582061 80.376823,53.1561705 C80.3559455,53.5550254 80.5229652,53.7369593 80.8013313,53.7719466 Z M74.273646,49.7274173 C74.2597277,49.5174936 74.2597277,49.30757 74.2388502,49.0976463 C74.2249319,48.9297074 74.1344629,48.8807252 74.002239,48.9716921 C73.6960363,49.1676209 73.4037519,49.3775445 73.0627534,49.4965013 C72.9931619,49.5174936 72.9305295,49.5734733 72.8748563,49.6224555 C72.4433888,50.0213104 72.0327988,50.4411578 71.6987595,50.9239822 C71.587413,51.0849237 71.5108623,51.2668575 71.44823,51.4557888 C71.357761,51.735687 71.4621483,51.8966285 71.7265961,52.0225827 C72.1232678,52.211514 72.5408169,52.1835242 72.9653253,52.1695293 C73.2576097,52.1625318 73.4872617,52.0435751 73.6681997,51.8196565 C73.7517095,51.7146947 73.8282602,51.6027354 73.8908926,51.4837786 C74.1762179,50.9309796 74.2875643,50.3431934 74.273646,49.7274173 Z M67.0361271,41.3864504 C67.5859002,41.3164758 67.9686536,40.9945929 68.309652,40.6027354 C68.3166112,40.5887405 68.3235703,40.5747455 68.3235703,40.5607506 C68.3305295,40.5117684 68.3166112,40.4697837 68.2678971,40.4487913 C68.2400605,40.4347964 68.2052648,40.4347964 68.1774281,40.4417939 C67.7737973,40.5257634 67.2379425,40.9666031 67.0361271,41.3864504 Z M12.3441452,54.8285623 C11.3281089,54.80757 10.4303782,54.6746183 9.56048411,54.3457379 C8.94111952,54.1148219 8.42614221,53.7439567 7.95987897,53.2961196 C7.82765507,53.1701654 7.70239032,53.0652036 7.5284115,52.9812341 C7.1734947,52.8202926 6.86033283,52.5753817 6.58892587,52.288486 C6.51933434,52.211514 6.44974281,52.1205471 6.36623298,52.0645674 C6.06698941,51.8686387 5.86517398,51.5887405 5.67727685,51.2948473 C5.44762481,50.9379771 5.13446293,50.6510814 4.84217852,50.3501908 C4.6681997,50.1612595 4.43854766,50.2172392 4.32720121,50.4481552 C4.27152799,50.553117 4.24369138,50.6720738 4.21585477,50.7910305 C4.12538578,51.2318702 4.04187595,51.6797074 3.90269289,52.1135496 C3.84701967,52.2954835 3.83310136,52.4984097 3.65912254,52.6313613 C3.58953101,52.687341 3.58257186,52.7923028 3.56865356,52.8832697 C3.54081694,53.2401399 3.35291982,53.5410305 3.24853253,53.8699109 C3.21373676,53.9888677 3.12326778,54.0728372 3.03279879,54.1568066 C2.94928896,54.2267812 2.87969743,54.3037532 2.85186082,54.408715 C2.78922844,54.6606234 2.59437216,54.7236005 2.37167927,54.7375954 C2.22553707,54.7515903 2.0724357,54.7515903 1.91933434,54.7375954 C1.60617247,54.7096056 1.29301059,54.6746183 0.99376702,54.5696565 C0.847624811,54.5136768 0.729319213,54.4297074 0.652768533,54.2897583 C0.562299546,54.1148219 0.457912254,53.9538804 0.276974281,53.8489186 C0.179546142,53.7929389 0.144750378,53.6879771 0.116913767,53.5830153 C0.0334039334,53.2331425 0.0403630862,52.8902672 0.200423601,52.5683842 C0.283933434,52.3934478 0.360484115,52.211514 0.388320726,52.0155852 C0.409198185,51.8826336 0.464871407,51.7566794 0.527503782,51.6377226 C0.722360061,51.2668575 0.931134644,50.8959924 1.12599092,50.5251272 C1.16078669,50.4621501 1.20950076,50.3851781 1.20950076,50.3152036 C1.22341906,49.7414122 1.43219365,49.2236005 1.62009077,48.6987913 C1.76623298,48.2859415 1.89845688,47.8730916 2.12114977,47.4882316 C2.3229652,47.1383588 2.44822995,46.7395038 2.52478064,46.3406489 C2.63612708,45.773855 2.81706505,45.2350509 3.03279879,44.7032443 C3.32508321,43.9895038 3.61736762,43.2827608 3.80526475,42.5340331 C4.20889561,40.9526081 4.66124054,39.3851781 5.0509531,37.8037532 C5.62856278,35.4596056 6.11570348,33.0874682 6.42886536,30.687341 C6.51933434,29.9666031 6.64459909,29.2528626 6.6724357,28.5251272 C6.69331316,28.0283079 6.69331316,27.5244911 6.67939486,27.0276718 C6.6724357,26.5448473 6.57500756,26.0690204 6.4219062,25.6071883 C6.35927383,25.418257 6.26184569,25.2503181 6.10874433,25.1173664 C5.94172466,24.9704198 5.75382753,24.9074427 5.52417549,24.9704198 C5.33627837,25.0263995 5.15534039,25.1033715 4.99527988,25.2153308 C4.64732224,25.4602417 4.34111952,25.7471374 4.0627534,26.0690204 C3.35987897,26.8877226 2.82402421,27.8113868 2.44822995,28.8260178 C2.37863843,29.0079517 2.33688351,29.2038804 2.28816944,29.3928117 C2.25337368,29.5117684 2.23945537,29.6307252 2.26729198,29.7496819 C2.36472012,30.2325064 2.28816944,30.7083333 2.22553707,31.1841603 C2.16290469,31.6809796 2.14898638,32.1708015 2.32992436,32.6606234 C2.44822995,32.9685115 2.53173979,33.2903944 2.62916793,33.6122774 C2.66396369,33.7312341 2.71963691,33.8361959 2.81706505,33.9131679 C3.00496218,34.053117 3.0606354,34.2910305 3.20677761,34.4659669 C3.24157337,34.5079517 3.24853253,34.5779262 3.25549168,34.6339059 C3.26940998,34.7668575 3.16502269,34.8858142 3.03975794,34.8648219 C2.71963691,34.8018448 2.37863843,34.7878499 2.14898638,34.5009542 C1.74535552,34.298028 1.50178517,33.9271628 1.24429652,33.5772901 C0.938093797,33.1574427 0.826747352,32.6746183 0.868502269,32.1708015 C0.889379728,31.9258906 0.882420575,31.6879771 0.833706505,31.4500636 C0.784992436,31.226145 0.743237519,31.0092239 0.805869894,30.7783079 C0.8197882,30.7223282 0.826747352,30.6593511 0.8197882,30.596374 C0.791951589,29.9106234 0.972889561,29.2808524 1.32780635,28.7000636 C1.51570348,28.3921756 1.5574584,28.0283079 1.66880484,27.69243 C1.79406959,27.3355598 1.90541604,26.985687 2.14202723,26.677799 C2.34384266,26.4188931 2.51782148,26.1319975 2.67092284,25.8381043 C2.87273828,25.4532443 3.16502269,25.1593511 3.45034796,24.8514631 C3.53385779,24.7604962 3.64520424,24.6975191 3.70783661,24.5995547 C3.96532526,24.1937023 4.38983359,24.0117684 4.77954614,23.8018448 C5.16229955,23.5919211 5.59376702,23.5989186 6.01131619,23.5919211 C6.20617247,23.5919211 6.40102874,23.6618957 6.54717095,23.7948473 C6.71419062,23.9417939 6.88816944,24.0257634 7.11782148,24.004771 C7.21524962,23.9977735 7.31963691,24.0397583 7.42402421,24.0747455 C7.6606354,24.1447201 7.82069592,24.2986641 7.86245083,24.5435751 C7.92508321,24.865458 8.09906203,25.1243639 8.28695915,25.3832697 C8.50965204,25.6911578 8.65579425,26.0200382 8.69754917,26.4118957 C8.75322239,26.9367048 8.87848714,27.4545165 9.05246596,27.9513359 C9.13597579,28.1892494 9.17077156,28.4201654 9.12205749,28.6580789 C9.0315885,29.0919211 9.03854766,29.5257634 9.11509834,29.9666031 C9.14293495,30.1275445 9.15685325,30.2954835 9.12205749,30.4634224 C9.0176702,30.8972646 9.06638427,31.3381043 9.03854766,31.7719466 C9.03854766,31.8139313 9.04550681,31.8629135 9.06638427,31.9048982 C9.07334342,31.9258906 9.10813918,31.9398855 9.13597579,31.946883 C9.14293495,31.946883 9.17077156,31.9398855 9.17077156,31.9258906 C9.19860817,31.8699109 9.22644478,31.8209288 9.24732224,31.7649491 C9.33779123,31.5200382 9.47001513,31.303117 9.6509531,31.1141858 C9.783177,30.9812341 9.85972769,30.8202926 9.9014826,30.6383588 C10.0197882,30.1905216 10.2494402,29.7986641 10.4930106,29.4208015 C10.6252345,29.2108779 10.8270499,29.0429389 10.966233,28.8190204 C11.0219062,28.7280534 11.0984569,28.6510814 11.1332526,28.553117 C11.2445991,28.2662214 11.4185779,28.0283079 11.606475,27.7903944 C11.9196369,27.384542 12.1771256,26.9367048 12.5042057,26.5448473 C12.8382451,26.1459924 13.1583661,25.7121501 13.6803026,25.5162214 C13.8334039,25.4532443 13.9656278,25.3482824 14.0839334,25.2293257 C14.383177,24.9284351 14.7520121,24.7185115 15.1208472,24.5155852 C15.3017852,24.4176209 15.5244781,24.389631 15.7262935,24.3616412 C16.4570045,24.2636768 17.1877156,24.2286896 17.9253858,24.2636768 C18.0576097,24.2706743 18.1967927,24.2846692 18.3220575,24.3196565 C18.8718306,24.480598 19.4007262,24.6905216 19.9435401,24.8794529 C20.6881694,25.1383588 21.1822693,25.6561705 21.6137368,26.2579517 C21.9825719,26.7687659 22.3166112,27.30757 22.671528,27.8323791 C22.6993646,27.8673664 22.7272012,27.9023537 22.7411195,27.9443384 C22.9220575,28.4971374 23.2491377,29.0009542 23.3604841,29.581743 C23.5205446,30.4284351 23.764115,31.2541349 23.8963389,32.1078244 C23.9380938,32.3597328 23.9798487,32.6116412 24.0146445,32.8705471 C24.0355219,33.038486 24.0494402,33.1994275 24.1051135,33.360369 C24.1329501,33.4443384 24.1468684,33.5353053 24.1468684,33.6262723 C24.2025416,34.8368321 24.2373374,36.0403944 24.1677458,37.2509542 C24.1259909,37.9297074 24.0285628,38.6014631 23.9659304,39.2802163 C23.9380938,39.567112 23.9311346,39.8540076 23.9102572,40.1409033 C23.8893797,40.427799 23.8615431,40.7146947 23.7362784,40.980598 C23.6666868,41.1205471 23.6597277,41.2744911 23.6666868,41.4214377 C23.6806051,41.6803435 23.6249319,41.9252545 23.5205446,42.1631679 C23.3813616,42.4780534 23.2908926,42.8209288 23.1865053,43.1498092 C23.1517095,43.2477735 23.1169138,43.3597328 23.1308321,43.4576972 C23.1517095,43.7585878 23.0403631,44.0174936 22.9290166,44.2833969 C22.5671407,45.1790712 22.2122239,46.0747455 21.850348,46.9704198 C21.5650227,47.6911578 21.2101059,48.3699109 20.7508018,48.9926845 C20.4724357,49.3705471 20.2288654,49.769402 20.0200908,50.1892494 C19.9087443,50.4061705 19.7765204,50.6020992 19.6095008,50.7840331 C19.1014826,51.3368321 18.5586687,51.8616412 18.0924054,52.4564249 C17.981059,52.596374 17.8349168,52.7153308 17.6818154,52.8062977 C17.5147958,52.9112595 17.3408169,52.9882316 17.2364297,53.1771628 C17.208593,53.2331425 17.1250832,53.2751272 17.0554917,53.2961196 C16.8327988,53.3660941 16.65882,53.5060433 16.477882,53.6459924 C16.1855976,53.8629135 15.8793949,54.0448473 15.5453555,54.1917939 C15.475764,54.2197837 15.4061725,54.2617684 15.3365809,54.2687659 C14.9607867,54.3037532 14.612829,54.4506997 14.2648714,54.5976463 C13.882118,54.7515903 13.4784871,54.7865776 13.0818154,54.8425573 C12.8173676,54.8705471 12.5320424,54.7865776 12.3441452,54.8285623 Z M11.2515582,52.7153308 C11.5299244,52.7363232 11.7178215,52.7153308 11.8848411,52.5823791 C12.0240242,52.4774173 12.1771256,52.4494275 12.3511044,52.4564249 C12.608593,52.4634224 12.8591225,52.4214377 13.0887746,52.288486 C13.1931619,52.2255089 13.3114675,52.2045165 13.4297731,52.1975191 C13.882118,52.1695293 14.2579123,51.9736005 14.564115,51.6307252 C14.6267474,51.5607506 14.6685023,51.4767812 14.745053,51.427799 C15.065174,51.2248728 15.3296218,50.9589695 15.5871104,50.6930662 C15.8306808,50.4411578 16.067292,50.1962468 16.24823,49.8953562 C16.3039032,49.8043893 16.3665356,49.7204198 16.4500454,49.6504453 C16.6518608,49.4755089 16.7701664,49.2515903 16.8745537,49.0206743 C16.9650227,48.8107506 17.0833283,48.6288168 17.2225113,48.446883 C17.4173676,48.1879771 17.5843873,47.9010814 17.7166112,47.6001908 C17.7792436,47.4602417 17.8279576,47.3132952 17.9114675,47.1943384 C18.0993646,46.9284351 18.2037519,46.6415394 18.252466,46.3196565 C18.2733434,46.1867048 18.3220575,46.0537532 18.3846899,45.9347964 C18.6143419,45.4939567 18.6769743,44.9831425 18.9135855,44.5423028 C18.9344629,44.5073155 18.9483812,44.4583333 18.9483812,44.4093511 C18.9553404,44.1084606 19.1223601,43.8705471 19.2406657,43.6116412 C19.3868079,43.2897583 19.6512557,43.0098601 19.6164599,42.6180025 C19.6095008,42.5760178 19.6373374,42.5270356 19.665174,42.4920483 C19.7626021,42.3520992 19.7765204,42.1841603 19.8321936,42.0232188 C19.8739486,41.8972646 19.9157035,41.764313 19.9922542,41.6523537 C20.2706203,41.2395038 20.4167625,40.7916667 20.4098033,40.2948473 C20.4098033,40.1618957 20.3889259,40.0079517 20.4585174,39.8959924 C20.6324962,39.6160941 20.667292,39.3082061 20.7020877,38.9933206 C20.7160061,38.860369 20.7716793,38.7274173 20.8203933,38.6084606 C20.9039032,38.4265267 20.9317398,38.2375954 20.9456581,38.0346692 C20.9595764,37.8527354 20.9804539,37.6708015 21.0013313,37.4958651 C21.0152496,37.3909033 21.0291679,37.2859415 20.987413,37.1809796 C20.9178215,36.9990458 20.9734947,36.8311069 21.0222088,36.649173 C21.1474735,36.2363232 21.168351,35.8164758 21.0152496,35.403626 C20.9247806,35.1727099 20.9317398,34.927799 20.9386989,34.6898855 C20.9595764,34.1930662 21.0500454,33.6962468 20.9317398,33.2064249 L20.9317398,33.1644402 C20.9526172,32.5276718 20.806475,31.9048982 20.7090469,31.2751272 C20.6185779,30.6803435 20.4445991,30.0995547 20.2984569,29.5117684 C20.1244781,28.8260178 19.9365809,28.1402672 19.6582148,27.4895038 C19.3241755,26.6987913 18.802239,26.0690204 18.0088956,25.7121501 C17.6052648,25.5302163 17.1807564,25.4252545 16.7353707,25.495229 C15.8724357,25.6211832 15.1486838,26.0270356 14.5432375,26.6498092 C14.1465658,27.0556616 13.8125265,27.5314885 13.3671407,27.8883588 C13.2766717,27.9583333 13.2070802,28.0702926 13.1444478,28.168257 C12.8730408,28.5881043 12.5459607,28.9659669 12.3371861,29.4208015 C12.3093495,29.4907761 12.2536762,29.5467557 12.2119213,29.6097328 C11.9961876,29.9386132 11.7804539,30.2604962 11.5716793,30.5893766 C11.5299244,30.6523537 11.5090469,30.7293257 11.4881694,30.7993003 C11.3698638,31.1281807 11.2237216,31.4430662 11.0288654,31.7299618 C10.9105598,31.9048982 10.8131316,32.0868321 10.7435401,32.2897583 C10.6391528,32.6046438 10.4930106,32.9055344 10.3190318,33.1854326 C10.2007262,33.3813613 10.1172163,33.591285 10.0337065,33.8012087 C9.89452345,34.1510814 9.74838124,34.4939567 9.53960666,34.8158397 C9.4004236,35.0257634 9.24036309,35.235687 9.1498941,35.4736005 C9.02462935,35.7954835 8.9132829,36.1243639 8.80193646,36.4532443 C8.71842663,36.6981552 8.62795764,36.9360687 8.52357035,37.1669847 C8.36350983,37.523855 8.16865356,37.8737277 8.13385779,38.2725827 C8.09210287,38.7064249 7.90420575,39.0842875 7.73718608,39.4691476 C7.50753404,39.9799618 7.29875946,40.4977735 7.13173979,41.0295802 C6.64459909,42.5550254 6.1713767,44.0804707 5.69119516,45.6129135 C5.47546142,46.3196565 5.27364599,47.0333969 5.0509531,47.7401399 C4.96048411,48.0340331 5.01615734,48.2649491 5.21797277,48.4888677 C5.44066566,48.7337786 5.62856278,49.0066794 5.83037821,49.2655852 C6.10874433,49.6224555 6.35231467,50.0003181 6.69331316,50.3082061 C6.93688351,50.5251272 7.18045386,50.7420483 7.43794251,50.951972 C7.63975794,51.1199109 7.84157337,51.2598601 8.09210287,51.3228372 C8.45397882,51.4068066 8.76018154,51.5957379 9.00375189,51.8756361 C9.12901664,52.0155852 9.27515885,52.1065522 9.44217852,52.1835242 C9.6370348,52.2674936 9.82493192,52.3514631 10.0337065,52.3934478 C10.1659304,52.4144402 10.2981543,52.4634224 10.4164599,52.5263995 C10.7087443,52.6593511 11.0219062,52.687341 11.2515582,52.7153308 Z M49.9374887,22.1994275 C49.6591225,22.6262723 49.359879,22.9271628 49.1859002,23.3190204 C49.1023903,23.5149491 48.9632073,23.6688931 48.7892284,23.8018448 C48.6082905,23.9347964 48.4412708,24.0957379 48.3090469,24.2776718 C47.8497428,24.9074427 47.2442965,25.3832697 46.6179728,25.8311069 C46.4857489,25.9290712 46.3256884,25.9920483 46.1795461,26.0550254 C45.9846899,26.1389949 45.7828744,26.1949746 45.5949773,26.2859415 C45.2400605,26.4608779 44.8781846,26.4888677 44.5023903,26.355916 C44.3144932,26.2929389 44.1265961,26.2579517 43.9247806,26.2929389 C43.7368835,26.3209288 43.6812103,26.278944 43.6185779,26.1040076 C43.4515582,25.649173 43.3610893,25.1733461 43.3819667,24.6835242 C43.3889259,24.4736005 43.3750076,24.2636768 43.3819667,24.0467557 C43.395885,23.4869593 43.4028442,22.9271628 43.6812103,22.4163486 C43.7438427,22.3043893 43.7508018,22.1854326 43.7508018,22.0664758 C43.7716793,21.5976463 43.7716793,21.1358142 43.8899849,20.6739822 C43.9456581,20.4640585 43.9108623,20.226145 43.9108623,19.995229 C43.9108623,19.9742366 43.8830257,19.9392494 43.8621483,19.9322519 C43.8412708,19.9252545 43.7995159,19.9322519 43.7855976,19.9532443 C43.6951286,20.0931934 43.6046596,20.2331425 43.5211498,20.3730916 C43.2219062,20.8629135 42.9296218,21.3527354 42.6303782,21.8355598 C42.6095008,21.8775445 42.5886233,21.9195293 42.5607867,21.9475191 C42.1362784,22.4093511 41.8718306,22.9691476 41.6282602,23.5429389 C41.4473222,23.9767812 41.1341604,24.3336514 40.9114675,24.7465013 C40.8766717,24.8164758 40.8070802,24.8514631 40.7305295,24.8724555 C40.3477761,24.9774173 39.9650227,25.019402 39.5753101,24.9914122 C39.2830257,24.9704198 39.0603328,24.8514631 38.976823,24.5295802 C38.9489864,24.4316158 38.9002723,24.3336514 38.8445991,24.2426845 C38.705416,24.0467557 38.6706203,23.8228372 38.6984569,23.5919211 C38.747171,23.221056 38.747171,22.8361959 39.0394554,22.5353053 C39.1368835,22.437341 39.1508018,22.2903944 39.1508018,22.1504453 C39.1508018,21.3737277 39.3039032,20.6180025 39.4570045,19.8622774 C39.477882,19.7713104 39.4918003,19.6803435 39.4918003,19.596374 C39.4918003,19.3234733 39.5196369,19.0505725 39.6379425,18.7986641 C39.6518608,18.7706743 39.65882,18.7426845 39.65882,18.7146947 C39.7840847,17.9379771 40.0276551,17.1962468 40.250348,16.4475191 C40.4034493,15.9437023 40.5913464,15.446883 40.751407,14.9430662 C40.8418759,14.6701654 40.9114675,14.3972646 40.8836309,14.1033715 C40.8557943,13.8444656 40.9880182,13.6065522 41.071528,13.3616412 C41.252466,12.8158397 41.4542814,12.2840331 41.7396067,11.7802163 C41.7674433,11.7312341 41.7883207,11.668257 41.802239,11.6122774 C41.9205446,10.9475191 42.2197882,10.3597328 42.5955825,9.79993639 C42.8182753,9.47805344 42.9992133,9.12818066 43.1592738,8.77131043 C43.2219062,8.63136132 43.305416,8.51240458 43.4098033,8.40044529 C43.7438427,8.05057252 44.1057186,7.74968193 44.5163086,7.49077608 C44.9686536,7.19688295 45.4697126,6.97996183 45.8872617,6.6230916 C46.0681997,6.46914758 46.2978517,6.43416031 46.5205446,6.42016539 C46.8197882,6.40617048 47.1190318,6.40617048 47.4252345,6.42016539 C47.5574584,6.42716285 47.6896823,6.46215013 47.8219062,6.4971374 C48.0167625,6.5601145 48.1698638,6.67207379 48.1977005,6.90298982 C48.2185779,7.08492366 48.3160061,7.24586514 48.3995159,7.40680662 C48.5386989,7.67970738 48.6152496,7.96660305 48.6361271,8.27449109 C48.7126778,9.44306616 48.6082905,10.5976463 48.2951286,11.7312341 C48.176823,12.1580789 47.9610893,12.5429389 47.7314372,12.9138041 C47.3486838,13.5505725 46.8963389,14.1313613 46.3744024,14.6561705 C46.0751589,14.9570611 45.8037519,15.278944 45.5253858,15.5938295 C45.2331014,15.9157125 44.9408169,16.2445929 44.5580635,16.4755089 C44.4327988,16.5454835 44.3562481,16.6574427 44.3144932,16.7903944 C44.25882,16.9513359 44.1544327,17.0632952 44.0152496,17.1752545 C43.7160061,17.4061705 43.4237216,17.644084 43.0479274,17.7350509 C42.8600303,17.7840331 42.7417247,17.9239822 42.6790923,18.105916 C42.4146445,18.8266539 42.1989107,19.5683842 42.0945234,20.3311069 C42.0945234,20.3381043 42.1084418,20.3520992 42.1223601,20.3660941 C42.4355219,20.0652036 42.5677458,19.8552799 42.665174,19.5263995 C42.7765204,19.1695293 43.0061725,18.889631 43.2706203,18.6447201 C43.4237216,18.4977735 43.5977005,18.3858142 43.757761,18.2458651 C44.0361271,18.0149491 44.3284115,17.8050254 44.578941,17.5391221 C44.8364297,17.2662214 45.1635098,17.1192748 45.5323449,17.0772901 C45.8385477,17.0423028 46.0960363,17.1122774 46.2282602,17.4411578 C46.2769743,17.5601145 46.3813616,17.6650763 46.4648714,17.7700382 C46.7014826,18.0639313 46.8406657,18.3858142 46.8197882,18.7706743 C46.812829,18.9386132 46.8337065,19.0995547 46.8406657,19.2674936 C46.8406657,19.3304707 46.8615431,19.3934478 46.8476248,19.4494275 C46.7293192,19.9042621 46.7571558,20.3730916 46.6527685,20.8349237 C46.492708,21.5696565 46.3187292,22.3043893 46.1377912,23.0391221 C46.0960363,23.2000636 46.0473222,23.3540076 45.9777307,23.5079517 C45.90118,23.6898855 45.8594251,23.8788168 45.8455068,24.081743 C45.8385477,24.1727099 45.8455068,24.2636768 45.8942209,24.3406489 C45.9359758,24.4106234 46.0194856,24.4526081 46.082118,24.4106234 C46.1586687,24.3616412 46.2352194,24.312659 46.2908926,24.2426845 C46.5205446,23.9977735 46.7849924,23.7948473 47.0424811,23.5989186 C47.4809077,23.2560433 47.8079879,22.8291985 47.9889259,22.3043893 C48.1211498,21.9125318 48.3229652,21.5696565 48.5943722,21.2617684 C48.7474735,21.0938295 48.8866566,20.9188931 49.0258396,20.7369593 C49.1928593,20.5200382 49.3529198,20.303117 49.3946747,20.0232188 C49.4155522,19.9112595 49.4712254,19.7923028 49.5268986,19.687341 C49.8052648,19.2185115 50.0766717,18.7496819 50.3759153,18.2948473 C50.5568533,18.0149491 50.7865053,17.7770356 51.1066263,17.6510814 C51.3571558,17.5461196 51.5798487,17.399173 51.7816641,17.2032443 C52.2409682,16.769402 52.7629047,16.4685115 53.3961876,16.3705471 C53.8276551,16.3005725 54.2521634,16.2026081 54.6766717,16.1116412 C54.9272012,16.0556616 55.1568533,16.1116412 55.3586687,16.2585878 C55.5048109,16.3635496 55.6161573,16.5034987 55.8110136,16.5314885 C55.9223601,16.5524809 55.964115,16.6644402 55.9710741,16.7763995 C55.9780333,17.014313 55.9919516,17.2592239 55.9919516,17.4971374 C55.9919516,17.5881043 55.9780333,17.6860687 55.9432375,17.7630407 C55.7275038,18.2458651 55.4352194,18.6447201 54.871528,18.7776718 C54.4052648,18.889631 53.9737973,19.1135496 53.5284115,19.3024809 C53.3057186,19.4004453 53.1039032,19.5333969 52.8881694,19.6313613 C52.6793949,19.7223282 52.547171,19.8762723 52.4706203,20.0791985 C52.4358245,20.1631679 52.4010287,20.2471374 52.3871104,20.3381043 C52.3314372,20.6949746 52.275764,21.0518448 52.2270499,21.408715 C52.1992133,21.6046438 52.2618457,21.8005725 52.3036006,21.9895038 C52.3314372,22.1224555 52.414947,22.2064249 52.5402118,22.2344148 C52.8742511,22.3183842 53.1943722,22.4513359 53.5214523,22.5632952 C53.7023903,22.6262723 53.8763691,22.5772901 54.050348,22.5213104 C54.2034493,22.4653308 54.3565507,22.4023537 54.5166112,22.3533715 C54.8297731,22.2624046 55.0733434,22.0524809 55.3029955,21.8355598 C55.6091982,21.5416667 55.9223601,21.2617684 56.284236,21.0378499 C56.374705,20.9818702 56.4442965,20.8979008 56.5208472,20.8279262 C56.7087443,20.6529898 56.8966415,20.4850509 57.0914977,20.3101145 C57.2793949,20.1421756 57.4742511,19.9672392 57.6203933,19.7503181 C57.6899849,19.6523537 57.7734947,19.5613868 57.8570045,19.4774173 C58.0101059,19.3304707 58.1353707,19.1625318 58.2397579,18.9736005 C58.3580635,18.7636768 58.5042057,18.5677481 58.6781846,18.3998092 C58.9078366,18.182888 59.0818154,18.1688931 59.3184266,18.3368321 C59.561997,18.504771 59.652466,18.7496819 59.5480787,19.0015903 C59.4576097,19.2255089 59.3184266,19.4284351 59.1653253,19.610369 C58.559879,20.3451018 57.9196369,21.0448473 57.2654766,21.730598 C57.1123752,21.8915394 56.9105598,22.0104962 56.7992133,22.2204198 C56.7713767,22.269402 56.7087443,22.2973919 56.6530711,22.3253817 C56.3259909,22.4793257 56.0406657,22.7032443 55.7483812,22.9131679 C55.10118,23.375 54.370469,23.6479008 53.598003,23.8088422 C53.4518608,23.8368321 53.2987595,23.8368321 53.1526172,23.8438295 C52.7907413,23.850827 52.4288654,23.8298346 52.0739486,23.8998092 C51.9278064,23.927799 51.774705,23.9068066 51.6285628,23.8648219 C51.4406657,23.8158397 51.2458094,23.773855 51.0648714,23.7178753 C50.6751589,23.5919211 50.4455068,23.3050254 50.3480787,22.9201654 C50.3202421,22.8152036 50.3272012,22.7102417 50.2297731,22.6402672 C50.1045083,22.5842875 49.9722844,22.4653308 49.9374887,22.1994275 Z M43.2706203,15.908715 C43.5002723,15.7057888 43.7299244,15.5028626 43.9039032,15.2369593 C44.0709228,14.9850509 44.2240242,14.7401399 44.4745537,14.5442112 C44.7042057,14.3622774 44.8781846,14.1033715 45.08,13.8794529 C45.1008775,13.8584606 45.1287141,13.8374682 45.1495915,13.8234733 C45.6019365,13.4875954 45.9846899,13.0957379 46.2700151,12.5989186 C46.5275038,12.144084 46.8685023,11.7312341 47.0424811,11.2274173 C47.1120726,11.0314885 47.2095008,10.8425573 47.2930106,10.6466285 C47.4600303,10.2687659 47.5157035,9.86291349 47.5992133,9.47105598 C47.6200908,9.3730916 47.6131316,9.26113232 47.585295,9.15617048 C47.5365809,8.94624682 47.5365809,8.73632316 47.5296218,8.52639949 C47.5296218,8.35846056 47.5157035,8.19052163 47.4391528,8.04357506 C47.2234191,7.61673028 47.0355219,7.56075064 46.6806051,7.86863868 C46.6458094,7.8966285 46.6110136,7.93161578 46.583177,7.96660305 C46.3187292,8.27449109 46.0612405,8.58937659 45.852466,8.93924936 C45.5114675,9.50604326 45.2470197,10.1148219 44.9338578,10.7026081 C44.5859002,11.3533715 44.3423298,12.053117 44.077882,12.7388677 C43.8203933,13.3966285 43.6394554,14.0893766 43.4376399,14.7681298 C43.3541301,15.0550254 43.2845386,15.3489186 43.2219062,15.6428117 C43.214947,15.7267812 43.166233,15.8177481 43.2706203,15.908715 Z M54.9132829,17.5391221 C54.8993646,17.5181298 54.8854463,17.476145 54.8645688,17.4691476 C54.69059,17.4341603 54.5444478,17.5111323 54.4052648,17.5951018 C54.0433888,17.8120229 53.7650227,18.1339059 53.4518608,18.4068066 C53.4379425,18.4208015 53.4379425,18.4627863 53.4449017,18.4907761 C53.4518608,18.5117684 53.4866566,18.5397583 53.507534,18.5467557 C53.5632073,18.5537532 53.6258396,18.5537532 53.6815129,18.5327608 C53.9946747,18.4417939 54.2452042,18.2598601 54.460938,18.0219466 C54.5931619,17.8819975 54.7045083,17.721056 54.871528,17.6160941 C54.8924054,17.6020992 54.8993646,17.567112 54.9132829,17.5391221 Z M43.8134342,5.12563613 C43.3123752,5.12563613 42.9644175,5.1466285 42.6164599,5.11863868 C42.1849924,5.09064885 41.753525,5.0206743 41.3220575,4.97868957 C41.1550378,4.9576972 40.9949773,4.95069975 40.8279576,4.94370229 C40.660938,4.93670483 40.5356732,5.00667939 40.4591225,5.15362595 C40.389531,5.28657761 40.299062,5.41952926 40.2573071,5.55947837 C40.1111649,6.06329517 39.9163086,6.55311705 39.7910439,7.0639313 C39.7214523,7.35782443 39.6031467,7.63772265 39.568351,7.93861323 C39.477882,8.65935115 39.24823,9.35209924 39.067292,10.0448473 C38.9837821,10.3527354 38.9559455,10.6676209 38.8445991,10.9685115 C38.795885,11.0944656 38.8515582,11.2344148 38.8724357,11.3673664 C38.9281089,11.7032443 38.9141906,12.0321247 38.7332526,12.3330153 C38.5314372,12.6758906 38.4966415,13.0537532 38.5175189,13.4316158 C38.5383964,13.7744911 38.475764,14.0893766 38.4061725,14.4112595 C38.294826,14.9290712 38.1904387,15.446883 38.0790923,15.9576972 C38.0512557,16.0766539 38.0373374,16.1956107 37.9816641,16.30757 C37.8563994,16.5874682 37.8007262,16.8813613 37.7589713,17.1822519 C37.7102572,17.5251272 37.6615431,17.8680025 37.5710741,18.2038804 C37.4110136,18.8476463 37.2231165,19.4844148 37.0073828,20.1071883 C36.9447504,20.2891221 36.882118,20.4780534 36.8194856,20.6669847 C36.7986082,20.7229644 36.791649,20.7859415 36.7638124,20.8419211 C36.4228139,21.3947201 36.2349168,22.0244911 35.9495915,22.6052799 C35.3093495,23.8858142 34.5299244,25.0683842 33.4025416,25.9640585 C32.2194856,26.9017176 30.86941,27.4545165 29.3453555,27.5314885 C29.2409682,27.538486 29.1365809,27.5594784 29.0321936,27.5664758 C28.9278064,27.5804707 28.8234191,27.6014631 28.7190318,27.5944656 C27.9813616,27.5454835 27.2576097,27.4475191 26.5825719,27.1046438 C26.2346142,26.9297074 25.998003,26.6358142 25.7196369,26.3839059 C25.5317398,26.2089695 25.3925567,25.9920483 25.2533737,25.7751272 C25.1629047,25.6351781 25.086354,25.495229 25.1002723,25.3132952 C25.1141906,25.1383588 25.0167625,24.9914122 24.9332526,24.8514631 C24.7523147,24.5435751 24.7801513,24.2146947 24.814947,23.8788168 C24.8219062,23.7878499 24.8775794,23.7108779 24.9819667,23.696883 C25.0793949,23.682888 25.1629047,23.7178753 25.2116188,23.8018448 C25.2464145,23.850827 25.2603328,23.9138041 25.2812103,23.9697837 C25.3090469,24.0467557 25.357761,24.1097328 25.4343116,24.1237277 C25.6152496,24.1517176 25.6848411,24.2636768 25.6987595,24.4386132 C25.7474735,24.8794529 25.9771256,25.187341 26.3737973,25.3832697 C26.5338578,25.4672392 26.6939183,25.5512087 26.860938,25.6211832 C27.1532224,25.7401399 27.4385477,25.8660941 27.6890772,26.0760178 C27.8908926,26.2439567 28.1344629,26.3069338 28.4058699,26.2999364 C29.2409682,26.2719466 30.04823,26.1389949 30.8067776,25.7681298 C30.9111649,25.7191476 31.0155522,25.6421756 31.1060212,25.572201 C31.3426324,25.3832697 31.5792436,25.1943384 31.8088956,25.0054071 C31.9967927,24.8514631 32.1638124,24.6555344 32.2403631,24.4386132 C32.3586687,24.0887405 32.5604841,23.7878499 32.7205446,23.4659669 C32.783177,23.3470102 32.8527685,23.2280534 32.9084418,23.1090967 C32.9571558,22.9971374 33.0476248,22.8781807 33.0337065,22.7732188 C32.9780333,22.3883588 33.2007262,22.1014631 33.374705,21.8215649 C33.604357,21.4506997 33.7157035,21.0518448 33.785295,20.6319975 C33.8131316,20.4640585 33.8548865,20.3101145 33.9383964,20.1631679 C34.0914977,19.8692748 34.195885,19.5403944 34.2237216,19.2185115 C34.2724357,18.5957379 34.4324962,18.0009542 34.557761,17.399173 C34.606475,17.1472646 34.6412708,16.8953562 34.6621483,16.6434478 C34.6899849,16.2236005 34.787413,15.8107506 34.8639637,15.3909033 C34.9335552,15.0060433 35.0101059,14.6211832 35.0796974,14.2363232 C35.1632073,13.7744911 35.2536762,13.3196565 35.3163086,12.8578244 C35.3719818,12.451972 35.3998185,12.0461196 35.4276551,11.6402672 C35.4415734,11.4583333 35.4554917,11.2833969 35.4972466,11.1014631 C35.6155522,10.5276718 35.6921029,9.9398855 35.8312859,9.3730916 C35.9217549,9.00222646 35.9426324,8.58937659 36.2418759,8.29548346 C36.29059,8.24650127 36.3253858,8.16253181 36.3393041,8.09255725 C36.4019365,7.72868957 36.5967927,7.42080153 36.7290166,7.08492366 C36.8264448,6.84701018 36.9169138,6.60909669 37.063056,6.39217557 C37.202239,6.19624682 37.2648714,5.95833333 37.3205446,5.72041985 C37.3553404,5.56647583 37.4040545,5.42652672 37.5223601,5.32856234 C37.6337065,5.23759542 37.6685023,5.10464377 37.7380938,4.98568702 C37.8007262,4.88772265 37.8911952,4.80375318 37.9677458,4.71278626 C38.0234191,4.64980916 37.9955825,4.55884224 37.9190318,4.52385496 C37.8911952,4.50986005 37.8633585,4.5028626 37.8355219,4.49586514 C37.11177,4.28594148 36.3949773,4.06902036 35.6712254,3.85909669 C35.6573071,3.85209924 35.6433888,3.85209924 35.6294705,3.84510178 C35.198003,3.76113232 34.8013313,3.6071883 34.4046596,3.418257 C33.8479274,3.15935115 33.2424811,3.01240458 32.6231165,2.95642494 C32.5604841,2.94942748 32.4978517,2.96342239 32.4421785,2.94243003 C32.0663843,2.76749364 31.6488351,2.78148855 31.2660817,2.65553435 C30.9529198,2.55057252 30.6536762,2.41762087 30.3196369,2.38263359 C30.1804539,2.36863868 30.0343116,2.29166667 29.9090469,2.2076972 C29.7350681,2.09573791 29.5610893,2.04675573 29.3592738,2.04675573 C29.2409682,2.04675573 29.1226626,2.02576336 28.9973979,2.02576336 C28.4267474,2.0187659 27.8560968,1.99077608 27.3063238,2.2076972 C27.181059,2.25667939 27.0488351,2.28466921 26.9166112,2.31265903 C26.178941,2.44561069 25.5804539,2.83047074 25.0306808,3.32029262 C24.9610893,3.38326972 24.8984569,3.44624682 24.8219062,3.48823155 C24.5783359,3.61418575 24.446112,3.83810433 24.3347655,4.0620229 C24.0633585,4.62881679 23.9380938,5.23059796 24.0285628,5.86736641 C24.0633585,6.12627226 24.1468684,6.37818066 24.3069289,6.57410941 C24.6548865,7.01494911 25.0167625,7.43479644 25.5804539,7.61673028 C25.9284115,7.72868957 26.2206959,7.93861323 26.4851437,8.19052163 C26.6591225,8.35846056 26.6382451,8.58237913 26.4225113,8.71533079 C26.3737973,8.75031807 26.2902874,8.75031807 26.2624508,8.79930025 C26.088472,9.05820611 25.8518608,8.9812341 25.6152496,8.94624682 C25.1281089,8.86927481 24.7314372,8.59637405 24.313888,8.35846056 C24.2303782,8.30947837 24.1538275,8.21851145 24.1051135,8.12754453 C24.0216036,7.96660305 23.9102572,7.82665394 23.7989107,7.67970738 C23.5970953,7.39980916 23.3813616,7.11991094 23.2143419,6.81902036 C22.8385477,6.14726463 22.6088956,5.44052163 22.761997,4.64980916 C22.7898336,4.5028626 22.8037519,4.34891858 22.8246293,4.20197201 C22.8385477,4.08301527 22.8733434,3.96405852 22.9568533,3.86609415 C23.0473222,3.76113232 23.1238729,3.65617048 23.1517095,3.51622137 C23.1795461,3.41125954 23.2700151,3.34128499 23.353525,3.27830789 C23.7919516,2.94942748 24.1259909,2.5225827 24.4809077,2.11673028 C24.6548865,1.92080153 24.8775794,1.79484733 25.1141906,1.69688295 C25.4899849,1.54293893 25.8518608,1.36100509 26.1511044,1.07410941 C26.2276551,0.997137405 26.3250832,0.934160305 26.4294705,0.934160305 C26.770469,0.934160305 27.1114675,0.78721374 27.4594251,0.878180662 C27.5638124,0.906170483 27.6681997,0.878180662 27.772587,0.857188295 C28.0996672,0.780216285 28.4337065,0.801208651 28.7607867,0.857188295 C29.1226626,0.920165394 29.4775794,0.92716285 29.8394554,0.920165394 C30.1595764,0.913167939 30.4657791,0.941157761 30.7719818,1.03912214 C30.9390015,1.09510178 31.1268986,1.10909669 31.3078366,1.11609415 C31.6766717,1.1230916 32.0176702,1.21405852 32.3586687,1.35400763 C32.4421785,1.38899491 32.5256884,1.43097964 32.6161573,1.4379771 C33.3399092,1.5009542 34.014947,1.75986005 34.7178215,1.91380407 C35.0101059,1.97678117 35.2954312,2.07474555 35.5807564,2.15871501 C36.0957337,2.31965649 36.6246293,2.43861323 37.153525,2.53657761 C37.612829,2.62054707 38.0442965,2.80947837 38.4827231,2.96342239 C39.1925567,3.20133588 39.0464145,3.21533079 39.6309834,2.73250636 C39.9093495,2.50159033 40.1459607,2.22868957 40.4173676,1.99077608 C41.3220575,1.20006361 42.3728896,0.703244275 43.5141906,0.374363868 C44.7042057,0.0384860051 45.9081392,-0.0244910941 47.1259909,0.206424936 C47.2860514,0.234414758 47.4530711,0.269402036 47.6200908,0.248409669 C47.9123752,0.213422392 48.1837821,0.318384224 48.44823,0.416348601 C48.5595764,0.458333333 48.6500454,0.535305344 48.7335552,0.626272265 C48.9005749,0.822201018 49.0745537,1.00413486 49.2554917,1.1860687 C49.5825719,1.51494911 49.7287141,1.89980916 49.7426324,2.36164122 C49.7635098,2.92843511 49.589531,3.39726463 49.1719818,3.78212468 C49.0954312,3.85209924 49.0188805,3.92907125 48.9562481,4.01304071 C48.8727383,4.125 48.7544327,4.1879771 48.6291679,4.23695929 C47.8079879,4.59382952 46.9520121,4.78975827 46.0681997,4.91571247 C45.2678971,5.05566158 44.4675946,5.16762087 43.8134342,5.12563613 Z M43.6324962,3.98505089 C43.9178215,3.98505089 44.2031467,3.9990458 44.488472,3.97805344 C44.7250832,3.96405852 44.9825719,3.97105598 45.1774281,3.82410941 C45.3235703,3.71215013 45.4557943,3.67016539 45.6367322,3.70515267 C45.7063238,3.71914758 45.7828744,3.69115776 45.8594251,3.69115776 C46.2700151,3.67716285 46.6597277,3.5442112 47.0355219,3.39726463 C47.3973979,3.25731552 47.7453555,3.06838422 48.0793949,2.87245547 C48.3299244,2.72550891 48.406475,2.41062341 48.267292,2.15871501 C48.1211498,1.8928117 47.9541301,1.64090331 47.7244781,1.4379771 C47.6340091,1.36100509 47.5296218,1.27703562 47.4182753,1.2490458 C46.9102572,1.11609415 46.3952799,1.01812977 45.8594251,1.15807888 C45.5114675,1.2490458 45.1565507,1.32601781 44.8016339,1.36800254 C44.398003,1.40998728 44.0570045,1.57792621 43.7229652,1.79484733 C43.486354,1.94879135 43.2358245,2.09573791 42.9783359,2.21469466 C42.7486838,2.32665394 42.5886233,2.47360051 42.4772769,2.70451654 C42.3380938,3.01240458 42.1432375,3.27830789 41.8370348,3.44624682 C41.7604841,3.48823155 41.6908926,3.55120865 41.6282602,3.62118321 C41.6004236,3.64917303 41.5865053,3.70515267 41.5934644,3.74013995 C41.6073828,3.77512723 41.6560968,3.80311705 41.6908926,3.8101145 C42.345053,3.92907125 42.9783359,4.05502545 43.6324962,3.98505089 Z" id="Combined-Shape"></path>
                    </g>
                </g>
            </g>
        </g>
    </g>
</svg>