<?xml version="1.0" encoding="UTF-8"?>
<svg width="200px" height="200px" viewBox="0 0 200 200" version="1.1" xmlns="http://www.w3.org/2000/svg" xmlns:xlink="http://www.w3.org/1999/xlink">
    <!-- Generator: Sketch 53.2 (72643) - https://sketchapp.com -->
    <title>Web Development</title>
    <desc>Created with Sketch.</desc>
    <g id="Web-Development" stroke="none" stroke-width="1" fill="none" fill-rule="evenodd">
        <g transform="translate(11.000000, 43.000000)" fill-rule="nonzero">
            <path d="M177.690879,102.599297 L177.690879,105.339682 C177.690879,109.861299 173.942657,113.560836 169.361537,113.560836 L8.32934257,113.560836 C3.74822178,113.560488 0,109.861299 0,105.339682 L0,102.599297 L177.690879,102.599297 L177.690879,102.599297 Z" id="Path" stroke="#041630" stroke-width="5" stroke-linecap="round" stroke-linejoin="round"></path>
            <path d="M105.503596,102.86385 C105.503596,104.456512 103.698923,105.674501 101.339101,105.674501 L76.3514257,105.674501 C73.991604,105.674501 72.1869307,104.456512 72.1869307,102.86385" id="Path" stroke="#041630" stroke-width="5" stroke-linecap="round" stroke-linejoin="round"></path>
            <path d="M22.2112277,0.205177515 L155.479299,0.205177515 C158.533497,0.205177515 161.032194,2.69576553 161.032194,5.74005178 L161.032194,102.599297 L16.6583327,102.599297 L16.6583327,5.73970044 C16.6586851,2.69576553 19.1573822,0.205177515 22.2112277,0.205177515 Z" id="Path" stroke="#041630" stroke-width="5" stroke-linecap="round" stroke-linejoin="round"></path>
            <g id="1197511" transform="translate(47.246914, 13.923077)">
                <path d="M80.1691691,69.9901932 L4.33830097,69.9901932 C1.94226268,69.9901932 0,68.0590885 0,65.676815 L0,4.31337818 C0,1.93110471 1.94226268,0 4.33830097,0 L80.1691691,0 C82.5652074,0 84.5074701,1.93110471 84.5074701,4.31337818 L84.5074701,65.676815 C84.5074701,68.0590885 82.5652074,69.9901932 80.1691691,69.9901932 Z" id="Path" stroke="#041630" stroke-width="5" stroke-linecap="round" stroke-linejoin="round"></path>
                <path d="M84.6042928,14.714646 L0.0942406476,14.714646 L0.0942406476,4.31337818 C0.0942406476,1.93110471 2.03650349,0 4.43189617,0 L80.2659919,0 C82.6620301,0 84.6042928,1.93110471 84.6042928,4.31337818 L84.6042928,14.714646 Z" id="Path" stroke="#041630" stroke-width="5" stroke-linecap="round" stroke-linejoin="round"></path>
                <g id="Group" transform="translate(11.000000, 24.000000)" fill="#C5001A">
                    <g id="Group-2" transform="translate(9.629630, 0.000000)">
                        <path d="M10.7480393,21.0077406 C10.0977669,21.0077406 9.4461699,20.7657137 8.94952577,20.2803659 L0.74496595,12.2611267 C-0.248321983,11.2917256 -0.248321983,9.71790456 0.74496595,8.74720888 L8.94952577,0.729263876 C9.9428137,-0.241431469 11.5532648,-0.241431469 12.5465531,0.729263876 C13.5398414,1.69995955 13.5398414,3.27248636 12.5465531,4.24318171 L6.13918246,10.5048151 L12.5465531,16.7664481 C13.5398414,17.7371437 13.5398414,19.3096706 12.5465531,20.2803659 C12.0499089,20.7657137 11.398312,21.0077406 10.7480393,21.0077406 Z" id="Path"></path>
                        <path d="M30.3648174,21.0077406 C29.7145447,21.0077406 29.0629477,20.7657137 28.5663036,20.2803659 C27.5730153,19.3096706 27.5730153,17.7358496 28.5663036,16.7664481 L34.9736742,10.5048151 L28.5663036,4.24318171 C27.5730153,3.27248636 27.5730153,1.69866538 28.5663036,0.729263876 C29.5595919,-0.241431469 31.170043,-0.241431469 32.1633309,0.729263876 L40.3678907,8.74720888 C41.3611787,9.71790456 41.3611787,11.2917256 40.3678907,12.2611267 L32.1633309,20.2803659 C31.6666868,20.7657137 31.0150898,21.0077406 30.3648174,21.0077406 Z" id="Path"></path>
                        <path d="M17.6123223,21.0090348 C17.3024166,21.0090348 16.9885373,20.9533815 16.6826048,20.8356037 C15.3754376,20.334725 14.7317867,18.8916243 15.2456481,17.6141889 L21.6927498,1.57700471 C22.2066111,0.300863839 23.6832992,-0.329441196 24.9891421,0.172731949 C26.2963094,0.674905093 26.9399599,2.11800584 26.4260988,3.39544121 L19.9789969,19.4313309 C19.5856549,20.4110861 18.6268007,21.0090348 17.6123223,21.0090348 Z" id="Path"></path>
                    </g>
                    <path d="M20.7135293,36.0425715 L3.08332766,36.0425715 C1.67948048,36.0425715 0.54051012,34.9295073 0.54051012,33.557591 C0.54051012,32.1843805 1.67948048,31.0726105 3.08332766,31.0726105 L20.7135293,31.0726105 C22.1187008,31.0726105 23.2563468,32.1843805 23.2563468,33.557591 C23.2563468,34.9295073 22.1187008,36.0425715 20.7135293,36.0425715 Z" id="Path"></path>
                    <path d="M61.3217959,36.0425715 L30.3245852,36.0425715 C28.9207377,36.0425715 27.7817677,34.9295073 27.7817677,33.557591 C27.7817677,32.1843805 28.9207377,31.0726105 30.3245852,31.0726105 L61.3217959,31.0726105 C62.7269674,31.0726105 63.8646134,32.1843805 63.8646134,33.557591 C63.8646134,34.9295073 62.7269674,36.0425715 61.3217959,36.0425715 Z" id="Path"></path>
                </g>
                <path d="M10.5995002,7.32138353 C10.5995002,8.67681499 9.49443078,9.7748942 8.13181323,9.7748942 C6.76855006,9.7748942 5.66348068,8.67681499 5.66348068,7.32138353 C5.66348068,5.96659382 6.76855006,4.86787286 8.13181323,4.86787286 C9.49443078,4.86787286 10.5995002,5.96659382 10.5995002,7.32138353 Z" id="Path" fill="#C5001A"></path>
                <path d="M20.1294326,7.32138353 C20.1294326,8.67681499 19.0250087,9.7748942 17.6617455,9.7748942 C16.299128,9.7748942 15.1940586,8.67681499 15.1940586,7.32138353 C15.1940586,5.96659382 16.299128,4.86787286 17.6617455,4.86787286 C19.0250087,4.86787286 20.1294326,5.96659382 20.1294326,7.32138353 Z" id="Path" fill="#041630"></path>
                <path d="M29.6600107,7.32138353 C29.6600107,8.67681499 28.5549413,9.7748942 27.1923236,9.7748942 C25.8290604,9.7748942 24.7246365,8.67681499 24.7246365,7.32138353 C24.7246365,5.96659382 25.8290604,4.86787286 27.1923236,4.86787286 C28.5549413,4.86787286 29.6600107,5.96659382 29.6600107,7.32138353 Z" id="Path" fill="#041630"></path>
            </g>
        </g>
    </g>
</svg>